<svg width="391" height="249" viewBox="0 0 391 249" fill="none" xmlns="http://www.w3.org/2000/svg">
<path d="M0.468 85L5.994 72.31H7.002L12.618 85H11.448L9.864 81.346L10.386 81.616H2.574L3.186 81.346L1.638 85H0.468ZM6.48 73.66L3.402 80.878L2.988 80.662H9.972L9.666 80.878L6.516 73.66H6.48ZM14.9162 85V76.864H13.1162V75.982H15.1862L14.9162 76.27V74.704C14.9162 73.744 15.1562 73 15.6362 72.472C16.1162 71.944 16.8002 71.68 17.6882 71.68C17.9162 71.68 18.1502 71.704 18.3902 71.752C18.6302 71.788 18.8282 71.836 18.9842 71.896V72.868C18.8402 72.808 18.6662 72.754 18.4622 72.706C18.2582 72.658 18.0422 72.634 17.8142 72.634C17.4182 72.634 17.0822 72.718 16.8062 72.886C16.5422 73.054 16.3382 73.3 16.1942 73.624C16.0622 73.936 15.9962 74.338 15.9962 74.83V76.27L15.8162 75.982H18.5882V76.864H16.0142V85H14.9162ZM20.3022 85V78.088C20.3022 77.74 20.2902 77.392 20.2662 77.044C20.2542 76.684 20.2242 76.33 20.1762 75.982H21.2562L21.4002 78.052L21.1842 78.07C21.3042 77.566 21.5202 77.152 21.8322 76.828C22.1442 76.492 22.5042 76.24 22.9122 76.072C23.3202 75.904 23.7402 75.82 24.1722 75.82C24.3282 75.82 24.4722 75.832 24.6042 75.856C24.7482 75.868 24.8802 75.892 25.0002 75.928L24.9642 76.918C24.8202 76.87 24.6762 76.84 24.5322 76.828C24.3882 76.816 24.2322 76.81 24.0642 76.81C23.5242 76.81 23.0502 76.942 22.6422 77.206C22.2462 77.47 21.9402 77.806 21.7242 78.214C21.5082 78.622 21.4002 79.036 21.4002 79.456V85H20.3022ZM26.5956 85V75.982H27.6936V85H26.5956ZM26.4156 73.768V72.4H27.8916V73.768H26.4156ZM34.3273 85.144C33.4753 85.144 32.7313 84.958 32.0953 84.586C31.4593 84.202 30.9673 83.656 30.6193 82.948C30.2833 82.24 30.1153 81.4 30.1153 80.428C30.1153 79.456 30.2893 78.628 30.6373 77.944C30.9853 77.248 31.4713 76.72 32.0953 76.36C32.7313 76 33.4753 75.82 34.3273 75.82C34.9033 75.82 35.4553 75.928 35.9833 76.144C36.5233 76.36 36.9673 76.66 37.3153 77.044L36.8653 77.854C36.4933 77.482 36.0913 77.212 35.6593 77.044C35.2273 76.864 34.7953 76.774 34.3633 76.774C33.3793 76.774 32.6113 77.086 32.0593 77.71C31.5073 78.334 31.2313 79.246 31.2313 80.446C31.2313 81.646 31.5073 82.576 32.0593 83.236C32.6113 83.884 33.3793 84.208 34.3633 84.208C34.7713 84.208 35.1913 84.124 35.6233 83.956C36.0673 83.788 36.4813 83.512 36.8653 83.128L37.3153 83.938C36.9553 84.322 36.4993 84.622 35.9473 84.838C35.4073 85.042 34.8673 85.144 34.3273 85.144ZM42.8652 85.144C42.0492 85.144 41.3412 84.958 40.7412 84.586C40.1412 84.214 39.6792 83.68 39.3552 82.984C39.0312 82.288 38.8692 81.454 38.8692 80.482C38.8692 79.51 39.0312 78.682 39.3552 77.998C39.6912 77.302 40.1592 76.768 40.7592 76.396C41.3592 76.012 42.0612 75.82 42.8652 75.82C43.6932 75.82 44.4072 76.036 45.0072 76.468C45.6192 76.9 46.0212 77.488 46.2132 78.232H45.9972L46.1772 75.982H47.2392C47.2032 76.33 47.1672 76.672 47.1312 77.008C47.1072 77.344 47.0952 77.674 47.0952 77.998V85H45.9972V82.75H46.1952C46.0032 83.494 45.6012 84.082 44.9892 84.514C44.3892 84.934 43.6812 85.144 42.8652 85.144ZM43.0092 84.208C43.9332 84.208 44.6652 83.89 45.2052 83.254C45.7452 82.618 46.0152 81.694 46.0152 80.482C46.0152 79.27 45.7452 78.346 45.2052 77.71C44.6652 77.074 43.9332 76.756 43.0092 76.756C42.0852 76.756 41.3472 77.074 40.7952 77.71C40.2552 78.346 39.9852 79.27 39.9852 80.482C39.9852 81.694 40.2552 82.618 40.7952 83.254C41.3472 83.89 42.0852 84.208 43.0092 84.208ZM0.468 123L5.994 110.31H7.002L12.618 123H11.448L9.864 119.346L10.386 119.616H2.574L3.186 119.346L1.638 123H0.468ZM6.48 111.66L3.402 118.878L2.988 118.662H9.972L9.666 118.878L6.516 111.66H6.48ZM14.5897 123V115.998C14.5897 115.674 14.5777 115.344 14.5537 115.008C14.5297 114.672 14.4937 114.33 14.4457 113.982H15.5257L15.6877 116.052H15.4717C15.7357 115.332 16.1617 114.78 16.7497 114.396C17.3377 114.012 18.0217 113.82 18.8017 113.82C19.8697 113.82 20.6737 114.102 21.2137 114.666C21.7657 115.23 22.0417 116.112 22.0417 117.312V123H20.9437V117.402C20.9437 116.478 20.7577 115.812 20.3857 115.404C20.0137 114.984 19.4377 114.774 18.6577 114.774C17.7457 114.774 17.0197 115.05 16.4797 115.602C15.9517 116.154 15.6877 116.898 15.6877 117.834V123H14.5897ZM27.912 123.144C27.108 123.144 26.49 122.904 26.058 122.424C25.638 121.944 25.428 121.206 25.428 120.21V114.864H23.628V113.982H25.428V111.462L26.526 111.102V113.982H29.19V114.864H26.526V120.048C26.526 120.804 26.646 121.35 26.886 121.686C27.126 122.022 27.51 122.19 28.038 122.19C28.278 122.19 28.488 122.166 28.668 122.118C28.86 122.07 29.022 122.016 29.154 121.956V122.928C29.01 122.988 28.824 123.036 28.596 123.072C28.368 123.12 28.14 123.144 27.912 123.144ZM34.4804 123.144C33.6644 123.144 32.9564 122.958 32.3564 122.586C31.7564 122.214 31.2944 121.68 30.9704 120.984C30.6464 120.288 30.4844 119.454 30.4844 118.482C30.4844 117.51 30.6464 116.682 30.9704 115.998C31.3064 115.302 31.7744 114.768 32.3744 114.396C32.9744 114.012 33.6764 113.82 34.4804 113.82C35.3084 113.82 36.0224 114.036 36.6224 114.468C37.2344 114.9 37.6364 115.488 37.8284 116.232H37.6124L37.7924 113.982H38.8544C38.8184 114.33 38.7824 114.672 38.7464 115.008C38.7224 115.344 38.7104 115.674 38.7104 115.998V123H37.6124V120.75H37.8104C37.6184 121.494 37.2164 122.082 36.6044 122.514C36.0044 122.934 35.2964 123.144 34.4804 123.144ZM34.6244 122.208C35.5484 122.208 36.2804 121.89 36.8204 121.254C37.3604 120.618 37.6304 119.694 37.6304 118.482C37.6304 117.27 37.3604 116.346 36.8204 115.71C36.2804 115.074 35.5484 114.756 34.6244 114.756C33.7004 114.756 32.9624 115.074 32.4104 115.71C31.8704 116.346 31.6004 117.27 31.6004 118.482C31.6004 119.694 31.8704 120.618 32.4104 121.254C32.9624 121.89 33.7004 122.208 34.6244 122.208ZM41.6772 123V116.088C41.6772 115.74 41.6652 115.392 41.6412 115.044C41.6292 114.684 41.5992 114.33 41.5512 113.982H42.6312L42.7752 116.052L42.5592 116.07C42.6792 115.566 42.8952 115.152 43.2072 114.828C43.5192 114.492 43.8792 114.24 44.2872 114.072C44.6952 113.904 45.1152 113.82 45.5472 113.82C45.7032 113.82 45.8472 113.832 45.9792 113.856C46.1232 113.868 46.2552 113.892 46.3752 113.928L46.3392 114.918C46.1952 114.87 46.0512 114.84 45.9072 114.828C45.7632 114.816 45.6072 114.81 45.4392 114.81C44.8992 114.81 44.4252 114.942 44.0172 115.206C43.6212 115.47 43.3152 115.806 43.0992 116.214C42.8832 116.622 42.7752 117.036 42.7752 117.456V123H41.6772ZM51.5011 123.144C50.6491 123.144 49.9051 122.958 49.2691 122.586C48.6331 122.202 48.1411 121.656 47.7931 120.948C47.4571 120.24 47.2891 119.4 47.2891 118.428C47.2891 117.456 47.4631 116.628 47.8111 115.944C48.1591 115.248 48.6451 114.72 49.2691 114.36C49.9051 114 50.6491 113.82 51.5011 113.82C52.0771 113.82 52.6291 113.928 53.1571 114.144C53.6971 114.36 54.1411 114.66 54.4891 115.044L54.0391 115.854C53.6671 115.482 53.2651 115.212 52.8331 115.044C52.4011 114.864 51.9691 114.774 51.5371 114.774C50.5531 114.774 49.7851 115.086 49.2331 115.71C48.6811 116.334 48.4051 117.246 48.4051 118.446C48.4051 119.646 48.6811 120.576 49.2331 121.236C49.7851 121.884 50.5531 122.208 51.5371 122.208C51.9451 122.208 52.3651 122.124 52.7971 121.956C53.2411 121.788 53.6551 121.512 54.0391 121.128L54.4891 121.938C54.1291 122.322 53.6731 122.622 53.1211 122.838C52.5811 123.042 52.0411 123.144 51.5011 123.144ZM59.6229 123.144C58.8189 123.144 58.2009 122.904 57.7689 122.424C57.3489 121.944 57.1389 121.206 57.1389 120.21V114.864H55.3389V113.982H57.1389V111.462L58.2369 111.102V113.982H60.9009V114.864H58.2369V120.048C58.2369 120.804 58.3569 121.35 58.5969 121.686C58.8369 122.022 59.2209 122.19 59.7489 122.19C59.9889 122.19 60.1989 122.166 60.3789 122.118C60.5709 122.07 60.7329 122.016 60.8649 121.956V122.928C60.7209 122.988 60.5349 123.036 60.3069 123.072C60.0789 123.12 59.8509 123.144 59.6229 123.144ZM62.7713 123V113.982H63.8693V123H62.7713ZM62.5913 111.768V110.4H64.0673V111.768H62.5913ZM70.503 123.144C69.651 123.144 68.907 122.958 68.271 122.586C67.635 122.202 67.143 121.656 66.795 120.948C66.459 120.24 66.291 119.4 66.291 118.428C66.291 117.456 66.465 116.628 66.813 115.944C67.161 115.248 67.647 114.72 68.271 114.36C68.907 114 69.651 113.82 70.503 113.82C71.079 113.82 71.631 113.928 72.159 114.144C72.699 114.36 73.143 114.66 73.491 115.044L73.041 115.854C72.669 115.482 72.267 115.212 71.835 115.044C71.403 114.864 70.971 114.774 70.539 114.774C69.555 114.774 68.787 115.086 68.235 115.71C67.683 116.334 67.407 117.246 67.407 118.446C67.407 119.646 67.683 120.576 68.235 121.236C68.787 121.884 69.555 122.208 70.539 122.208C70.947 122.208 71.367 122.124 71.799 121.956C72.243 121.788 72.657 121.512 73.041 121.128L73.491 121.938C73.131 122.322 72.675 122.622 72.123 122.838C71.583 123.042 71.043 123.144 70.503 123.144ZM79.041 123.144C78.225 123.144 77.517 122.958 76.917 122.586C76.317 122.214 75.855 121.68 75.531 120.984C75.207 120.288 75.045 119.454 75.045 118.482C75.045 117.51 75.207 116.682 75.531 115.998C75.867 115.302 76.335 114.768 76.935 114.396C77.535 114.012 78.237 113.82 79.041 113.82C79.869 113.82 80.583 114.036 81.183 114.468C81.795 114.9 82.197 115.488 82.389 116.232H82.173L82.353 113.982H83.415C83.379 114.33 83.343 114.672 83.307 115.008C83.283 115.344 83.271 115.674 83.271 115.998V123H82.173V120.75H82.371C82.179 121.494 81.777 122.082 81.165 122.514C80.565 122.934 79.857 123.144 79.041 123.144ZM79.185 122.208C80.109 122.208 80.841 121.89 81.381 121.254C81.921 120.618 82.191 119.694 82.191 118.482C82.191 117.27 81.921 116.346 81.381 115.71C80.841 115.074 80.109 114.756 79.185 114.756C78.261 114.756 77.523 115.074 76.971 115.71C76.431 116.346 76.161 117.27 76.161 118.482C76.161 119.694 76.431 120.618 76.971 121.254C77.523 121.89 78.261 122.208 79.185 122.208ZM0.468 161L5.994 148.31H7.002L12.618 161H11.448L9.864 157.346L10.386 157.616H2.574L3.186 157.346L1.638 161H0.468ZM6.48 149.66L3.402 156.878L2.988 156.662H9.972L9.666 156.878L6.516 149.66H6.48ZM17.4002 161.144C16.7042 161.144 16.0502 161.042 15.4382 160.838C14.8382 160.634 14.3402 160.352 13.9442 159.992L14.3762 159.182C14.8202 159.542 15.3002 159.812 15.8162 159.992C16.3322 160.16 16.8722 160.244 17.4362 160.244C18.2042 160.244 18.7862 160.1 19.1822 159.812C19.5782 159.524 19.7762 159.134 19.7762 158.642C19.7762 158.258 19.6502 157.946 19.3982 157.706C19.1462 157.466 18.7262 157.286 18.1382 157.166L16.5182 156.824C15.7502 156.644 15.1742 156.356 14.7902 155.96C14.4182 155.564 14.2322 155.066 14.2322 154.466C14.2322 153.95 14.3642 153.494 14.6282 153.098C14.9042 152.702 15.2942 152.39 15.7982 152.162C16.3022 151.934 16.8962 151.82 17.5802 151.82C18.2282 151.82 18.8222 151.928 19.3622 152.144C19.9142 152.348 20.3642 152.642 20.7122 153.026L20.2442 153.818C19.8842 153.458 19.4762 153.188 19.0202 153.008C18.5762 152.828 18.1022 152.738 17.5982 152.738C16.8542 152.738 16.2902 152.894 15.9062 153.206C15.5222 153.506 15.3302 153.908 15.3302 154.412C15.3302 154.796 15.4502 155.114 15.6902 155.366C15.9302 155.606 16.3082 155.786 16.8242 155.906L18.4442 156.266C19.2602 156.446 19.8662 156.722 20.2622 157.094C20.6582 157.466 20.8562 157.958 20.8562 158.57C20.8562 159.098 20.7122 159.56 20.4242 159.956C20.1362 160.34 19.7342 160.634 19.2182 160.838C18.7022 161.042 18.0962 161.144 17.4002 161.144ZM23.3788 161V151.982H24.4768V161H23.3788ZM23.1988 149.768V148.4H24.6748V149.768H23.1988ZM30.8945 161.144C30.0785 161.144 29.3705 160.958 28.7705 160.586C28.1705 160.214 27.7085 159.68 27.3845 158.984C27.0605 158.288 26.8985 157.454 26.8985 156.482C26.8985 155.51 27.0605 154.682 27.3845 153.998C27.7205 153.302 28.1885 152.768 28.7885 152.396C29.3885 152.012 30.0905 151.82 30.8945 151.82C31.7225 151.82 32.4365 152.036 33.0365 152.468C33.6485 152.9 34.0505 153.488 34.2425 154.232H34.0265L34.2065 151.982H35.2685C35.2325 152.33 35.1965 152.672 35.1605 153.008C35.1365 153.344 35.1245 153.674 35.1245 153.998V161H34.0265V158.75H34.2245C34.0325 159.494 33.6305 160.082 33.0185 160.514C32.4185 160.934 31.7105 161.144 30.8945 161.144ZM31.0385 160.208C31.9625 160.208 32.6945 159.89 33.2345 159.254C33.7745 158.618 34.0445 157.694 34.0445 156.482C34.0445 155.27 33.7745 154.346 33.2345 153.71C32.6945 153.074 31.9625 152.756 31.0385 152.756C30.1145 152.756 29.3765 153.074 28.8245 153.71C28.2845 154.346 28.0145 155.27 28.0145 156.482C28.0145 157.694 28.2845 158.618 28.8245 159.254C29.3765 159.89 30.1145 160.208 31.0385 160.208ZM1.674 199V186.31H9.558V187.264H2.754V192.088H9.162V193.042H2.754V198.046H9.558V199H1.674ZM15.1913 199.144C14.1353 199.144 13.3313 198.862 12.7793 198.298C12.2393 197.722 11.9693 196.84 11.9693 195.652V189.982H13.0673V195.58C13.0673 196.492 13.2533 197.158 13.6253 197.578C13.9973 197.998 14.5673 198.208 15.3353 198.208C16.1873 198.208 16.8713 197.932 17.3873 197.38C17.9153 196.816 18.1793 196.072 18.1793 195.148V189.982H19.2773V199H18.1973V196.876H18.4313C18.1793 197.608 17.7653 198.172 17.1893 198.568C16.6253 198.952 15.9593 199.144 15.1913 199.144ZM22.2533 199V192.088C22.2533 191.74 22.2413 191.392 22.2173 191.044C22.2053 190.684 22.1753 190.33 22.1273 189.982H23.2073L23.3513 192.052L23.1353 192.07C23.2553 191.566 23.4713 191.152 23.7833 190.828C24.0953 190.492 24.4553 190.24 24.8633 190.072C25.2713 189.904 25.6913 189.82 26.1233 189.82C26.2793 189.82 26.4233 189.832 26.5553 189.856C26.6993 189.868 26.8313 189.892 26.9513 189.928L26.9153 190.918C26.7713 190.87 26.6273 190.84 26.4833 190.828C26.3393 190.816 26.1833 190.81 26.0153 190.81C25.4753 190.81 25.0013 190.942 24.5933 191.206C24.1973 191.47 23.8913 191.806 23.6753 192.214C23.4593 192.622 23.3513 193.036 23.3513 193.456V199H22.2533ZM32.0053 199.144C31.1533 199.144 30.4153 198.958 29.7913 198.586C29.1793 198.214 28.7053 197.68 28.3693 196.984C28.0333 196.288 27.8653 195.454 27.8653 194.482C27.8653 193.522 28.0333 192.694 28.3693 191.998C28.7053 191.302 29.1793 190.768 29.7913 190.396C30.4153 190.012 31.1533 189.82 32.0053 189.82C32.8453 189.82 33.5713 190.012 34.1833 190.396C34.8073 190.768 35.2873 191.302 35.6233 191.998C35.9713 192.694 36.1453 193.522 36.1453 194.482C36.1453 195.454 35.9713 196.288 35.6233 196.984C35.2873 197.68 34.8073 198.214 34.1833 198.586C33.5713 198.958 32.8453 199.144 32.0053 199.144ZM32.0053 198.208C32.9173 198.208 33.6493 197.89 34.2013 197.254C34.7533 196.618 35.0293 195.694 35.0293 194.482C35.0293 193.27 34.7533 192.346 34.2013 191.71C33.6493 191.074 32.9173 190.756 32.0053 190.756C31.0813 190.756 30.3433 191.074 29.7913 191.71C29.2513 192.346 28.9813 193.27 28.9813 194.482C28.9813 195.694 29.2513 196.618 29.7913 197.254C30.3433 197.89 31.0813 198.208 32.0053 198.208ZM38.5487 202.888V191.998C38.5487 191.674 38.5367 191.344 38.5127 191.008C38.4887 190.672 38.4527 190.33 38.4047 189.982H39.4847L39.6647 192.232H39.4487C39.6527 191.488 40.0487 190.9 40.6367 190.468C41.2247 190.036 41.9387 189.82 42.7787 189.82C43.5947 189.82 44.2967 190.012 44.8847 190.396C45.4847 190.768 45.9527 191.302 46.2887 191.998C46.6247 192.682 46.7927 193.51 46.7927 194.482C46.7927 195.454 46.6247 196.288 46.2887 196.984C45.9647 197.68 45.5027 198.214 44.9027 198.586C44.3027 198.958 43.5947 199.144 42.7787 199.144C41.9507 199.144 41.2367 198.934 40.6367 198.514C40.0487 198.082 39.6527 197.494 39.4487 196.75H39.6467V202.888H38.5487ZM42.6347 198.208C43.5587 198.208 44.2967 197.89 44.8487 197.254C45.4007 196.618 45.6767 195.694 45.6767 194.482C45.6767 193.27 45.4007 192.346 44.8487 191.71C44.2967 191.074 43.5587 190.756 42.6347 190.756C41.7227 190.756 40.9907 191.074 40.4387 191.71C39.8987 192.346 39.6287 193.27 39.6287 194.482C39.6287 195.694 39.8987 196.618 40.4387 197.254C40.9907 197.89 41.7227 198.208 42.6347 198.208ZM53.0535 199.144C51.6855 199.144 50.5995 198.736 49.7955 197.92C49.0035 197.104 48.6075 195.97 48.6075 194.518C48.6075 193.558 48.7815 192.73 49.1295 192.034C49.4895 191.338 49.9875 190.798 50.6235 190.414C51.2595 190.018 51.9975 189.82 52.8375 189.82C53.6415 189.82 54.3195 189.994 54.8715 190.342C55.4235 190.678 55.8495 191.164 56.1495 191.8C56.4495 192.424 56.5995 193.168 56.5995 194.032V194.536H49.3995V193.744H55.9155L55.6095 193.978C55.6095 192.958 55.3755 192.16 54.9075 191.584C54.4395 190.996 53.7435 190.702 52.8195 190.702C51.8355 190.702 51.0675 191.044 50.5155 191.728C49.9635 192.4 49.6875 193.294 49.6875 194.41V194.536C49.6875 195.736 49.9815 196.648 50.5695 197.272C51.1695 197.896 52.0035 198.208 53.0715 198.208C53.6235 198.208 54.1395 198.124 54.6195 197.956C55.0995 197.788 55.5615 197.5 56.0055 197.092L56.4555 197.902C56.0715 198.298 55.5735 198.604 54.9615 198.82C54.3495 199.036 53.7135 199.144 53.0535 199.144ZM0.468 237L5.994 224.31H7.002L12.618 237H11.448L9.864 233.346L10.386 233.616H2.574L3.186 233.346L1.638 237H0.468ZM6.48 225.66L3.402 232.878L2.988 232.662H9.972L9.666 232.878L6.516 225.66H6.48ZM14.5897 237V229.998C14.5897 229.674 14.5777 229.344 14.5537 229.008C14.5297 228.672 14.4937 228.33 14.4457 227.982H15.5257L15.6877 230.052H15.4717C15.6997 229.344 16.0777 228.798 16.6057 228.414C17.1337 228.018 17.7757 227.82 18.5317 227.82C19.2997 227.82 19.9237 228.006 20.4037 228.378C20.8837 228.75 21.2017 229.326 21.3577 230.106H21.0877C21.3037 229.41 21.6997 228.858 22.2757 228.45C22.8517 228.03 23.5297 227.82 24.3097 227.82C25.2937 227.82 26.0377 228.102 26.5417 228.666C27.0457 229.23 27.2977 230.112 27.2977 231.312V237H26.1997V231.384C26.1997 230.472 26.0377 229.812 25.7137 229.404C25.3897 228.984 24.8617 228.774 24.1297 228.774C23.3137 228.774 22.6657 229.05 22.1857 229.602C21.7177 230.154 21.4837 230.898 21.4837 231.834V237H20.3857V231.384C20.3857 230.472 20.2237 229.812 19.8997 229.404C19.5757 228.984 19.0537 228.774 18.3337 228.774C17.5177 228.774 16.8697 229.05 16.3897 229.602C15.9217 230.154 15.6877 230.898 15.6877 231.834V237H14.5897ZM34.1042 237.144C32.7362 237.144 31.6502 236.736 30.8462 235.92C30.0542 235.104 29.6582 233.97 29.6582 232.518C29.6582 231.558 29.8322 230.73 30.1802 230.034C30.5402 229.338 31.0382 228.798 31.6742 228.414C32.3102 228.018 33.0482 227.82 33.8882 227.82C34.6922 227.82 35.3702 227.994 35.9222 228.342C36.4742 228.678 36.9002 229.164 37.2002 229.8C37.5002 230.424 37.6502 231.168 37.6502 232.032V232.536H30.4502V231.744H36.9662L36.6602 231.978C36.6602 230.958 36.4262 230.16 35.9582 229.584C35.4902 228.996 34.7942 228.702 33.8702 228.702C32.8862 228.702 32.1182 229.044 31.5662 229.728C31.0142 230.4 30.7382 231.294 30.7382 232.41V232.536C30.7382 233.736 31.0322 234.648 31.6202 235.272C32.2202 235.896 33.0542 236.208 34.1222 236.208C34.6742 236.208 35.1902 236.124 35.6702 235.956C36.1502 235.788 36.6122 235.5 37.0562 235.092L37.5062 235.902C37.1222 236.298 36.6242 236.604 36.0122 236.82C35.4002 237.036 34.7642 237.144 34.1042 237.144ZM39.9897 237V230.088C39.9897 229.74 39.9777 229.392 39.9537 229.044C39.9417 228.684 39.9117 228.33 39.8637 227.982H40.9437L41.0877 230.052L40.8717 230.07C40.9917 229.566 41.2077 229.152 41.5197 228.828C41.8317 228.492 42.1917 228.24 42.5997 228.072C43.0077 227.904 43.4277 227.82 43.8597 227.82C44.0157 227.82 44.1597 227.832 44.2917 227.856C44.4357 227.868 44.5677 227.892 44.6877 227.928L44.6517 228.918C44.5077 228.87 44.3637 228.84 44.2197 228.828C44.0757 228.816 43.9197 228.81 43.7517 228.81C43.2117 228.81 42.7377 228.942 42.3297 229.206C41.9337 229.47 41.6277 229.806 41.4117 230.214C41.1957 230.622 41.0877 231.036 41.0877 231.456V237H39.9897ZM46.2831 237V227.982H47.3811V237H46.2831ZM46.1031 225.768V224.4H47.5791V225.768H46.1031ZM54.0148 237.144C53.1628 237.144 52.4188 236.958 51.7828 236.586C51.1468 236.202 50.6548 235.656 50.3068 234.948C49.9708 234.24 49.8028 233.4 49.8028 232.428C49.8028 231.456 49.9768 230.628 50.3248 229.944C50.6728 229.248 51.1588 228.72 51.7828 228.36C52.4188 228 53.1628 227.82 54.0148 227.82C54.5908 227.82 55.1428 227.928 55.6708 228.144C56.2108 228.36 56.6548 228.66 57.0028 229.044L56.5528 229.854C56.1808 229.482 55.7788 229.212 55.3468 229.044C54.9148 228.864 54.4828 228.774 54.0508 228.774C53.0668 228.774 52.2988 229.086 51.7468 229.71C51.1948 230.334 50.9188 231.246 50.9188 232.446C50.9188 233.646 51.1948 234.576 51.7468 235.236C52.2988 235.884 53.0668 236.208 54.0508 236.208C54.4588 236.208 54.8788 236.124 55.3108 235.956C55.7548 235.788 56.1688 235.512 56.5528 235.128L57.0028 235.938C56.6428 236.322 56.1868 236.622 55.6348 236.838C55.0948 237.042 54.5548 237.144 54.0148 237.144ZM62.5527 237.144C61.7367 237.144 61.0287 236.958 60.4287 236.586C59.8287 236.214 59.3667 235.68 59.0427 234.984C58.7187 234.288 58.5567 233.454 58.5567 232.482C58.5567 231.51 58.7187 230.682 59.0427 229.998C59.3787 229.302 59.8467 228.768 60.4467 228.396C61.0467 228.012 61.7487 227.82 62.5527 227.82C63.3807 227.82 64.0947 228.036 64.6947 228.468C65.3067 228.9 65.7087 229.488 65.9007 230.232H65.6847L65.8647 227.982H66.9267C66.8907 228.33 66.8547 228.672 66.8187 229.008C66.7947 229.344 66.7827 229.674 66.7827 229.998V237H65.6847V234.75H65.8827C65.6907 235.494 65.2887 236.082 64.6767 236.514C64.0767 236.934 63.3687 237.144 62.5527 237.144ZM62.6967 236.208C63.6207 236.208 64.3527 235.89 64.8927 235.254C65.4327 234.618 65.7027 233.694 65.7027 232.482C65.7027 231.27 65.4327 230.346 64.8927 229.71C64.3527 229.074 63.6207 228.756 62.6967 228.756C61.7727 228.756 61.0347 229.074 60.4827 229.71C59.9427 230.346 59.6727 231.27 59.6727 232.482C59.6727 233.694 59.9427 234.618 60.4827 235.254C61.0347 235.89 61.7727 236.208 62.6967 236.208Z" fill="#848484"/>
<path d="M1.482 37V23.605H6.346C7.87867 23.605 9.17067 23.871 10.222 24.403C11.286 24.9223 12.0903 25.6823 12.635 26.683C13.1797 27.671 13.452 28.8743 13.452 30.293C13.452 31.699 13.1797 32.9023 12.635 33.903C12.0903 34.9037 11.286 35.67 10.222 36.202C9.17067 36.734 7.87867 37 6.346 37H1.482ZM3.933 34.967H6.194C7.81533 34.967 9.01867 34.5807 9.804 33.808C10.5893 33.0353 10.982 31.8637 10.982 30.293C10.982 28.7097 10.5893 27.538 9.804 26.778C9.01867 26.0053 7.81533 25.619 6.194 25.619H3.933V34.967ZM20.4007 37.19C18.792 37.19 17.5317 36.7467 16.6197 35.86C15.7077 34.9733 15.2517 33.7573 15.2517 32.212C15.2517 31.2113 15.448 30.3373 15.8407 29.59C16.2333 28.8427 16.778 28.26 17.4747 27.842C18.184 27.424 19.0073 27.215 19.9447 27.215C20.8693 27.215 21.642 27.4113 22.2627 27.804C22.8833 28.1967 23.352 28.7477 23.6687 29.457C23.998 30.1663 24.1627 30.996 24.1627 31.946V32.573H17.1707V31.319H22.4717L22.1487 31.585C22.1487 30.6983 21.9587 30.0207 21.5787 29.552C21.2113 29.0833 20.673 28.849 19.9637 28.849C19.1783 28.849 18.5703 29.1277 18.1397 29.685C17.7217 30.2423 17.5127 31.0213 17.5127 32.022V32.269C17.5127 33.3077 17.766 34.0867 18.2727 34.606C18.792 35.1127 19.5203 35.366 20.4577 35.366C21.0023 35.366 21.509 35.2963 21.9777 35.157C22.459 35.005 22.915 34.7643 23.3457 34.435L24.0487 36.031C23.5927 36.3983 23.048 36.6833 22.4147 36.886C21.7813 37.0887 21.11 37.19 20.4007 37.19ZM29.5938 37.19C28.7705 37.19 28.0105 37.095 27.3138 36.905C26.6298 36.7023 26.0535 36.4237 25.5848 36.069L26.2498 34.473C26.7312 34.8023 27.2632 35.0557 27.8458 35.233C28.4285 35.4103 29.0175 35.499 29.6128 35.499C30.2462 35.499 30.7148 35.3913 31.0188 35.176C31.3355 34.9607 31.4938 34.6693 31.4938 34.302C31.4938 34.0107 31.3925 33.7827 31.1898 33.618C30.9998 33.4407 30.6895 33.3077 30.2588 33.219L28.3588 32.858C27.5482 32.6807 26.9275 32.3767 26.4968 31.946C26.0788 31.5153 25.8698 30.9517 25.8698 30.255C25.8698 29.6597 26.0282 29.134 26.3448 28.678C26.6742 28.222 27.1365 27.8673 27.7318 27.614C28.3398 27.348 29.0492 27.215 29.8598 27.215C30.5692 27.215 31.2342 27.31 31.8548 27.5C32.4882 27.69 33.0202 27.975 33.4508 28.355L32.7668 29.894C32.3742 29.5773 31.9245 29.3303 31.4178 29.153C30.9112 28.9757 30.4172 28.887 29.9358 28.887C29.2772 28.887 28.7958 29.0073 28.4918 29.248C28.1878 29.476 28.0358 29.7737 28.0358 30.141C28.0358 30.4197 28.1245 30.654 28.3018 30.844C28.4918 31.0213 28.7832 31.1543 29.1758 31.243L31.0758 31.604C31.9245 31.7687 32.5642 32.06 32.9948 32.478C33.4382 32.8833 33.6598 33.4407 33.6598 34.15C33.6598 34.7833 33.4888 35.328 33.1468 35.784C32.8048 36.24 32.3298 36.5883 31.7218 36.829C31.1138 37.0697 30.4045 37.19 29.5938 37.19ZM39.7036 37.19C38.5636 37.19 37.7023 36.8923 37.1196 36.297C36.537 35.7017 36.2456 34.8087 36.2456 33.618V29.191H34.4026V27.405H36.2456V24.954L38.6206 24.346V27.405H41.1856V29.191H38.6206V33.466C38.6206 34.1247 38.7473 34.587 39.0006 34.853C39.254 35.119 39.6023 35.252 40.0456 35.252C40.2863 35.252 40.489 35.233 40.6536 35.195C40.831 35.157 41.002 35.1063 41.1666 35.043V36.924C40.9513 37.0127 40.7106 37.076 40.4446 37.114C40.1913 37.1647 39.9443 37.19 39.7036 37.19ZM42.7988 37V27.405H45.1738V37H42.7988ZM42.6658 25.6V23.282H45.3068V25.6H42.6658ZM47.7529 37V29.799C47.7529 29.4063 47.7403 29.0073 47.7149 28.602C47.6896 28.1967 47.6516 27.7977 47.6009 27.405H49.8999L50.0899 29.305H49.8619C50.1659 28.6337 50.6156 28.1207 51.2109 27.766C51.8063 27.3987 52.4966 27.215 53.2819 27.215C54.4093 27.215 55.2579 27.5317 55.8279 28.165C56.3979 28.7983 56.6829 29.7863 56.6829 31.129V37H54.3079V31.243C54.3079 30.4703 54.1559 29.9193 53.8519 29.59C53.5606 29.248 53.1173 29.077 52.5219 29.077C51.7873 29.077 51.2046 29.305 50.7739 29.761C50.3433 30.217 50.1279 30.825 50.1279 31.585V37H47.7529ZM62.9062 37.19C62.0702 37.19 61.3355 36.9937 60.7022 36.601C60.0688 36.1957 59.5748 35.6193 59.2202 34.872C58.8655 34.1247 58.6882 33.2317 58.6882 32.193C58.6882 31.1543 58.8655 30.2677 59.2202 29.533C59.5748 28.7857 60.0688 28.2157 60.7022 27.823C61.3355 27.4177 62.0702 27.215 62.9062 27.215C63.7168 27.215 64.4262 27.4177 65.0342 27.823C65.6548 28.2157 66.0665 28.7477 66.2692 29.419H66.0602L66.2692 27.405H68.5492C68.5112 27.7977 68.4732 28.1967 68.4352 28.602C68.4098 29.0073 68.3972 29.4063 68.3972 29.799V37H66.0412L66.0222 35.024H66.2502C66.0475 35.6827 65.6358 36.2083 65.0152 36.601C64.3945 36.9937 63.6915 37.19 62.9062 37.19ZM63.5712 35.366C64.3185 35.366 64.9202 35.1063 65.3762 34.587C65.8322 34.055 66.0602 33.257 66.0602 32.193C66.0602 31.129 65.8322 30.3373 65.3762 29.818C64.9202 29.2987 64.3185 29.039 63.5712 29.039C62.8238 29.039 62.2222 29.2987 61.7662 29.818C61.3102 30.3373 61.0822 31.129 61.0822 32.193C61.0822 33.257 61.3038 34.055 61.7472 34.587C62.2032 35.1063 62.8112 35.366 63.5712 35.366ZM75.0874 37.19C73.9474 37.19 73.0861 36.8923 72.5034 36.297C71.9207 35.7017 71.6294 34.8087 71.6294 33.618V29.191H69.7864V27.405H71.6294V24.954L74.0044 24.346V27.405H76.5694V29.191H74.0044V33.466C74.0044 34.1247 74.1311 34.587 74.3844 34.853C74.6377 35.119 74.9861 35.252 75.4294 35.252C75.6701 35.252 75.8727 35.233 76.0374 35.195C76.2147 35.157 76.3857 35.1063 76.5504 35.043V36.924C76.3351 37.0127 76.0944 37.076 75.8284 37.114C75.5751 37.1647 75.3281 37.19 75.0874 37.19ZM78.1826 37V27.405H80.5576V37H78.1826ZM78.0496 25.6V23.282H80.6906V25.6H78.0496ZM87.4687 37.19C86.4807 37.19 85.6257 36.9873 84.9037 36.582C84.1817 36.1767 83.6181 35.6003 83.2127 34.853C82.8201 34.1057 82.6237 33.219 82.6237 32.193C82.6237 31.167 82.8201 30.2867 83.2127 29.552C83.6181 28.8047 84.1817 28.2283 84.9037 27.823C85.6257 27.4177 86.4807 27.215 87.4687 27.215C88.4567 27.215 89.3117 27.4177 90.0337 27.823C90.7684 28.2283 91.3321 28.8047 91.7247 29.552C92.1301 30.2867 92.3327 31.167 92.3327 32.193C92.3327 33.219 92.1301 34.1057 91.7247 34.853C91.3321 35.6003 90.7684 36.1767 90.0337 36.582C89.3117 36.9873 88.4567 37.19 87.4687 37.19ZM87.4687 35.366C88.2161 35.366 88.8114 35.1063 89.2547 34.587C89.6981 34.055 89.9197 33.257 89.9197 32.193C89.9197 31.129 89.6981 30.3373 89.2547 29.818C88.8114 29.2987 88.2161 29.039 87.4687 29.039C86.7214 29.039 86.1261 29.2987 85.6827 29.818C85.2394 30.3373 85.0177 31.129 85.0177 32.193C85.0177 33.257 85.2394 34.055 85.6827 34.587C86.1261 35.1063 86.7214 35.366 87.4687 35.366ZM94.3809 37V29.799C94.3809 29.4063 94.3682 29.0073 94.3429 28.602C94.3175 28.1967 94.2795 27.7977 94.2289 27.405H96.5279L96.7179 29.305H96.4899C96.7939 28.6337 97.2435 28.1207 97.8389 27.766C98.4342 27.3987 99.1245 27.215 99.9099 27.215C101.037 27.215 101.886 27.5317 102.456 28.165C103.026 28.7983 103.311 29.7863 103.311 31.129V37H100.936V31.243C100.936 30.4703 100.784 29.9193 100.48 29.59C100.189 29.248 99.7452 29.077 99.1499 29.077C98.4152 29.077 97.8325 29.305 97.4019 29.761C96.9712 30.217 96.7559 30.825 96.7559 31.585V37H94.3809ZM109.249 37.19C108.426 37.19 107.666 37.095 106.969 36.905C106.285 36.7023 105.709 36.4237 105.24 36.069L105.905 34.473C106.386 34.8023 106.918 35.0557 107.501 35.233C108.084 35.4103 108.673 35.499 109.268 35.499C109.901 35.499 110.37 35.3913 110.674 35.176C110.991 34.9607 111.149 34.6693 111.149 34.302C111.149 34.0107 111.048 33.7827 110.845 33.618C110.655 33.4407 110.345 33.3077 109.914 33.219L108.014 32.858C107.203 32.6807 106.583 32.3767 106.152 31.946C105.734 31.5153 105.525 30.9517 105.525 30.255C105.525 29.6597 105.683 29.134 106 28.678C106.329 28.222 106.792 27.8673 107.387 27.614C107.995 27.348 108.704 27.215 109.515 27.215C110.224 27.215 110.889 27.31 111.51 27.5C112.143 27.69 112.675 27.975 113.106 28.355L112.422 29.894C112.029 29.5773 111.58 29.3303 111.073 29.153C110.566 28.9757 110.072 28.887 109.591 28.887C108.932 28.887 108.451 29.0073 108.147 29.248C107.843 29.476 107.691 29.7737 107.691 30.141C107.691 30.4197 107.78 30.654 107.957 30.844C108.147 31.0213 108.438 31.1543 108.831 31.243L110.731 31.604C111.58 31.7687 112.219 32.06 112.65 32.478C113.093 32.8833 113.315 33.4407 113.315 34.15C113.315 34.7833 113.144 35.328 112.802 35.784C112.46 36.24 111.985 36.5883 111.377 36.829C110.769 37.0697 110.06 37.19 109.249 37.19Z" fill="black"/>
</svg>
