<svg width="470" height="237" viewBox="0 0 470 237" fill="none" xmlns="http://www.w3.org/2000/svg">
<path d="M32.321 129V118.091H33.642V127.828H38.7131V129H32.321ZM43.9119 129.17C43.1733 129.17 42.5252 128.995 41.9677 128.643C41.4137 128.292 40.9805 127.8 40.668 127.168C40.359 126.536 40.2045 125.797 40.2045 124.952C40.2045 124.099 40.359 123.355 40.668 122.72C40.9805 122.084 41.4137 121.591 41.9677 121.239C42.5252 120.887 43.1733 120.712 43.9119 120.712C44.6506 120.712 45.2969 120.887 45.8509 121.239C46.4084 121.591 46.8416 122.084 47.1506 122.72C47.4631 123.355 47.6193 124.099 47.6193 124.952C47.6193 125.797 47.4631 126.536 47.1506 127.168C46.8416 127.8 46.4084 128.292 45.8509 128.643C45.2969 128.995 44.6506 129.17 43.9119 129.17ZM43.9119 128.041C44.473 128.041 44.9347 127.897 45.2969 127.61C45.6591 127.322 45.9272 126.944 46.1012 126.475C46.2752 126.006 46.3622 125.499 46.3622 124.952C46.3622 124.405 46.2752 123.895 46.1012 123.423C45.9272 122.951 45.6591 122.569 45.2969 122.278C44.9347 121.987 44.473 121.841 43.9119 121.841C43.3509 121.841 42.8892 121.987 42.527 122.278C42.1648 122.569 41.8967 122.951 41.7227 123.423C41.5487 123.895 41.4616 124.405 41.4616 124.952C41.4616 125.499 41.5487 126.006 41.7227 126.475C41.8967 126.944 42.1648 127.322 42.527 127.61C42.8892 127.897 43.3509 128.041 43.9119 128.041ZM52.8621 129.17C52.0951 129.17 51.4346 128.989 50.8806 128.627C50.3266 128.265 49.9005 127.766 49.6022 127.13C49.3039 126.495 49.1547 125.768 49.1547 124.952C49.1547 124.121 49.3074 123.387 49.6128 122.752C49.9218 122.113 50.3515 121.614 50.9019 121.255C51.4559 120.893 52.1022 120.712 52.8408 120.712C53.4161 120.712 53.9346 120.818 54.3962 121.031C54.8579 121.244 55.2361 121.543 55.5308 121.926C55.8256 122.31 56.0084 122.757 56.0795 123.268H54.8224C54.7265 122.896 54.5134 122.565 54.1832 122.278C53.8564 121.987 53.4161 121.841 52.8621 121.841C52.3721 121.841 51.9424 121.969 51.5731 122.224C51.2073 122.477 50.9214 122.833 50.7155 123.295C50.5131 123.753 50.4118 124.291 50.4118 124.909C50.4118 125.541 50.5113 126.092 50.7101 126.56C50.9126 127.029 51.1966 127.393 51.5624 127.652C51.9317 127.912 52.365 128.041 52.8621 128.041C53.1888 128.041 53.4854 127.984 53.7517 127.871C54.018 127.757 54.2435 127.594 54.4282 127.381C54.6128 127.168 54.7442 126.912 54.8224 126.614H56.0795C56.0084 127.097 55.8327 127.532 55.5521 127.919C55.2751 128.302 54.9076 128.608 54.4495 128.835C53.9949 129.059 53.4658 129.17 52.8621 129.17ZM60.3248 129.192C59.8064 129.192 59.3358 129.094 58.9133 128.899C58.4907 128.7 58.1551 128.414 57.9065 128.041C57.6579 127.665 57.5336 127.21 57.5336 126.678C57.5336 126.209 57.626 125.829 57.8106 125.538C57.9953 125.243 58.2421 125.012 58.551 124.845C58.86 124.678 59.2009 124.554 59.5738 124.472C59.9502 124.387 60.3284 124.32 60.7084 124.27C61.2055 124.206 61.6086 124.158 61.9175 124.126C62.23 124.091 62.4573 124.032 62.5993 123.95C62.7449 123.869 62.8177 123.727 62.8177 123.524V123.482C62.8177 122.956 62.6739 122.548 62.3863 122.256C62.1022 121.965 61.6707 121.82 61.0919 121.82C60.4917 121.82 60.0212 121.951 59.6803 122.214C59.3394 122.477 59.0997 122.757 58.9612 123.055L57.768 122.629C57.9811 122.132 58.2652 121.745 58.6203 121.468C58.979 121.187 59.3696 120.992 59.7922 120.882C60.2183 120.768 60.6373 120.712 61.0493 120.712C61.3121 120.712 61.6139 120.744 61.9548 120.808C62.2993 120.868 62.6313 120.994 62.9509 121.186C63.2741 121.377 63.5422 121.667 63.7552 122.054C63.9683 122.441 64.0748 122.96 64.0748 123.609V129H62.8177V127.892H62.7538C62.6686 128.07 62.5265 128.26 62.3277 128.462C62.1288 128.664 61.8643 128.837 61.534 128.979C61.2037 129.121 60.8007 129.192 60.3248 129.192ZM60.5166 128.062C61.0138 128.062 61.4328 127.965 61.7737 127.77C62.1182 127.574 62.3774 127.322 62.5514 127.013C62.729 126.704 62.8177 126.379 62.8177 126.038V124.888C62.7645 124.952 62.6473 125.01 62.4662 125.064C62.2886 125.113 62.0827 125.158 61.8483 125.197C61.6175 125.232 61.392 125.264 61.1718 125.293C60.9552 125.317 60.7794 125.339 60.6444 125.357C60.3177 125.399 60.0123 125.468 59.7282 125.564C59.4477 125.657 59.2204 125.797 59.0464 125.985C58.876 126.17 58.7907 126.422 58.7907 126.741C58.7907 127.178 58.9523 127.509 59.2755 127.732C59.6022 127.952 60.0159 128.062 60.5166 128.062ZM69.9276 120.818V121.884H65.6875V120.818H69.9276ZM66.9233 118.858H68.1804V126.656C68.1804 127.011 68.2319 127.278 68.3349 127.455C68.4414 127.629 68.5763 127.746 68.7397 127.807C68.9066 127.864 69.0824 127.892 69.267 127.892C69.4055 127.892 69.5192 127.885 69.608 127.871C69.6967 127.853 69.7678 127.839 69.821 127.828L70.0767 128.957C69.9915 128.989 69.8725 129.021 69.7198 129.053C69.5671 129.089 69.3736 129.107 69.1392 129.107C68.7841 129.107 68.4361 129.03 68.0952 128.877C67.7578 128.725 67.4773 128.492 67.2536 128.18C67.0334 127.867 66.9233 127.473 66.9233 126.997V118.858ZM71.8185 129V120.818H73.0756V129H71.8185ZM72.4577 119.455C72.2127 119.455 72.0014 119.371 71.8239 119.204C71.6499 119.037 71.5629 118.837 71.5629 118.602C71.5629 118.368 71.6499 118.167 71.8239 118C72.0014 117.833 72.2127 117.75 72.4577 117.75C72.7028 117.75 72.9123 117.833 73.0863 118C73.2638 118.167 73.3526 118.368 73.3526 118.602C73.3526 118.837 73.2638 119.037 73.0863 119.204C72.9123 119.371 72.7028 119.455 72.4577 119.455ZM78.702 129.17C77.9633 129.17 77.3153 128.995 76.7577 128.643C76.2037 128.292 75.7705 127.8 75.458 127.168C75.1491 126.536 74.9946 125.797 74.9946 124.952C74.9946 124.099 75.1491 123.355 75.458 122.72C75.7705 122.084 76.2037 121.591 76.7577 121.239C77.3153 120.887 77.9633 120.712 78.702 120.712C79.4406 120.712 80.0869 120.887 80.6409 121.239C81.1984 121.591 81.6317 122.084 81.9406 122.72C82.2531 123.355 82.4094 124.099 82.4094 124.952C82.4094 125.797 82.2531 126.536 81.9406 127.168C81.6317 127.8 81.1984 128.292 80.6409 128.643C80.0869 128.995 79.4406 129.17 78.702 129.17ZM78.702 128.041C79.2631 128.041 79.7247 127.897 80.0869 127.61C80.4491 127.322 80.7172 126.944 80.8912 126.475C81.0653 126.006 81.1523 125.499 81.1523 124.952C81.1523 124.405 81.0653 123.895 80.8912 123.423C80.7172 122.951 80.4491 122.569 80.0869 122.278C79.7247 121.987 79.2631 121.841 78.702 121.841C78.1409 121.841 77.6792 121.987 77.317 122.278C76.9548 122.569 76.6867 122.951 76.5127 123.423C76.3387 123.895 76.2517 124.405 76.2517 124.952C76.2517 125.499 76.3387 126.006 76.5127 126.475C76.6867 126.944 76.9548 127.322 77.317 127.61C77.6792 127.897 78.1409 128.041 78.702 128.041ZM85.5854 124.078V129H84.3283V120.818H85.5428V122.097H85.6493C85.8411 121.681 86.1323 121.347 86.5229 121.095C86.9135 120.839 87.4178 120.712 88.0357 120.712C88.5897 120.712 89.0744 120.825 89.4899 121.053C89.9054 121.276 90.2285 121.617 90.4593 122.075C90.6902 122.53 90.8056 123.105 90.8056 123.801V129H89.5485V123.886C89.5485 123.244 89.3816 122.743 89.0478 122.384C88.714 122.022 88.2559 121.841 87.6735 121.841C87.2722 121.841 86.9135 121.928 86.5975 122.102C86.285 122.276 86.0382 122.53 85.8571 122.864C85.676 123.197 85.5854 123.602 85.5854 124.078Z" fill="#4A4C53"/>
<path d="M1.57812 22V6H4.47656V12.7734H11.8906V6H14.7969V22H11.8906V15.2031H4.47656V22H1.57812ZM23.0586 22.2344C21.8867 22.2344 20.8711 21.9766 20.0117 21.4609C19.1523 20.9453 18.4857 20.224 18.0117 19.2969C17.543 18.3698 17.3086 17.2865 17.3086 16.0469C17.3086 14.8073 17.543 13.7214 18.0117 12.7891C18.4857 11.8568 19.1523 11.1328 20.0117 10.6172C20.8711 10.1016 21.8867 9.84375 23.0586 9.84375C24.2305 9.84375 25.2461 10.1016 26.1055 10.6172C26.9648 11.1328 27.6289 11.8568 28.0977 12.7891C28.5716 13.7214 28.8086 14.8073 28.8086 16.0469C28.8086 17.2865 28.5716 18.3698 28.0977 19.2969C27.6289 20.224 26.9648 20.9453 26.1055 21.4609C25.2461 21.9766 24.2305 22.2344 23.0586 22.2344ZM23.0742 19.9687C23.7096 19.9687 24.2409 19.7943 24.668 19.4453C25.0951 19.0911 25.4128 18.6172 25.6211 18.0234C25.8346 17.4297 25.9414 16.7682 25.9414 16.0391C25.9414 15.3047 25.8346 14.6406 25.6211 14.0469C25.4128 13.4479 25.0951 12.9714 24.668 12.6172C24.2409 12.263 23.7096 12.0859 23.0742 12.0859C22.4232 12.0859 21.8815 12.263 21.4492 12.6172C21.0221 12.9714 20.7018 13.4479 20.4883 14.0469C20.2799 14.6406 20.1758 15.3047 20.1758 16.0391C20.1758 16.7682 20.2799 17.4297 20.4883 18.0234C20.7018 18.6172 21.0221 19.0911 21.4492 19.4453C21.8815 19.7943 22.4232 19.9687 23.0742 19.9687ZM34.0371 6V22H31.209V6H34.0371ZM36.9453 22V10H39.7734V22H36.9453ZM38.3672 8.29688C37.9193 8.29688 37.5339 8.14844 37.2109 7.85156C36.888 7.54948 36.7266 7.1875 36.7266 6.76562C36.7266 6.33854 36.888 5.97656 37.2109 5.67969C37.5339 5.3776 37.9193 5.22656 38.3672 5.22656C38.8203 5.22656 39.2057 5.3776 39.5234 5.67969C39.8464 5.97656 40.0078 6.33854 40.0078 6.76562C40.0078 7.1875 39.8464 7.54948 39.5234 7.85156C39.2057 8.14844 38.8203 8.29688 38.3672 8.29688ZM47.1348 22.2109C46.1921 22.2109 45.3483 21.9688 44.6035 21.4844C43.8587 21 43.2702 20.2969 42.8379 19.375C42.4056 18.4531 42.1895 17.3333 42.1895 16.0156C42.1895 14.6823 42.4082 13.5573 42.8457 12.6406C43.2884 11.7187 43.8848 11.0234 44.6348 10.5547C45.3848 10.0807 46.2207 9.84375 47.1426 9.84375C47.8457 9.84375 48.4238 9.96354 48.877 10.2031C49.3301 10.4375 49.6895 10.7214 49.9551 11.0547C50.2207 11.3828 50.4264 11.6927 50.5723 11.9844H50.6895V6H53.5254V22H50.7441V20.1094H50.5723C50.4264 20.401 50.2155 20.7109 49.9395 21.0391C49.6634 21.362 49.2988 21.638 48.8457 21.8672C48.3926 22.0964 47.8223 22.2109 47.1348 22.2109ZM47.9238 19.8906C48.5228 19.8906 49.0332 19.7292 49.4551 19.4062C49.877 19.0781 50.1973 18.6224 50.416 18.0391C50.6348 17.4557 50.7441 16.776 50.7441 16C50.7441 15.224 50.6348 14.5495 50.416 13.9766C50.2025 13.4036 49.8848 12.9583 49.4629 12.6406C49.0462 12.3229 48.5332 12.1641 47.9238 12.1641C47.2936 12.1641 46.7676 12.3281 46.3457 12.6562C45.9238 12.9844 45.6061 13.4375 45.3926 14.0156C45.179 14.5937 45.0723 15.2552 45.0723 16C45.0723 16.75 45.179 17.4193 45.3926 18.0078C45.6113 18.5911 45.9316 19.0521 46.3535 19.3906C46.7806 19.724 47.304 19.8906 47.9238 19.8906ZM59.9922 22.2422C59.2318 22.2422 58.5469 22.1068 57.9375 21.8359C57.3333 21.5599 56.8542 21.1536 56.5 20.6172C56.151 20.0807 55.9766 19.4193 55.9766 18.6328C55.9766 17.9557 56.1016 17.3958 56.3516 16.9531C56.6016 16.5104 56.9427 16.1562 57.375 15.8906C57.8073 15.625 58.2943 15.4245 58.8359 15.2891C59.3828 15.1484 59.9479 15.0469 60.5313 14.9844C61.2344 14.9115 61.8047 14.8464 62.2422 14.7891C62.6797 14.7266 62.9974 14.6328 63.1953 14.5078C63.3984 14.3776 63.5 14.1771 63.5 13.9062V13.8594C63.5 13.2708 63.3255 12.8151 62.9766 12.4922C62.6276 12.1693 62.125 12.0078 61.4688 12.0078C60.776 12.0078 60.2266 12.1589 59.8203 12.4609C59.4193 12.763 59.1484 13.1198 59.0078 13.5312L56.3672 13.1562C56.5755 12.4271 56.9193 11.8177 57.3984 11.3281C57.8776 10.8333 58.4635 10.4635 59.1562 10.2187C59.849 9.96875 60.6146 9.84375 61.4531 9.84375C62.0313 9.84375 62.6068 9.91146 63.1797 10.0469C63.7526 10.1823 64.276 10.4062 64.75 10.7187C65.224 11.026 65.6042 11.4453 65.8906 11.9766C66.1823 12.5078 66.3281 13.1719 66.3281 13.9687V22H63.6094V20.3516H63.5156C63.3438 20.6849 63.1016 20.9974 62.7891 21.2891C62.4818 21.5755 62.0938 21.8073 61.625 21.9844C61.1615 22.1563 60.6172 22.2422 59.9922 22.2422ZM60.7266 20.1641C61.2943 20.1641 61.7865 20.0521 62.2031 19.8281C62.6198 19.599 62.9401 19.2969 63.1641 18.9219C63.3932 18.5469 63.5078 18.138 63.5078 17.6953V16.2812C63.4193 16.3542 63.2682 16.4219 63.0547 16.4844C62.8464 16.5469 62.612 16.6016 62.3516 16.6484C62.0911 16.6953 61.8333 16.737 61.5781 16.7734C61.3229 16.8099 61.1016 16.8411 60.9141 16.8672C60.4922 16.9245 60.1146 17.0182 59.7813 17.1484C59.4479 17.2786 59.1849 17.4609 58.9922 17.6953C58.7995 17.9245 58.7031 18.2214 58.7031 18.5859C58.7031 19.1068 58.8932 19.5 59.2734 19.7656C59.6536 20.0312 60.138 20.1641 60.7266 20.1641ZM70.5 26.5C70.1146 26.5 69.7578 26.4688 69.4297 26.4063C69.1068 26.349 68.849 26.2813 68.6563 26.2031L69.3125 24C69.724 24.1198 70.0911 24.1771 70.4141 24.1719C70.737 24.1667 71.0208 24.0651 71.2656 23.8672C71.5156 23.6745 71.7266 23.3516 71.8984 22.8984L72.1406 22.25L67.7891 10H70.7891L73.5547 19.0625H73.6797L76.4531 10H79.4609L74.6562 23.4531C74.4323 24.0885 74.1354 24.6328 73.7656 25.0859C73.3958 25.5443 72.9427 25.8932 72.4063 26.1328C71.875 26.3776 71.2396 26.5 70.5 26.5ZM92.9531 10V12.1875H85.8594V10H92.9531ZM87.6328 22V8.86719C87.6328 8.05989 87.7995 7.38802 88.1328 6.85156C88.4714 6.3151 88.9245 5.91406 89.4922 5.64844C90.0599 5.38281 90.6901 5.25 91.3828 5.25C91.8724 5.25 92.3073 5.28906 92.6875 5.36719C93.0677 5.44531 93.349 5.51562 93.5313 5.57812L92.9688 7.76562C92.849 7.72917 92.6979 7.69271 92.5156 7.65625C92.3333 7.61458 92.1302 7.59375 91.9062 7.59375C91.3802 7.59375 91.0078 7.72135 90.7891 7.97656C90.5755 8.22656 90.4688 8.58594 90.4688 9.05469V22H87.6328ZM95.168 22V10H97.9961V22H95.168ZM96.5898 8.29688C96.1419 8.29688 95.7565 8.14844 95.4336 7.85156C95.1107 7.54948 94.9492 7.1875 94.9492 6.76562C94.9492 6.33854 95.1107 5.97656 95.4336 5.67969C95.7565 5.3776 96.1419 5.22656 96.5898 5.22656C97.043 5.22656 97.4284 5.3776 97.7461 5.67969C98.069 5.97656 98.2305 6.33854 98.2305 6.76562C98.2305 7.1875 98.069 7.54948 97.7461 7.85156C97.4284 8.14844 97.043 8.29688 96.5898 8.29688ZM103.732 14.9687V22H100.904V10H103.607V12.0391H103.748C104.024 11.3672 104.464 10.8333 105.068 10.4375C105.678 10.0417 106.43 9.84375 107.326 9.84375C108.154 9.84375 108.876 10.0208 109.49 10.375C110.11 10.7292 110.589 11.2422 110.928 11.9141C111.271 12.5859 111.441 13.401 111.436 14.3594V22H108.607V14.7969C108.607 13.9948 108.399 13.3672 107.982 12.9141C107.571 12.4609 107.001 12.2344 106.271 12.2344C105.777 12.2344 105.337 12.3437 104.951 12.5625C104.571 12.776 104.271 13.0859 104.053 13.4922C103.839 13.8984 103.732 14.3906 103.732 14.9687ZM118.764 22.2109C117.821 22.2109 116.977 21.9688 116.232 21.4844C115.488 21 114.899 20.2969 114.467 19.375C114.035 18.4531 113.818 17.3333 113.818 16.0156C113.818 14.6823 114.037 13.5573 114.475 12.6406C114.917 11.7187 115.514 11.0234 116.264 10.5547C117.014 10.0807 117.85 9.84375 118.771 9.84375C119.475 9.84375 120.053 9.96354 120.506 10.2031C120.959 10.4375 121.318 10.7214 121.584 11.0547C121.85 11.3828 122.055 11.6927 122.201 11.9844H122.318V6H125.154V22H122.373V20.1094H122.201C122.055 20.401 121.844 20.7109 121.568 21.0391C121.292 21.362 120.928 21.638 120.475 21.8672C120.021 22.0964 119.451 22.2109 118.764 22.2109ZM119.553 19.8906C120.152 19.8906 120.662 19.7292 121.084 19.4062C121.506 19.0781 121.826 18.6224 122.045 18.0391C122.264 17.4557 122.373 16.776 122.373 16C122.373 15.224 122.264 14.5495 122.045 13.9766C121.831 13.4036 121.514 12.9583 121.092 12.6406C120.675 12.3229 120.162 12.1641 119.553 12.1641C118.923 12.1641 118.396 12.3281 117.975 12.6562C117.553 12.9844 117.235 13.4375 117.021 14.0156C116.808 14.5937 116.701 15.2552 116.701 16C116.701 16.75 116.808 17.4193 117.021 18.0078C117.24 18.5911 117.561 19.0521 117.982 19.3906C118.41 19.724 118.933 19.8906 119.553 19.8906ZM133.48 22.2344C132.277 22.2344 131.238 21.9844 130.363 21.4844C129.493 20.9792 128.824 20.2656 128.355 19.3437C127.887 18.4167 127.652 17.3255 127.652 16.0703C127.652 14.8359 127.887 13.7526 128.355 12.8203C128.829 11.8828 129.491 11.1536 130.34 10.6328C131.189 10.1068 132.186 9.84375 133.332 9.84375C134.072 9.84375 134.77 9.96354 135.426 10.2031C136.087 10.4375 136.671 10.8021 137.176 11.2969C137.686 11.7917 138.087 12.4219 138.379 13.1875C138.671 13.9479 138.816 14.8542 138.816 15.9062V16.7734H128.98V14.8672H136.105C136.1 14.3255 135.983 13.8437 135.754 13.4219C135.525 12.9948 135.204 12.6589 134.793 12.4141C134.387 12.1693 133.913 12.0469 133.371 12.0469C132.793 12.0469 132.285 12.1875 131.848 12.4687C131.41 12.7448 131.069 13.1094 130.824 13.5625C130.585 14.0104 130.462 14.5026 130.457 15.0391V16.7031C130.457 17.401 130.585 18 130.84 18.5C131.095 18.9948 131.452 19.375 131.91 19.6406C132.368 19.901 132.905 20.0312 133.52 20.0312C133.931 20.0312 134.303 19.974 134.637 19.8594C134.97 19.7396 135.259 19.5651 135.504 19.3359C135.749 19.1068 135.934 18.8229 136.059 18.4844L138.699 18.7812C138.533 19.4792 138.215 20.0885 137.746 20.6094C137.283 21.125 136.689 21.526 135.965 21.8125C135.241 22.0937 134.413 22.2344 133.48 22.2344ZM141.209 22V10H143.951V12H144.076C144.295 11.3073 144.67 10.7734 145.201 10.3984C145.738 10.0182 146.35 9.82812 147.037 9.82812C147.193 9.82812 147.368 9.83594 147.561 9.85156C147.758 9.86198 147.923 9.88021 148.053 9.90625V12.5078C147.933 12.4661 147.743 12.4297 147.482 12.3984C147.227 12.362 146.98 12.3437 146.74 12.3437C146.225 12.3437 145.761 12.4557 145.35 12.6797C144.943 12.8984 144.623 13.2031 144.389 13.5937C144.154 13.9844 144.037 14.4349 144.037 14.9453V22H141.209Z" fill="#202336"/>
<rect y="48" width="32" height="2" rx="1" fill="#202336"/>
<rect x="0.4" y="98.4" width="219.2" height="51.2" rx="5.6" stroke="#AFB0B9" stroke-width="0.8"/>
<g clip-path="url(#clip0_1_890)">
<path d="M181.442 124.273L184.156 127.182C184.496 127.545 185.004 127.545 185.344 127.182L188.058 124.273C188.397 123.909 188.906 123.909 189.246 124.273C189.585 124.636 189.585 125.182 189.246 125.545L185.344 129.727C185.004 130.091 184.496 130.091 184.156 129.727L180.254 125.545C179.915 125.182 179.915 124.636 180.254 124.273C180.594 123.909 181.103 123.909 181.442 124.273Z" fill="#4A4C53"/>
</g>
<path d="M282.768 129H281.384L285.389 118.091H286.753L290.759 129H289.374L286.114 119.817H286.028L282.768 129ZM283.28 124.739H288.862V125.911H283.28V124.739ZM295.611 129.17C294.844 129.17 294.184 128.989 293.63 128.627C293.076 128.265 292.65 127.766 292.351 127.13C292.053 126.495 291.904 125.768 291.904 124.952C291.904 124.121 292.056 123.387 292.362 122.752C292.671 122.113 293.1 121.614 293.651 121.255C294.205 120.893 294.851 120.712 295.59 120.712C296.165 120.712 296.684 120.818 297.145 121.031C297.607 121.244 297.985 121.543 298.28 121.926C298.575 122.31 298.757 122.757 298.828 123.268H297.571C297.475 122.896 297.262 122.565 296.932 122.278C296.605 121.987 296.165 121.841 295.611 121.841C295.121 121.841 294.691 121.969 294.322 122.224C293.956 122.477 293.67 122.833 293.464 123.295C293.262 123.753 293.161 124.291 293.161 124.909C293.161 125.541 293.26 126.092 293.459 126.56C293.662 127.029 293.946 127.393 294.311 127.652C294.681 127.912 295.114 128.041 295.611 128.041C295.938 128.041 296.234 127.984 296.501 127.871C296.767 127.757 296.993 127.594 297.177 127.381C297.362 127.168 297.493 126.912 297.571 126.614H298.828C298.757 127.097 298.582 127.532 298.301 127.919C298.024 128.302 297.657 128.608 297.199 128.835C296.744 129.059 296.215 129.17 295.611 129.17ZM304.224 120.818V121.884H299.984V120.818H304.224ZM301.22 118.858H302.477V126.656C302.477 127.011 302.529 127.278 302.632 127.455C302.738 127.629 302.873 127.746 303.037 127.807C303.203 127.864 303.379 127.892 303.564 127.892C303.702 127.892 303.816 127.885 303.905 127.871C303.994 127.853 304.065 127.839 304.118 127.828L304.374 128.957C304.288 128.989 304.169 129.021 304.017 129.053C303.864 129.089 303.67 129.107 303.436 129.107C303.081 129.107 302.733 129.03 302.392 128.877C302.055 128.725 301.774 128.492 301.55 128.18C301.33 127.867 301.22 127.473 301.22 126.997V118.858ZM306.115 129V120.818H307.373V129H306.115ZM306.755 119.455C306.51 119.455 306.298 119.371 306.121 119.204C305.947 119.037 305.86 118.837 305.86 118.602C305.86 118.368 305.947 118.167 306.121 118C306.298 117.833 306.51 117.75 306.755 117.75C307 117.75 307.209 117.833 307.383 118C307.561 118.167 307.65 118.368 307.65 118.602C307.65 118.837 307.561 119.037 307.383 119.204C307.209 119.371 307 119.455 306.755 119.455ZM316.365 120.818L313.34 129H312.061L309.036 120.818H310.399L312.658 127.338H312.743L315.002 120.818H316.365ZM318.025 129V120.818H319.282V129H318.025ZM318.664 119.455C318.419 119.455 318.207 119.371 318.03 119.204C317.856 119.037 317.769 118.837 317.769 118.602C317.769 118.368 317.856 118.167 318.03 118C318.207 117.833 318.419 117.75 318.664 117.75C318.909 117.75 319.118 117.833 319.292 118C319.47 118.167 319.559 118.368 319.559 118.602C319.559 118.837 319.47 119.037 319.292 119.204C319.118 119.371 318.909 119.455 318.664 119.455ZM325.142 120.818V121.884H320.902V120.818H325.142ZM322.138 118.858H323.395V126.656C323.395 127.011 323.447 127.278 323.55 127.455C323.656 127.629 323.791 127.746 323.955 127.807C324.121 127.864 324.297 127.892 324.482 127.892C324.62 127.892 324.734 127.885 324.823 127.871C324.912 127.853 324.983 127.839 325.036 127.828L325.292 128.957C325.206 128.989 325.087 129.021 324.935 129.053C324.782 129.089 324.588 129.107 324.354 129.107C323.999 129.107 323.651 129.03 323.31 128.877C322.973 128.725 322.692 128.492 322.468 128.18C322.248 127.867 322.138 127.473 322.138 126.997V118.858ZM327.843 132.068C327.63 132.068 327.44 132.05 327.273 132.015C327.106 131.983 326.991 131.951 326.927 131.919L327.246 130.811C327.552 130.889 327.822 130.918 328.056 130.896C328.29 130.875 328.498 130.77 328.679 130.582C328.864 130.397 329.033 130.097 329.185 129.682L329.42 129.043L326.394 120.818H327.758L330.016 127.338H330.102L332.36 120.818H333.724L330.251 130.193C330.094 130.616 329.901 130.966 329.67 131.243C329.439 131.523 329.171 131.731 328.866 131.866C328.564 132.001 328.223 132.068 327.843 132.068Z" fill="#4A4C53"/>
<rect x="250.4" y="98.4" width="219.2" height="51.2" rx="5.6" stroke="#AFB0B9" stroke-width="0.8"/>
<path d="M39.7784 208.5C39.6612 208.141 39.5067 207.82 39.315 207.536C39.1268 207.248 38.9013 207.003 38.6385 206.801C38.3793 206.598 38.0845 206.444 37.7543 206.337C37.424 206.231 37.0618 206.178 36.6676 206.178C36.0213 206.178 35.4336 206.344 34.9045 206.678C34.3754 207.012 33.9545 207.504 33.642 208.154C33.3295 208.804 33.1733 209.601 33.1733 210.545C33.1733 211.49 33.3313 212.287 33.6474 212.937C33.9634 213.587 34.3913 214.079 34.9311 214.413C35.4709 214.746 36.0781 214.913 36.7528 214.913C37.3778 214.913 37.9283 214.78 38.4041 214.514C38.8835 214.244 39.2564 213.864 39.5227 213.374C39.7926 212.88 39.9276 212.3 39.9276 211.632L40.3324 211.717H37.0511V210.545H41.206V211.717C41.206 212.616 41.0142 213.397 40.6307 214.061C40.2507 214.725 39.7251 215.24 39.054 215.606C38.3864 215.968 37.6193 216.149 36.7528 216.149C35.7869 216.149 34.9382 215.922 34.2067 215.467C33.4787 215.013 32.9105 214.366 32.5021 213.528C32.0973 212.69 31.8949 211.696 31.8949 210.545C31.8949 209.683 32.0103 208.907 32.2411 208.218C32.4755 207.525 32.8058 206.936 33.2319 206.449C33.658 205.963 34.1623 205.59 34.7447 205.331C35.3271 205.071 35.968 204.942 36.6676 204.942C37.2429 204.942 37.7791 205.029 38.2763 205.203C38.777 205.373 39.2227 205.616 39.6133 205.933C40.0075 206.245 40.3359 206.62 40.5987 207.056C40.8615 207.49 41.0426 207.971 41.142 208.5H39.7784ZM43.298 216V207.818H44.5125V209.054H44.5977C44.7469 208.649 45.0168 208.321 45.4074 208.069C45.798 207.816 46.2384 207.69 46.7284 207.69C46.8208 207.69 46.9362 207.692 47.0747 207.696C47.2132 207.699 47.3179 207.705 47.3889 207.712V208.99C47.3463 208.979 47.2487 208.963 47.096 208.942C46.9468 208.917 46.7888 208.905 46.6219 208.905C46.2242 208.905 45.8691 208.988 45.5566 209.155C45.2476 209.319 45.0026 209.546 44.8215 209.837C44.6439 210.125 44.5551 210.453 44.5551 210.822V216H43.298ZM51.2868 216.192C50.7683 216.192 50.2978 216.094 49.8752 215.899C49.4526 215.7 49.117 215.414 48.8684 215.041C48.6199 214.665 48.4956 214.21 48.4956 213.678C48.4956 213.209 48.5879 212.829 48.7725 212.538C48.9572 212.243 49.204 212.012 49.513 211.845C49.8219 211.678 50.1628 211.554 50.5357 211.472C50.9121 211.387 51.2903 211.32 51.6703 211.27C52.1674 211.206 52.5705 211.158 52.8794 211.126C53.1919 211.091 53.4192 211.032 53.5613 210.95C53.7069 210.869 53.7797 210.727 53.7797 210.524V210.482C53.7797 209.956 53.6358 209.548 53.3482 209.256C53.0641 208.965 52.6326 208.82 52.0538 208.82C51.4537 208.82 50.9831 208.951 50.6422 209.214C50.3013 209.477 50.0616 209.757 49.9231 210.055L48.7299 209.629C48.943 209.132 49.2271 208.745 49.5822 208.468C49.9409 208.187 50.3315 207.992 50.7541 207.882C51.1802 207.768 51.5993 207.712 52.0112 207.712C52.274 207.712 52.5758 207.744 52.9167 207.808C53.2612 207.868 53.5932 207.994 53.9128 208.186C54.236 208.377 54.5041 208.667 54.7172 209.054C54.9302 209.441 55.0368 209.96 55.0368 210.609V216H53.7797V214.892H53.7157C53.6305 215.07 53.4885 215.26 53.2896 215.462C53.0907 215.664 52.8262 215.837 52.4959 215.979C52.1657 216.121 51.7626 216.192 51.2868 216.192ZM51.4785 215.062C51.9757 215.062 52.3947 214.965 52.7356 214.77C53.0801 214.574 53.3393 214.322 53.5133 214.013C53.6909 213.704 53.7797 213.379 53.7797 213.038V211.888C53.7264 211.952 53.6092 212.01 53.4281 212.064C53.2505 212.113 53.0446 212.158 52.8102 212.197C52.5794 212.232 52.3539 212.264 52.1337 212.293C51.9171 212.317 51.7413 212.339 51.6064 212.357C51.2797 212.399 50.9743 212.468 50.6902 212.564C50.4096 212.657 50.1824 212.797 50.0083 212.985C49.8379 213.17 49.7527 213.422 49.7527 213.741C49.7527 214.178 49.9142 214.509 50.2374 214.732C50.5641 214.952 50.9778 215.062 51.4785 215.062ZM60.4207 216.17C59.7389 216.17 59.137 215.998 58.615 215.654C58.093 215.306 57.6846 214.816 57.3898 214.184C57.0951 213.548 56.9477 212.797 56.9477 211.93C56.9477 211.071 57.0951 210.325 57.3898 209.693C57.6846 209.061 58.0947 208.573 58.6203 208.228C59.1459 207.884 59.7531 207.712 60.442 207.712C60.9747 207.712 61.3955 207.8 61.7045 207.978C62.017 208.152 62.2549 208.351 62.4182 208.575C62.5851 208.795 62.7148 208.976 62.8071 209.118H62.9136V205.091H64.1707V216H62.9562V214.743H62.8071C62.7148 214.892 62.5834 215.08 62.4129 215.308C62.2425 215.531 61.9992 215.732 61.6832 215.909C61.3671 216.083 60.9463 216.17 60.4207 216.17ZM60.5912 215.041C61.0954 215.041 61.5216 214.91 61.8696 214.647C62.2176 214.381 62.4822 214.013 62.6633 213.544C62.8444 213.072 62.9349 212.527 62.9349 211.909C62.9349 211.298 62.8461 210.764 62.6686 210.306C62.491 209.844 62.2282 209.485 61.8802 209.23C61.5322 208.971 61.1025 208.841 60.5912 208.841C60.0585 208.841 59.6146 208.978 59.2595 209.251C58.9079 209.521 58.6434 209.888 58.4658 210.354C58.2918 210.815 58.2048 211.334 58.2048 211.909C58.2048 212.491 58.2936 213.021 58.4711 213.496C58.6523 213.969 58.9186 214.345 59.2702 214.626C59.6253 214.903 60.0656 215.041 60.5912 215.041ZM70.078 216.17C69.2897 216.17 68.6096 215.996 68.0379 215.648C67.4697 215.297 67.0312 214.807 66.7222 214.178C66.4168 213.546 66.2641 212.811 66.2641 211.973C66.2641 211.135 66.4168 210.396 66.7222 209.757C67.0312 209.114 67.4608 208.614 68.0113 208.255C68.5653 207.893 69.2116 207.712 69.9502 207.712C70.3763 207.712 70.7971 207.783 71.2126 207.925C71.6281 208.067 72.0063 208.298 72.3472 208.617C72.6881 208.933 72.9598 209.352 73.1622 209.874C73.3646 210.396 73.4658 211.039 73.4658 211.803V212.335H67.159V211.249H72.1874C72.1874 210.787 72.0951 210.375 71.9104 210.013C71.7293 209.651 71.4701 209.365 71.1327 209.155C70.7989 208.946 70.4047 208.841 69.9502 208.841C69.4495 208.841 69.0162 208.965 68.6505 209.214C68.2883 209.459 68.0095 209.778 67.8142 210.173C67.6189 210.567 67.5212 210.989 67.5212 211.44V212.165C67.5212 212.783 67.6278 213.306 67.8408 213.736C68.0574 214.162 68.3575 214.487 68.741 214.711C69.1246 214.931 69.5702 215.041 70.078 215.041C70.4083 215.041 70.7066 214.995 70.9729 214.903C71.2428 214.807 71.4754 214.665 71.6707 214.477C71.866 214.285 72.017 214.047 72.1235 213.763L73.338 214.104C73.2101 214.516 72.9953 214.878 72.6934 215.19C72.3916 215.499 72.0187 215.741 71.5748 215.915C71.1309 216.085 70.632 216.17 70.078 216.17Z" fill="#4A4C53"/>
<rect x="0.4" y="185.4" width="219.2" height="51.2" rx="5.6" stroke="#AFB0B9" stroke-width="0.8"/>
<g clip-path="url(#clip1_1_890)">
<path d="M181.442 211.273L184.156 214.182C184.496 214.545 185.004 214.545 185.344 214.182L188.058 211.273C188.397 210.909 188.906 210.909 189.246 211.273C189.585 211.636 189.585 212.182 189.246 212.545L185.344 216.727C185.004 217.091 184.496 217.091 184.156 216.727L180.254 212.545C179.915 212.182 179.915 211.636 180.254 211.273C180.594 210.909 181.103 210.909 181.442 211.273Z" fill="#4A4C53"/>
</g>
<path d="M285.688 216H282.321V205.091H285.837C286.895 205.091 287.8 205.309 288.553 205.746C289.306 206.179 289.883 206.803 290.284 207.616C290.686 208.425 290.886 209.395 290.886 210.524C290.886 211.661 290.684 212.639 290.279 213.459C289.874 214.276 289.285 214.904 288.511 215.345C287.737 215.782 286.795 216 285.688 216ZM283.642 214.828H285.602C286.504 214.828 287.252 214.654 287.845 214.306C288.438 213.958 288.88 213.463 289.171 212.82C289.462 212.177 289.608 211.412 289.608 210.524C289.608 209.643 289.464 208.885 289.176 208.25C288.889 207.61 288.459 207.12 287.887 206.779C287.316 206.435 286.604 206.263 285.751 206.263H283.642V214.828ZM295.339 216.192C294.821 216.192 294.35 216.094 293.928 215.899C293.505 215.7 293.17 215.414 292.921 215.041C292.673 214.665 292.548 214.21 292.548 213.678C292.548 213.209 292.641 212.829 292.825 212.538C293.01 212.243 293.257 212.012 293.566 211.845C293.875 211.678 294.216 211.554 294.588 211.472C294.965 211.387 295.343 211.32 295.723 211.27C296.22 211.206 296.623 211.158 296.932 211.126C297.245 211.091 297.472 211.032 297.614 210.95C297.76 210.869 297.832 210.727 297.832 210.524V210.482C297.832 209.956 297.689 209.548 297.401 209.256C297.117 208.965 296.685 208.82 296.107 208.82C295.506 208.82 295.036 208.951 294.695 209.214C294.354 209.477 294.114 209.757 293.976 210.055L292.783 209.629C292.996 209.132 293.28 208.745 293.635 208.468C293.994 208.187 294.384 207.992 294.807 207.882C295.233 207.768 295.652 207.712 296.064 207.712C296.327 207.712 296.629 207.744 296.969 207.808C297.314 207.868 297.646 207.994 297.966 208.186C298.289 208.377 298.557 208.667 298.77 209.054C298.983 209.441 299.089 209.96 299.089 210.609V216H297.832V214.892H297.768C297.683 215.07 297.541 215.26 297.342 215.462C297.143 215.664 296.879 215.837 296.549 215.979C296.218 216.121 295.815 216.192 295.339 216.192ZM295.531 215.062C296.028 215.062 296.447 214.965 296.788 214.77C297.133 214.574 297.392 214.322 297.566 214.013C297.744 213.704 297.832 213.379 297.832 213.038V211.888C297.779 211.952 297.662 212.01 297.481 212.064C297.303 212.113 297.097 212.158 296.863 212.197C296.632 212.232 296.407 212.264 296.186 212.293C295.97 212.317 295.794 212.339 295.659 212.357C295.332 212.399 295.027 212.468 294.743 212.564C294.462 212.657 294.235 212.797 294.061 212.985C293.891 213.17 293.805 213.422 293.805 213.741C293.805 214.178 293.967 214.509 294.29 214.732C294.617 214.952 295.031 215.062 295.531 215.062ZM304.942 207.818V208.884H300.702V207.818H304.942ZM301.938 205.858H303.195V213.656C303.195 214.011 303.247 214.278 303.35 214.455C303.456 214.629 303.591 214.746 303.754 214.807C303.921 214.864 304.097 214.892 304.282 214.892C304.42 214.892 304.534 214.885 304.623 214.871C304.711 214.853 304.782 214.839 304.836 214.828L305.091 215.957C305.006 215.989 304.887 216.021 304.734 216.053C304.582 216.089 304.388 216.107 304.154 216.107C303.799 216.107 303.451 216.03 303.11 215.877C302.772 215.725 302.492 215.492 302.268 215.18C302.048 214.867 301.938 214.473 301.938 213.997V205.858ZM310.176 216.17C309.387 216.17 308.707 215.996 308.136 215.648C307.567 215.297 307.129 214.807 306.82 214.178C306.514 213.546 306.362 212.811 306.362 211.973C306.362 211.135 306.514 210.396 306.82 209.757C307.129 209.114 307.559 208.614 308.109 208.255C308.663 207.893 309.309 207.712 310.048 207.712C310.474 207.712 310.895 207.783 311.31 207.925C311.726 208.067 312.104 208.298 312.445 208.617C312.786 208.933 313.057 209.352 313.26 209.874C313.462 210.396 313.563 211.039 313.563 211.803V212.335H307.257V211.249H312.285C312.285 210.787 312.193 210.375 312.008 210.013C311.827 209.651 311.568 209.365 311.23 209.155C310.897 208.946 310.502 208.841 310.048 208.841C309.547 208.841 309.114 208.965 308.748 209.214C308.386 209.459 308.107 209.778 307.912 210.173C307.717 210.567 307.619 210.989 307.619 211.44V212.165C307.619 212.783 307.725 213.306 307.938 213.736C308.155 214.162 308.455 214.487 308.839 214.711C309.222 214.931 309.668 215.041 310.176 215.041C310.506 215.041 310.804 214.995 311.071 214.903C311.34 214.807 311.573 214.665 311.768 214.477C311.964 214.285 312.115 214.047 312.221 213.763L313.436 214.104C313.308 214.516 313.093 214.878 312.791 215.19C312.489 215.499 312.116 215.741 311.672 215.915C311.229 216.085 310.73 216.17 310.176 216.17Z" fill="#4A4C53"/>
<rect x="250.4" y="185.4" width="219.2" height="51.2" rx="5.6" stroke="#AFB0B9" stroke-width="0.8"/>
<g clip-path="url(#clip2_1_890)">
<path d="M431.442 211.273L434.156 214.182C434.496 214.545 435.004 214.545 435.344 214.182L438.058 211.273C438.397 210.909 438.906 210.909 439.246 211.273C439.585 211.636 439.585 212.182 439.246 212.545L435.344 216.727C435.004 217.091 434.496 217.091 434.156 216.727L430.254 212.545C429.915 212.182 429.915 211.636 430.254 211.273C430.594 210.909 431.103 210.909 431.442 211.273Z" fill="#4A4C53"/>
</g>
<g clip-path="url(#clip3_1_890)">
<path d="M431.442 124.273L434.156 127.182C434.496 127.545 435.004 127.545 435.344 127.182L438.058 124.273C438.397 123.909 438.906 123.909 439.246 124.273C439.585 124.636 439.585 125.182 439.246 125.545L435.344 129.727C435.004 130.091 434.496 130.091 434.156 129.727L430.254 125.545C429.915 125.182 429.915 124.636 430.254 124.273C430.594 123.909 431.103 123.909 431.442 124.273Z" fill="#4A4C53"/>
</g>
<defs>
<clipPath id="clip0_1_890">
<rect width="9.5" height="6" fill="white" transform="translate(180 124)"/>
</clipPath>
<clipPath id="clip1_1_890">
<rect width="9.5" height="6" fill="white" transform="translate(180 211)"/>
</clipPath>
<clipPath id="clip2_1_890">
<rect width="9.5" height="6" fill="white" transform="translate(430 211)"/>
</clipPath>
<clipPath id="clip3_1_890">
<rect width="9.5" height="6" fill="white" transform="translate(430 124)"/>
</clipPath>
</defs>
</svg>
