<svg width="351" height="249" viewBox="0 0 351 249" fill="none" xmlns="http://www.w3.org/2000/svg">
<path d="M0.468 85L5.994 72.31H7.002L12.618 85H11.448L9.864 81.346L10.386 81.616H2.574L3.186 81.346L1.638 85H0.468ZM6.48 73.66L3.402 80.878L2.988 80.662H9.972L9.666 80.878L6.516 73.66H6.48ZM17.9038 85.144C17.0998 85.144 16.3978 84.958 15.7978 84.586C15.1978 84.214 14.7358 83.68 14.4118 82.984C14.0878 82.288 13.9258 81.454 13.9258 80.482C13.9258 79.51 14.0878 78.682 14.4118 77.998C14.7358 77.302 15.1978 76.768 15.7978 76.396C16.3978 76.012 17.0998 75.82 17.9038 75.82C18.7318 75.82 19.4458 76.036 20.0458 76.468C20.6578 76.888 21.0658 77.47 21.2698 78.214H21.0538V71.752H22.1518V85H21.0718V82.732H21.2698C21.0658 83.488 20.6578 84.082 20.0458 84.514C19.4458 84.934 18.7318 85.144 17.9038 85.144ZM18.0478 84.208C18.9598 84.208 19.6918 83.89 20.2438 83.254C20.8078 82.618 21.0898 81.694 21.0898 80.482C21.0898 79.27 20.8078 78.346 20.2438 77.71C19.6918 77.074 18.9598 76.756 18.0478 76.756C17.1358 76.756 16.4038 77.074 15.8518 77.71C15.3118 78.346 15.0418 79.27 15.0418 80.482C15.0418 81.694 15.3118 82.618 15.8518 83.254C16.4038 83.89 17.1358 84.208 18.0478 84.208ZM27.8006 85L23.9666 75.982H25.1906L28.6106 84.316H28.1426L31.5986 75.982H32.7686L28.9346 85H27.8006ZM38.3581 85.144C36.9901 85.144 35.9041 84.736 35.1001 83.92C34.3081 83.104 33.9121 81.97 33.9121 80.518C33.9121 79.558 34.0861 78.73 34.4341 78.034C34.7941 77.338 35.2921 76.798 35.9281 76.414C36.5641 76.018 37.3021 75.82 38.1421 75.82C38.9461 75.82 39.6241 75.994 40.1761 76.342C40.7281 76.678 41.1541 77.164 41.4541 77.8C41.7541 78.424 41.9041 79.168 41.9041 80.032V80.536H34.7041V79.744H41.2201L40.9141 79.978C40.9141 78.958 40.6801 78.16 40.2121 77.584C39.7441 76.996 39.0481 76.702 38.1241 76.702C37.1401 76.702 36.3721 77.044 35.8201 77.728C35.2681 78.4 34.9921 79.294 34.9921 80.41V80.536C34.9921 81.736 35.2861 82.648 35.8741 83.272C36.4741 83.896 37.3081 84.208 38.3761 84.208C38.9281 84.208 39.4441 84.124 39.9241 83.956C40.4041 83.788 40.8661 83.5 41.3101 83.092L41.7601 83.902C41.3761 84.298 40.8781 84.604 40.2661 84.82C39.6541 85.036 39.0181 85.144 38.3581 85.144ZM44.2616 85V77.998C44.2616 77.674 44.2496 77.344 44.2256 77.008C44.2016 76.672 44.1656 76.33 44.1176 75.982H45.1976L45.3596 78.052H45.1436C45.4076 77.332 45.8336 76.78 46.4216 76.396C47.0096 76.012 47.6936 75.82 48.4736 75.82C49.5416 75.82 50.3456 76.102 50.8856 76.666C51.4376 77.23 51.7136 78.112 51.7136 79.312V85H50.6156V79.402C50.6156 78.478 50.4296 77.812 50.0576 77.404C49.6856 76.984 49.1096 76.774 48.3296 76.774C47.4176 76.774 46.6916 77.05 46.1516 77.602C45.6236 78.154 45.3596 78.898 45.3596 79.834V85H44.2616ZM57.5838 85.144C56.7798 85.144 56.1618 84.904 55.7298 84.424C55.3098 83.944 55.0998 83.206 55.0998 82.21V76.864H53.2998V75.982H55.0998V73.462L56.1978 73.102V75.982H58.8618V76.864H56.1978V82.048C56.1978 82.804 56.3178 83.35 56.5578 83.686C56.7978 84.022 57.1818 84.19 57.7098 84.19C57.9498 84.19 58.1598 84.166 58.3398 84.118C58.5318 84.07 58.6938 84.016 58.8258 83.956V84.928C58.6818 84.988 58.4958 85.036 58.2678 85.072C58.0398 85.12 57.8118 85.144 57.5838 85.144ZM63.9003 85.144C62.8443 85.144 62.0403 84.862 61.4883 84.298C60.9483 83.722 60.6783 82.84 60.6783 81.652V75.982H61.7763V81.58C61.7763 82.492 61.9623 83.158 62.3343 83.578C62.7063 83.998 63.2763 84.208 64.0443 84.208C64.8963 84.208 65.5803 83.932 66.0963 83.38C66.6243 82.816 66.8883 82.072 66.8883 81.148V75.982H67.9863V85H66.9063V82.876H67.1403C66.8883 83.608 66.4743 84.172 65.8983 84.568C65.3343 84.952 64.6683 85.144 63.9003 85.144ZM70.9623 85V78.088C70.9623 77.74 70.9503 77.392 70.9263 77.044C70.9143 76.684 70.8843 76.33 70.8363 75.982H71.9163L72.0603 78.052L71.8443 78.07C71.9643 77.566 72.1803 77.152 72.4923 76.828C72.8043 76.492 73.1643 76.24 73.5723 76.072C73.9803 75.904 74.4003 75.82 74.8323 75.82C74.9883 75.82 75.1323 75.832 75.2643 75.856C75.4083 75.868 75.5403 75.892 75.6603 75.928L75.6243 76.918C75.4803 76.87 75.3363 76.84 75.1923 76.828C75.0483 76.816 74.8923 76.81 74.7243 76.81C74.1843 76.81 73.7103 76.942 73.3023 77.206C72.9063 77.47 72.6003 77.806 72.3843 78.214C72.1683 78.622 72.0603 79.036 72.0603 79.456V85H70.9623ZM81.0203 85.144C79.6523 85.144 78.5663 84.736 77.7623 83.92C76.9703 83.104 76.5743 81.97 76.5743 80.518C76.5743 79.558 76.7483 78.73 77.0963 78.034C77.4563 77.338 77.9543 76.798 78.5903 76.414C79.2263 76.018 79.9643 75.82 80.8043 75.82C81.6083 75.82 82.2863 75.994 82.8383 76.342C83.3903 76.678 83.8163 77.164 84.1163 77.8C84.4163 78.424 84.5663 79.168 84.5663 80.032V80.536H77.3663V79.744H83.8823L83.5763 79.978C83.5763 78.958 83.3423 78.16 82.8743 77.584C82.4063 76.996 81.7103 76.702 80.7863 76.702C79.8023 76.702 79.0343 77.044 78.4823 77.728C77.9303 78.4 77.6543 79.294 77.6543 80.41V80.536C77.6543 81.736 77.9483 82.648 78.5363 83.272C79.1363 83.896 79.9703 84.208 81.0383 84.208C81.5903 84.208 82.1063 84.124 82.5863 83.956C83.0663 83.788 83.5283 83.5 83.9723 83.092L84.4223 83.902C84.0383 84.298 83.5403 84.604 82.9283 84.82C82.3163 85.036 81.6803 85.144 81.0203 85.144ZM94.8056 85V73.282H90.1976V72.31H100.512V73.282H95.9216V85H94.8056ZM100.863 85V78.088C100.863 77.74 100.851 77.392 100.827 77.044C100.815 76.684 100.785 76.33 100.737 75.982H101.817L101.961 78.052L101.745 78.07C101.865 77.566 102.081 77.152 102.393 76.828C102.705 76.492 103.065 76.24 103.473 76.072C103.881 75.904 104.301 75.82 104.733 75.82C104.889 75.82 105.033 75.832 105.165 75.856C105.309 75.868 105.441 75.892 105.561 75.928L105.525 76.918C105.381 76.87 105.237 76.84 105.093 76.828C104.949 76.816 104.793 76.81 104.625 76.81C104.085 76.81 103.611 76.942 103.203 77.206C102.807 77.47 102.501 77.806 102.285 78.214C102.069 78.622 101.961 79.036 101.961 79.456V85H100.863ZM110.488 85.144C109.672 85.144 108.964 84.958 108.364 84.586C107.764 84.214 107.302 83.68 106.978 82.984C106.654 82.288 106.492 81.454 106.492 80.482C106.492 79.51 106.654 78.682 106.978 77.998C107.314 77.302 107.782 76.768 108.382 76.396C108.982 76.012 109.684 75.82 110.488 75.82C111.316 75.82 112.03 76.036 112.63 76.468C113.242 76.9 113.644 77.488 113.836 78.232H113.62L113.8 75.982H114.862C114.826 76.33 114.79 76.672 114.754 77.008C114.73 77.344 114.718 77.674 114.718 77.998V85H113.62V82.75H113.818C113.626 83.494 113.224 84.082 112.612 84.514C112.012 84.934 111.304 85.144 110.488 85.144ZM110.632 84.208C111.556 84.208 112.288 83.89 112.828 83.254C113.368 82.618 113.638 81.694 113.638 80.482C113.638 79.27 113.368 78.346 112.828 77.71C112.288 77.074 111.556 76.756 110.632 76.756C109.708 76.756 108.97 77.074 108.418 77.71C107.878 78.346 107.608 79.27 107.608 80.482C107.608 81.694 107.878 82.618 108.418 83.254C108.97 83.89 109.708 84.208 110.632 84.208ZM120.279 85L116.445 75.982H117.669L121.089 84.316H120.621L124.077 75.982H125.247L121.413 85H120.279ZM130.837 85.144C129.469 85.144 128.383 84.736 127.579 83.92C126.787 83.104 126.391 81.97 126.391 80.518C126.391 79.558 126.565 78.73 126.913 78.034C127.273 77.338 127.771 76.798 128.407 76.414C129.043 76.018 129.781 75.82 130.621 75.82C131.425 75.82 132.103 75.994 132.655 76.342C133.207 76.678 133.633 77.164 133.933 77.8C134.233 78.424 134.383 79.168 134.383 80.032V80.536H127.183V79.744H133.699L133.393 79.978C133.393 78.958 133.159 78.16 132.691 77.584C132.223 76.996 131.527 76.702 130.603 76.702C129.619 76.702 128.851 77.044 128.299 77.728C127.747 78.4 127.471 79.294 127.471 80.41V80.536C127.471 81.736 127.765 82.648 128.353 83.272C128.953 83.896 129.787 84.208 130.855 84.208C131.407 84.208 131.923 84.124 132.403 83.956C132.883 83.788 133.345 83.5 133.789 83.092L134.239 83.902C133.855 84.298 133.357 84.604 132.745 84.82C132.133 85.036 131.497 85.144 130.837 85.144ZM136.74 85V71.752H137.838V85H136.74ZM0.468 123L5.994 110.31H7.002L12.618 123H11.448L9.864 119.346L10.386 119.616H2.574L3.186 119.346L1.638 123H0.468ZM6.48 111.66L3.402 118.878L2.988 118.662H9.972L9.666 118.878L6.516 111.66H6.48ZM14.5717 123V116.088C14.5717 115.74 14.5597 115.392 14.5357 115.044C14.5237 114.684 14.4937 114.33 14.4457 113.982H15.5257L15.6697 116.052L15.4537 116.07C15.5737 115.566 15.7897 115.152 16.1017 114.828C16.4137 114.492 16.7737 114.24 17.1817 114.072C17.5897 113.904 18.0097 113.82 18.4417 113.82C18.5977 113.82 18.7417 113.832 18.8737 113.856C19.0177 113.868 19.1497 113.892 19.2697 113.928L19.2337 114.918C19.0897 114.87 18.9457 114.84 18.8017 114.828C18.6577 114.816 18.5017 114.81 18.3337 114.81C17.7937 114.81 17.3197 114.942 16.9117 115.206C16.5157 115.47 16.2097 115.806 15.9937 116.214C15.7777 116.622 15.6697 117.036 15.6697 117.456V123H14.5717ZM24.2557 123.144C23.4517 123.144 22.8337 122.904 22.4017 122.424C21.9817 121.944 21.7717 121.206 21.7717 120.21V114.864H19.9717V113.982H21.7717V111.462L22.8697 111.102V113.982H25.5337V114.864H22.8697V120.048C22.8697 120.804 22.9897 121.35 23.2297 121.686C23.4697 122.022 23.8537 122.19 24.3817 122.19C24.6217 122.19 24.8317 122.166 25.0117 122.118C25.2037 122.07 25.3657 122.016 25.4977 121.956V122.928C25.3537 122.988 25.1677 123.036 24.9397 123.072C24.7117 123.12 24.4837 123.144 24.2557 123.144ZM30.966 123L36.492 110.31H37.5L43.116 123H41.946L40.362 119.346L40.884 119.616H33.072L33.684 119.346L32.136 123H30.966ZM36.978 111.66L33.9 118.878L33.486 118.662H40.47L40.164 118.878L37.014 111.66H36.978ZM45.0878 123V115.998C45.0878 115.674 45.0758 115.344 45.0518 115.008C45.0278 114.672 44.9918 114.33 44.9438 113.982H46.0238L46.1858 116.052H45.9697C46.2338 115.332 46.6598 114.78 47.2478 114.396C47.8358 114.012 48.5198 113.82 49.2998 113.82C50.3678 113.82 51.1718 114.102 51.7118 114.666C52.2638 115.23 52.5398 116.112 52.5398 117.312V123H51.4418V117.402C51.4418 116.478 51.2558 115.812 50.8838 115.404C50.5118 114.984 49.9358 114.774 49.1558 114.774C48.2438 114.774 47.5178 115.05 46.9778 115.602C46.4498 116.154 46.1858 116.898 46.1858 117.834V123H45.0878ZM58.896 123.144C58.092 123.144 57.39 122.958 56.79 122.586C56.19 122.214 55.728 121.68 55.404 120.984C55.08 120.288 54.918 119.454 54.918 118.482C54.918 117.51 55.08 116.682 55.404 115.998C55.728 115.302 56.19 114.768 56.79 114.396C57.39 114.012 58.092 113.82 58.896 113.82C59.724 113.82 60.438 114.036 61.038 114.468C61.65 114.888 62.058 115.47 62.262 116.214H62.046V109.752H63.144V123H62.064V120.732H62.262C62.058 121.488 61.65 122.082 61.038 122.514C60.438 122.934 59.724 123.144 58.896 123.144ZM59.04 122.208C59.952 122.208 60.684 121.89 61.236 121.254C61.8 120.618 62.082 119.694 62.082 118.482C62.082 117.27 61.8 116.346 61.236 115.71C60.684 115.074 59.952 114.756 59.04 114.756C58.128 114.756 57.396 115.074 56.844 115.71C56.304 116.346 56.034 117.27 56.034 118.482C56.034 119.694 56.304 120.618 56.844 121.254C57.396 121.89 58.128 122.208 59.04 122.208ZM76.2427 123.144C74.9947 123.144 73.9327 122.886 73.0567 122.37C72.1927 121.842 71.5327 121.092 71.0767 120.12C70.6207 119.148 70.3927 117.99 70.3927 116.646C70.3927 115.302 70.6207 114.15 71.0767 113.19C71.5327 112.218 72.1927 111.474 73.0567 110.958C73.9327 110.43 74.9947 110.166 76.2427 110.166C77.1547 110.166 77.9647 110.31 78.6727 110.598C79.3807 110.874 79.9987 111.288 80.5267 111.84L80.0587 112.74C79.4707 112.2 78.8827 111.81 78.2947 111.57C77.7067 111.318 77.0227 111.192 76.2427 111.192C74.7187 111.192 73.5607 111.672 72.7687 112.632C71.9767 113.58 71.5807 114.918 71.5807 116.646C71.5807 118.374 71.9767 119.718 72.7687 120.678C73.5607 121.638 74.7187 122.118 76.2427 122.118C77.0227 122.118 77.7067 121.998 78.2947 121.758C78.8827 121.506 79.4707 121.11 80.0587 120.57L80.5267 121.47C79.9987 122.022 79.3747 122.442 78.6547 122.73C77.9467 123.006 77.1427 123.144 76.2427 123.144ZM85.996 123.144C84.94 123.144 84.136 122.862 83.584 122.298C83.044 121.722 82.774 120.84 82.774 119.652V113.982H83.872V119.58C83.872 120.492 84.058 121.158 84.43 121.578C84.802 121.998 85.372 122.208 86.14 122.208C86.992 122.208 87.676 121.932 88.192 121.38C88.72 120.816 88.984 120.072 88.984 119.148V113.982H90.082V123H89.002V120.876H89.236C88.984 121.608 88.57 122.172 87.994 122.568C87.43 122.952 86.764 123.144 85.996 123.144ZM93.076 123V109.752H94.174V123H93.076ZM100.088 123.144C99.2837 123.144 98.6657 122.904 98.2337 122.424C97.8137 121.944 97.6037 121.206 97.6037 120.21V114.864H95.8037V113.982H97.6037V111.462L98.7017 111.102V113.982H101.366V114.864H98.7017V120.048C98.7017 120.804 98.8217 121.35 99.0617 121.686C99.3017 122.022 99.6857 122.19 100.214 122.19C100.454 122.19 100.664 122.166 100.844 122.118C101.036 122.07 101.198 122.016 101.33 121.956V122.928C101.186 122.988 101 123.036 100.772 123.072C100.544 123.12 100.316 123.144 100.088 123.144ZM106.404 123.144C105.348 123.144 104.544 122.862 103.992 122.298C103.452 121.722 103.182 120.84 103.182 119.652V113.982H104.28V119.58C104.28 120.492 104.466 121.158 104.838 121.578C105.21 121.998 105.78 122.208 106.548 122.208C107.4 122.208 108.084 121.932 108.6 121.38C109.128 120.816 109.392 120.072 109.392 119.148V113.982H110.49V123H109.41V120.876H109.644C109.392 121.608 108.978 122.172 108.402 122.568C107.838 122.952 107.172 123.144 106.404 123.144ZM113.466 123V116.088C113.466 115.74 113.454 115.392 113.43 115.044C113.418 114.684 113.388 114.33 113.34 113.982H114.42L114.564 116.052L114.348 116.07C114.468 115.566 114.684 115.152 114.996 114.828C115.308 114.492 115.668 114.24 116.076 114.072C116.484 113.904 116.904 113.82 117.336 113.82C117.492 113.82 117.636 113.832 117.768 113.856C117.912 113.868 118.044 113.892 118.164 113.928L118.128 114.918C117.984 114.87 117.84 114.84 117.696 114.828C117.552 114.816 117.396 114.81 117.228 114.81C116.688 114.81 116.214 114.942 115.806 115.206C115.41 115.47 115.104 115.806 114.888 116.214C114.672 116.622 114.564 117.036 114.564 117.456V123H113.466ZM123.524 123.144C122.156 123.144 121.07 122.736 120.266 121.92C119.474 121.104 119.078 119.97 119.078 118.518C119.078 117.558 119.252 116.73 119.6 116.034C119.96 115.338 120.458 114.798 121.094 114.414C121.73 114.018 122.468 113.82 123.308 113.82C124.112 113.82 124.79 113.994 125.342 114.342C125.894 114.678 126.32 115.164 126.62 115.8C126.92 116.424 127.07 117.168 127.07 118.032V118.536H119.87V117.744H126.386L126.08 117.978C126.08 116.958 125.846 116.16 125.378 115.584C124.91 114.996 124.214 114.702 123.29 114.702C122.306 114.702 121.538 115.044 120.986 115.728C120.434 116.4 120.158 117.294 120.158 118.41V118.536C120.158 119.736 120.452 120.648 121.04 121.272C121.64 121.896 122.474 122.208 123.542 122.208C124.094 122.208 124.61 122.124 125.09 121.956C125.57 121.788 126.032 121.5 126.476 121.092L126.926 121.902C126.542 122.298 126.044 122.604 125.432 122.82C124.82 123.036 124.184 123.144 123.524 123.144ZM5.076 161L0.684 148.31H1.854L5.922 160.208H5.328L9.558 148.31H10.494L14.526 160.208H13.986L18.144 148.31H19.26L14.814 161H13.752L9.846 149.444H10.206L6.102 161H5.076ZM21.4452 161V151.982H22.5432V161H21.4452ZM21.2652 149.768V148.4H22.7412V149.768H21.2652ZM25.5409 161V147.752H26.6389V161H25.5409ZM33.0386 161.144C32.2346 161.144 31.5326 160.958 30.9326 160.586C30.3326 160.214 29.8706 159.68 29.5466 158.984C29.2226 158.288 29.0606 157.454 29.0606 156.482C29.0606 155.51 29.2226 154.682 29.5466 153.998C29.8706 153.302 30.3326 152.768 30.9326 152.396C31.5326 152.012 32.2346 151.82 33.0386 151.82C33.8666 151.82 34.5806 152.036 35.1806 152.468C35.7926 152.888 36.2006 153.47 36.4046 154.214H36.1886V147.752H37.2866V161H36.2066V158.732H36.4046C36.2006 159.488 35.7926 160.082 35.1806 160.514C34.5806 160.934 33.8666 161.144 33.0386 161.144ZM33.1826 160.208C34.0946 160.208 34.8266 159.89 35.3786 159.254C35.9426 158.618 36.2246 157.694 36.2246 156.482C36.2246 155.27 35.9426 154.346 35.3786 153.71C34.8266 153.074 34.0946 152.756 33.1826 152.756C32.2706 152.756 31.5386 153.074 30.9866 153.71C30.4466 154.346 30.1766 155.27 30.1766 156.482C30.1766 157.694 30.4466 158.618 30.9866 159.254C31.5386 159.89 32.2706 160.208 33.1826 160.208ZM40.2713 161V147.752H41.3693V161H40.2713ZM44.367 161V151.982H45.465V161H44.367ZM44.187 149.768V148.4H45.663V149.768H44.187ZM48.8948 161V152.864H47.0948V151.982H49.1648L48.8948 152.27V150.704C48.8948 149.744 49.1348 149 49.6147 148.472C50.0948 147.944 50.7788 147.68 51.6668 147.68C51.8948 147.68 52.1288 147.704 52.3688 147.752C52.6088 147.788 52.8068 147.836 52.9628 147.896V148.868C52.8188 148.808 52.6448 148.754 52.4408 148.706C52.2368 148.658 52.0208 148.634 51.7928 148.634C51.3968 148.634 51.0608 148.718 50.7848 148.886C50.5208 149.054 50.3168 149.3 50.1728 149.624C50.0408 149.936 49.9748 150.338 49.9748 150.83V152.27L49.7948 151.982H52.5668V152.864H49.9928V161H48.8948ZM57.905 161.144C56.537 161.144 55.451 160.736 54.647 159.92C53.855 159.104 53.459 157.97 53.459 156.518C53.459 155.558 53.633 154.73 53.981 154.034C54.341 153.338 54.839 152.798 55.475 152.414C56.111 152.018 56.849 151.82 57.689 151.82C58.493 151.82 59.171 151.994 59.723 152.342C60.275 152.678 60.701 153.164 61.001 153.8C61.301 154.424 61.451 155.168 61.451 156.032V156.536H54.251V155.744H60.767L60.461 155.978C60.461 154.958 60.227 154.16 59.759 153.584C59.291 152.996 58.595 152.702 57.671 152.702C56.687 152.702 55.919 153.044 55.367 153.728C54.815 154.4 54.539 155.294 54.539 156.41V156.536C54.539 157.736 54.833 158.648 55.421 159.272C56.021 159.896 56.855 160.208 57.923 160.208C58.475 160.208 58.991 160.124 59.471 159.956C59.951 159.788 60.413 159.5 60.857 159.092L61.307 159.902C60.923 160.298 60.425 160.604 59.813 160.82C59.201 161.036 58.565 161.144 57.905 161.144ZM67.3703 161L72.8963 148.31H73.9043L79.5203 161H78.3503L76.7663 157.346L77.2883 157.616H69.4763L70.0883 157.346L68.5403 161H67.3703ZM73.3823 149.66L70.3043 156.878L69.8903 156.662H76.8743L76.5683 156.878L73.4183 149.66H73.3823ZM81.492 161V153.998C81.492 153.674 81.48 153.344 81.456 153.008C81.432 152.672 81.396 152.33 81.348 151.982H82.428L82.59 154.052H82.374C82.638 153.332 83.064 152.78 83.652 152.396C84.24 152.012 84.924 151.82 85.704 151.82C86.772 151.82 87.576 152.102 88.116 152.666C88.668 153.23 88.944 154.112 88.944 155.312V161H87.846V155.402C87.846 154.478 87.66 153.812 87.288 153.404C86.916 152.984 86.34 152.774 85.56 152.774C84.648 152.774 83.922 153.05 83.382 153.602C82.854 154.154 82.59 154.898 82.59 155.834V161H81.492ZM95.3003 161.144C94.4963 161.144 93.7943 160.958 93.1943 160.586C92.5943 160.214 92.1323 159.68 91.8083 158.984C91.4843 158.288 91.3223 157.454 91.3223 156.482C91.3223 155.51 91.4843 154.682 91.8083 153.998C92.1323 153.302 92.5943 152.768 93.1943 152.396C93.7943 152.012 94.4963 151.82 95.3003 151.82C96.1283 151.82 96.8423 152.036 97.4423 152.468C98.0543 152.888 98.4623 153.47 98.6663 154.214H98.4503V147.752H99.5483V161H98.4683V158.732H98.6663C98.4623 159.488 98.0543 160.082 97.4423 160.514C96.8423 160.934 96.1283 161.144 95.3003 161.144ZM95.4443 160.208C96.3563 160.208 97.0883 159.89 97.6403 159.254C98.2043 158.618 98.4863 157.694 98.4863 156.482C98.4863 155.27 98.2043 154.346 97.6403 153.71C97.0883 153.074 96.3563 152.756 95.4443 152.756C94.5323 152.756 93.8003 153.074 93.2483 153.71C92.7083 154.346 92.4383 155.27 92.4383 156.482C92.4383 157.694 92.7083 158.618 93.2483 159.254C93.8003 159.89 94.5323 160.208 95.4443 160.208ZM107.301 161V148.31H108.201L116.697 159.686H116.301V148.31H117.327V161H116.445L107.949 149.624H108.327V161H107.301ZM123.918 161.144C123.102 161.144 122.394 160.958 121.794 160.586C121.194 160.214 120.732 159.68 120.408 158.984C120.084 158.288 119.922 157.454 119.922 156.482C119.922 155.51 120.084 154.682 120.408 153.998C120.744 153.302 121.212 152.768 121.812 152.396C122.412 152.012 123.114 151.82 123.918 151.82C124.746 151.82 125.46 152.036 126.06 152.468C126.672 152.9 127.074 153.488 127.266 154.232H127.05L127.23 151.982H128.292C128.256 152.33 128.22 152.672 128.184 153.008C128.16 153.344 128.148 153.674 128.148 153.998V161H127.05V158.75H127.248C127.056 159.494 126.654 160.082 126.042 160.514C125.442 160.934 124.734 161.144 123.918 161.144ZM124.062 160.208C124.986 160.208 125.718 159.89 126.258 159.254C126.798 158.618 127.068 157.694 127.068 156.482C127.068 155.27 126.798 154.346 126.258 153.71C125.718 153.074 124.986 152.756 124.062 152.756C123.138 152.756 122.4 153.074 121.848 153.71C121.308 154.346 121.038 155.27 121.038 156.482C121.038 157.694 121.308 158.618 121.848 159.254C122.4 159.89 123.138 160.208 124.062 160.208ZM134.049 161.144C133.245 161.144 132.627 160.904 132.195 160.424C131.775 159.944 131.565 159.206 131.565 158.21V152.864H129.765V151.982H131.565V149.462L132.663 149.102V151.982H135.327V152.864H132.663V158.048C132.663 158.804 132.783 159.35 133.023 159.686C133.263 160.022 133.647 160.19 134.175 160.19C134.415 160.19 134.625 160.166 134.805 160.118C134.997 160.07 135.159 160.016 135.291 159.956V160.928C135.147 160.988 134.961 161.036 134.733 161.072C134.505 161.12 134.277 161.144 134.049 161.144ZM140.365 161.144C139.309 161.144 138.505 160.862 137.953 160.298C137.413 159.722 137.143 158.84 137.143 157.652V151.982H138.241V157.58C138.241 158.492 138.427 159.158 138.799 159.578C139.171 159.998 139.741 160.208 140.509 160.208C141.361 160.208 142.045 159.932 142.561 159.38C143.089 158.816 143.353 158.072 143.353 157.148V151.982H144.451V161H143.371V158.876H143.605C143.353 159.608 142.939 160.172 142.363 160.568C141.799 160.952 141.133 161.144 140.365 161.144ZM147.427 161V154.088C147.427 153.74 147.415 153.392 147.391 153.044C147.379 152.684 147.349 152.33 147.301 151.982H148.381L148.525 154.052L148.309 154.07C148.429 153.566 148.645 153.152 148.957 152.828C149.269 152.492 149.629 152.24 150.037 152.072C150.445 151.904 150.865 151.82 151.297 151.82C151.453 151.82 151.597 151.832 151.729 151.856C151.873 151.868 152.005 151.892 152.125 151.928L152.089 152.918C151.945 152.87 151.801 152.84 151.657 152.828C151.513 152.816 151.357 152.81 151.189 152.81C150.649 152.81 150.175 152.942 149.767 153.206C149.371 153.47 149.065 153.806 148.849 154.214C148.633 154.622 148.525 155.036 148.525 155.456V161H147.427ZM157.485 161.144C156.117 161.144 155.031 160.736 154.227 159.92C153.435 159.104 153.039 157.97 153.039 156.518C153.039 155.558 153.213 154.73 153.561 154.034C153.921 153.338 154.419 152.798 155.055 152.414C155.691 152.018 156.429 151.82 157.269 151.82C158.073 151.82 158.751 151.994 159.303 152.342C159.855 152.678 160.281 153.164 160.581 153.8C160.881 154.424 161.031 155.168 161.031 156.032V156.536H153.831V155.744H160.347L160.041 155.978C160.041 154.958 159.807 154.16 159.339 153.584C158.871 152.996 158.175 152.702 157.251 152.702C156.267 152.702 155.499 153.044 154.947 153.728C154.395 154.4 154.119 155.294 154.119 156.41V156.536C154.119 157.736 154.413 158.648 155.001 159.272C155.601 159.896 156.435 160.208 157.503 160.208C158.055 160.208 158.571 160.124 159.051 159.956C159.531 159.788 159.993 159.5 160.437 159.092L160.887 159.902C160.503 160.298 160.005 160.604 159.393 160.82C158.781 161.036 158.145 161.144 157.485 161.144ZM1.674 199V186.31H9.378V187.264H2.79V192.106H9V193.06H2.79V199H1.674ZM14.5995 199.144C13.7835 199.144 13.0755 198.958 12.4755 198.586C11.8755 198.214 11.4135 197.68 11.0895 196.984C10.7655 196.288 10.6035 195.454 10.6035 194.482C10.6035 193.51 10.7655 192.682 11.0895 191.998C11.4255 191.302 11.8935 190.768 12.4935 190.396C13.0935 190.012 13.7955 189.82 14.5995 189.82C15.4275 189.82 16.1415 190.036 16.7415 190.468C17.3535 190.9 17.7555 191.488 17.9475 192.232H17.7315L17.9115 189.982H18.9735C18.9375 190.33 18.9015 190.672 18.8655 191.008C18.8415 191.344 18.8295 191.674 18.8295 191.998V199H17.7315V196.75H17.9295C17.7375 197.494 17.3355 198.082 16.7235 198.514C16.1235 198.934 15.4155 199.144 14.5995 199.144ZM14.7435 198.208C15.6675 198.208 16.3995 197.89 16.9395 197.254C17.4795 196.618 17.7495 195.694 17.7495 194.482C17.7495 193.27 17.4795 192.346 16.9395 191.71C16.3995 191.074 15.6675 190.756 14.7435 190.756C13.8195 190.756 13.0815 191.074 12.5295 191.71C11.9895 192.346 11.7195 193.27 11.7195 194.482C11.7195 195.694 11.9895 196.618 12.5295 197.254C13.0815 197.89 13.8195 198.208 14.7435 198.208ZM21.8143 199V191.998C21.8143 191.674 21.8023 191.344 21.7783 191.008C21.7543 190.672 21.7183 190.33 21.6703 189.982H22.7503L22.9123 192.052H22.6963C22.9243 191.344 23.3023 190.798 23.8303 190.414C24.3583 190.018 25.0003 189.82 25.7563 189.82C26.5243 189.82 27.1483 190.006 27.6283 190.378C28.1083 190.75 28.4263 191.326 28.5823 192.106H28.3123C28.5283 191.41 28.9243 190.858 29.5003 190.45C30.0763 190.03 30.7543 189.82 31.5343 189.82C32.5183 189.82 33.2623 190.102 33.7663 190.666C34.2703 191.23 34.5223 192.112 34.5223 193.312V199H33.4243V193.384C33.4243 192.472 33.2623 191.812 32.9383 191.404C32.6143 190.984 32.0863 190.774 31.3543 190.774C30.5383 190.774 29.8903 191.05 29.4103 191.602C28.9423 192.154 28.7083 192.898 28.7083 193.834V199H27.6103V193.384C27.6103 192.472 27.4483 191.812 27.1243 191.404C26.8003 190.984 26.2783 190.774 25.5583 190.774C24.7423 190.774 24.0943 191.05 23.6143 191.602C23.1463 192.154 22.9123 192.898 22.9123 193.834V199H21.8143ZM37.4588 199V189.982H38.5568V199H37.4588ZM37.2788 187.768V186.4H38.7548V187.768H37.2788ZM41.5545 199V185.752H42.6525V199H41.5545ZM45.2363 203.086L44.9663 202.132C45.5303 202 45.9983 201.838 46.3703 201.646C46.7423 201.466 47.0543 201.226 47.3063 200.926C47.5583 200.626 47.7803 200.254 47.9723 199.81L48.4403 198.73L48.4223 199.216L44.4803 189.982H45.7043L49.1423 198.316H48.6923L52.0943 189.982H53.2823L49.1063 199.864C48.8783 200.416 48.6263 200.872 48.3503 201.232C48.0863 201.604 47.7983 201.91 47.4863 202.15C47.1743 202.402 46.8323 202.6 46.4603 202.744C46.0883 202.888 45.6803 203.002 45.2363 203.086ZM59.8752 199V186.31H60.9912V192.07H69.1452V186.31H70.2612V199H69.1452V193.06H60.9912V199H59.8752ZM76.9701 199.144C76.1181 199.144 75.3801 198.958 74.7561 198.586C74.1441 198.214 73.6701 197.68 73.3341 196.984C72.9981 196.288 72.8301 195.454 72.8301 194.482C72.8301 193.522 72.9981 192.694 73.3341 191.998C73.6701 191.302 74.1441 190.768 74.7561 190.396C75.3801 190.012 76.1181 189.82 76.9701 189.82C77.8101 189.82 78.5361 190.012 79.1481 190.396C79.7721 190.768 80.2521 191.302 80.5881 191.998C80.9361 192.694 81.1101 193.522 81.1101 194.482C81.1101 195.454 80.9361 196.288 80.5881 196.984C80.2521 197.68 79.7721 198.214 79.1481 198.586C78.5361 198.958 77.8101 199.144 76.9701 199.144ZM76.9701 198.208C77.8821 198.208 78.6141 197.89 79.1661 197.254C79.7181 196.618 79.9941 195.694 79.9941 194.482C79.9941 193.27 79.7181 192.346 79.1661 191.71C78.6141 191.074 77.8821 190.756 76.9701 190.756C76.0461 190.756 75.3081 191.074 74.7561 191.71C74.2161 192.346 73.9461 193.27 73.9461 194.482C73.9461 195.694 74.2161 196.618 74.7561 197.254C75.3081 197.89 76.0461 198.208 76.9701 198.208ZM83.5135 199V185.752H84.6115V199H83.5135ZM87.6092 199V189.982H88.7072V199H87.6092ZM87.4292 187.768V186.4H88.9052V187.768H87.4292ZM95.1069 199.144C94.3029 199.144 93.6009 198.958 93.0009 198.586C92.4009 198.214 91.9389 197.68 91.6149 196.984C91.2909 196.288 91.1289 195.454 91.1289 194.482C91.1289 193.51 91.2909 192.682 91.6149 191.998C91.9389 191.302 92.4009 190.768 93.0009 190.396C93.6009 190.012 94.3029 189.82 95.1069 189.82C95.9349 189.82 96.6489 190.036 97.2489 190.468C97.8609 190.888 98.2689 191.47 98.4729 192.214H98.2569V185.752H99.3549V199H98.2749V196.732H98.4729C98.2689 197.488 97.8609 198.082 97.2489 198.514C96.6489 198.934 95.9349 199.144 95.1069 199.144ZM95.2509 198.208C96.1629 198.208 96.8949 197.89 97.4469 197.254C98.0109 196.618 98.2929 195.694 98.2929 194.482C98.2929 193.27 98.0109 192.346 97.4469 191.71C96.8949 191.074 96.1629 190.756 95.2509 190.756C94.3389 190.756 93.6069 191.074 93.0549 191.71C92.5149 192.346 92.2449 193.27 92.2449 194.482C92.2449 195.694 92.5149 196.618 93.0549 197.254C93.6069 197.89 94.3389 198.208 95.2509 198.208ZM105.76 199.144C104.944 199.144 104.236 198.958 103.636 198.586C103.036 198.214 102.574 197.68 102.25 196.984C101.926 196.288 101.764 195.454 101.764 194.482C101.764 193.51 101.926 192.682 102.25 191.998C102.586 191.302 103.054 190.768 103.654 190.396C104.254 190.012 104.956 189.82 105.76 189.82C106.588 189.82 107.302 190.036 107.902 190.468C108.514 190.9 108.916 191.488 109.108 192.232H108.892L109.072 189.982H110.134C110.098 190.33 110.062 190.672 110.026 191.008C110.002 191.344 109.99 191.674 109.99 191.998V199H108.892V196.75H109.09C108.898 197.494 108.496 198.082 107.884 198.514C107.284 198.934 106.576 199.144 105.76 199.144ZM105.904 198.208C106.828 198.208 107.56 197.89 108.1 197.254C108.64 196.618 108.91 195.694 108.91 194.482C108.91 193.27 108.64 192.346 108.1 191.71C107.56 191.074 106.828 190.756 105.904 190.756C104.98 190.756 104.242 191.074 103.69 191.71C103.15 192.346 102.88 193.27 102.88 194.482C102.88 195.694 103.15 196.618 103.69 197.254C104.242 197.89 104.98 198.208 105.904 198.208ZM112.473 203.086L112.203 202.132C112.767 202 113.235 201.838 113.607 201.646C113.979 201.466 114.291 201.226 114.543 200.926C114.795 200.626 115.017 200.254 115.209 199.81L115.677 198.73L115.659 199.216L111.717 189.982H112.941L116.379 198.316H115.929L119.331 189.982H120.519L116.343 199.864C116.115 200.416 115.863 200.872 115.587 201.232C115.323 201.604 115.035 201.91 114.723 202.15C114.411 202.402 114.069 202.6 113.697 202.744C113.325 202.888 112.917 203.002 112.473 203.086ZM125.084 199.144C124.388 199.144 123.734 199.042 123.122 198.838C122.522 198.634 122.024 198.352 121.628 197.992L122.06 197.182C122.504 197.542 122.984 197.812 123.5 197.992C124.016 198.16 124.556 198.244 125.12 198.244C125.888 198.244 126.47 198.1 126.866 197.812C127.262 197.524 127.46 197.134 127.46 196.642C127.46 196.258 127.334 195.946 127.082 195.706C126.83 195.466 126.41 195.286 125.822 195.166L124.202 194.824C123.434 194.644 122.858 194.356 122.474 193.96C122.102 193.564 121.916 193.066 121.916 192.466C121.916 191.95 122.048 191.494 122.312 191.098C122.588 190.702 122.978 190.39 123.482 190.162C123.986 189.934 124.58 189.82 125.264 189.82C125.912 189.82 126.506 189.928 127.046 190.144C127.598 190.348 128.048 190.642 128.396 191.026L127.928 191.818C127.568 191.458 127.16 191.188 126.704 191.008C126.26 190.828 125.786 190.738 125.282 190.738C124.538 190.738 123.974 190.894 123.59 191.206C123.206 191.506 123.014 191.908 123.014 192.412C123.014 192.796 123.134 193.114 123.374 193.366C123.614 193.606 123.992 193.786 124.508 193.906L126.128 194.266C126.944 194.446 127.55 194.722 127.946 195.094C128.342 195.466 128.54 195.958 128.54 196.57C128.54 197.098 128.396 197.56 128.108 197.956C127.82 198.34 127.418 198.634 126.902 198.838C126.386 199.042 125.78 199.144 125.084 199.144ZM1.674 237V224.31H9.378V225.264H2.79V230.106H9V231.06H2.79V237H1.674ZM14.7435 237.144C13.8915 237.144 13.1535 236.958 12.5295 236.586C11.9175 236.214 11.4435 235.68 11.1075 234.984C10.7715 234.288 10.6035 233.454 10.6035 232.482C10.6035 231.522 10.7715 230.694 11.1075 229.998C11.4435 229.302 11.9175 228.768 12.5295 228.396C13.1535 228.012 13.8915 227.82 14.7435 227.82C15.5835 227.82 16.3095 228.012 16.9215 228.396C17.5455 228.768 18.0255 229.302 18.3615 229.998C18.7095 230.694 18.8835 231.522 18.8835 232.482C18.8835 233.454 18.7095 234.288 18.3615 234.984C18.0255 235.68 17.5455 236.214 16.9215 236.586C16.3095 236.958 15.5835 237.144 14.7435 237.144ZM14.7435 236.208C15.6555 236.208 16.3875 235.89 16.9395 235.254C17.4915 234.618 17.7675 233.694 17.7675 232.482C17.7675 231.27 17.4915 230.346 16.9395 229.71C16.3875 229.074 15.6555 228.756 14.7435 228.756C13.8195 228.756 13.0815 229.074 12.5295 229.71C11.9895 230.346 11.7195 231.27 11.7195 232.482C11.7195 233.694 11.9895 234.618 12.5295 235.254C13.0815 235.89 13.8195 236.208 14.7435 236.208ZM24.851 237.144C23.999 237.144 23.261 236.958 22.637 236.586C22.025 236.214 21.551 235.68 21.215 234.984C20.879 234.288 20.711 233.454 20.711 232.482C20.711 231.522 20.879 230.694 21.215 229.998C21.551 229.302 22.025 228.768 22.637 228.396C23.261 228.012 23.999 227.82 24.851 227.82C25.691 227.82 26.417 228.012 27.029 228.396C27.653 228.768 28.133 229.302 28.469 229.998C28.817 230.694 28.991 231.522 28.991 232.482C28.991 233.454 28.817 234.288 28.469 234.984C28.133 235.68 27.653 236.214 27.029 236.586C26.417 236.958 25.691 237.144 24.851 237.144ZM24.851 236.208C25.763 236.208 26.495 235.89 27.047 235.254C27.599 234.618 27.875 233.694 27.875 232.482C27.875 231.27 27.599 230.346 27.047 229.71C26.495 229.074 25.763 228.756 24.851 228.756C23.927 228.756 23.189 229.074 22.637 229.71C22.097 230.346 21.827 231.27 21.827 232.482C21.827 233.694 22.097 234.618 22.637 235.254C23.189 235.89 23.927 236.208 24.851 236.208ZM34.7964 237.144C33.9924 237.144 33.2904 236.958 32.6904 236.586C32.0904 236.214 31.6284 235.68 31.3044 234.984C30.9804 234.288 30.8184 233.454 30.8184 232.482C30.8184 231.51 30.9804 230.682 31.3044 229.998C31.6284 229.302 32.0904 228.768 32.6904 228.396C33.2904 228.012 33.9924 227.82 34.7964 227.82C35.6244 227.82 36.3384 228.036 36.9384 228.468C37.5504 228.888 37.9584 229.47 38.1624 230.214H37.9464V223.752H39.0444V237H37.9644V234.732H38.1624C37.9584 235.488 37.5504 236.082 36.9384 236.514C36.3384 236.934 35.6244 237.144 34.7964 237.144ZM34.9404 236.208C35.8524 236.208 36.5844 235.89 37.1364 235.254C37.7004 234.618 37.9824 233.694 37.9824 232.482C37.9824 231.27 37.7004 230.346 37.1364 229.71C36.5844 229.074 35.8524 228.756 34.9404 228.756C34.0284 228.756 33.2964 229.074 32.7444 229.71C32.2044 230.346 31.9344 231.27 31.9344 232.482C31.9344 233.694 32.2044 234.618 32.7444 235.254C33.2964 235.89 34.0284 236.208 34.9404 236.208ZM45.591 237L51.117 224.31H52.125L57.741 237H56.571L54.987 233.346L55.509 233.616H47.697L48.309 233.346L46.761 237H45.591ZM51.603 225.66L48.525 232.878L48.111 232.662H55.095L54.789 232.878L51.639 225.66H51.603ZM59.7128 237V229.998C59.7128 229.674 59.7008 229.344 59.6768 229.008C59.6528 228.672 59.6168 228.33 59.5688 227.982H60.6488L60.8108 230.052H60.5947C60.8588 229.332 61.2848 228.78 61.8728 228.396C62.4608 228.012 63.1448 227.82 63.9248 227.82C64.9928 227.82 65.7968 228.102 66.3368 228.666C66.8888 229.23 67.1648 230.112 67.1648 231.312V237H66.0668V231.402C66.0668 230.478 65.8808 229.812 65.5088 229.404C65.1368 228.984 64.5608 228.774 63.7808 228.774C62.8688 228.774 62.1428 229.05 61.6028 229.602C61.0748 230.154 60.8108 230.898 60.8108 231.834V237H59.7128ZM73.521 237.144C72.717 237.144 72.015 236.958 71.415 236.586C70.815 236.214 70.353 235.68 70.029 234.984C69.705 234.288 69.543 233.454 69.543 232.482C69.543 231.51 69.705 230.682 70.029 229.998C70.353 229.302 70.815 228.768 71.415 228.396C72.015 228.012 72.717 227.82 73.521 227.82C74.349 227.82 75.063 228.036 75.663 228.468C76.275 228.888 76.683 229.47 76.887 230.214H76.671V223.752H77.769V237H76.689V234.732H76.887C76.683 235.488 76.275 236.082 75.663 236.514C75.063 236.934 74.349 237.144 73.521 237.144ZM73.665 236.208C74.577 236.208 75.309 235.89 75.861 235.254C76.425 234.618 76.707 233.694 76.707 232.482C76.707 231.27 76.425 230.346 75.861 229.71C75.309 229.074 74.577 228.756 73.665 228.756C72.753 228.756 72.021 229.074 71.469 229.71C70.929 230.346 70.659 231.27 70.659 232.482C70.659 233.694 70.929 234.618 71.469 235.254C72.021 235.89 72.753 236.208 73.665 236.208ZM85.5217 237V224.31H89.5357C90.9277 224.31 92.1037 224.556 93.0637 225.048C94.0237 225.528 94.7497 226.242 95.2417 227.19C95.7457 228.126 95.9977 229.278 95.9977 230.646C95.9977 232.014 95.7457 233.172 95.2417 234.12C94.7497 235.068 94.0237 235.788 93.0637 236.28C92.1037 236.76 90.9277 237 89.5357 237H85.5217ZM86.6377 236.01H89.4457C91.2577 236.01 92.6077 235.566 93.4957 234.678C94.3837 233.778 94.8277 232.434 94.8277 230.646C94.8277 228.846 94.3837 227.502 93.4957 226.614C92.6077 225.726 91.2577 225.282 89.4457 225.282H86.6377V236.01ZM98.6479 237V230.088C98.6479 229.74 98.6359 229.392 98.6119 229.044C98.5999 228.684 98.5699 228.33 98.5219 227.982H99.6019L99.7459 230.052L99.5299 230.07C99.6499 229.566 99.8659 229.152 100.178 228.828C100.49 228.492 100.85 228.24 101.258 228.072C101.666 227.904 102.086 227.82 102.518 227.82C102.674 227.82 102.818 227.832 102.95 227.856C103.094 227.868 103.226 227.892 103.346 227.928L103.31 228.918C103.166 228.87 103.022 228.84 102.878 228.828C102.734 228.816 102.578 228.81 102.41 228.81C101.87 228.81 101.396 228.942 100.988 229.206C100.592 229.47 100.286 229.806 100.07 230.214C99.8539 230.622 99.7459 231.036 99.7459 231.456V237H98.6479ZM104.941 237V227.982H106.039V237H104.941ZM104.761 225.768V224.4H106.237V225.768H104.761ZM109.037 237V229.998C109.037 229.674 109.025 229.344 109.001 229.008C108.977 228.672 108.941 228.33 108.893 227.982H109.973L110.135 230.052H109.919C110.183 229.332 110.609 228.78 111.197 228.396C111.785 228.012 112.469 227.82 113.249 227.82C114.317 227.82 115.121 228.102 115.661 228.666C116.213 229.23 116.489 230.112 116.489 231.312V237H115.391V231.402C115.391 230.478 115.205 229.812 114.833 229.404C114.461 228.984 113.885 228.774 113.105 228.774C112.193 228.774 111.467 229.05 110.927 229.602C110.399 230.154 110.135 230.898 110.135 231.834V237H109.037ZM119.443 237V223.752H120.541V232.068H120.577L125.023 227.982H126.445L121.333 232.68L121.387 232.014L126.985 237H125.491L120.577 232.662H120.541V237H119.443Z" fill="#848484"/>
<path d="M1.463 23.472H3.914V37H1.463V23.472ZM12.1639 27.158C14.4565 27.158 15.6029 28.4753 15.6029 31.11V37H13.2279V31.224C13.2279 30.464 13.0822 29.913 12.7909 29.571C12.4995 29.2163 12.0499 29.039 11.4419 29.039C10.7199 29.039 10.1372 29.2733 9.69386 29.742C9.25053 30.198 9.02886 30.806 9.02886 31.566V37H6.67286V30.122C6.67286 29.1087 6.62219 28.203 6.52086 27.405H8.74386L8.91486 28.982C9.24419 28.3993 9.68753 27.9497 10.2449 27.633C10.8149 27.3163 11.4545 27.158 12.1639 27.158ZM21.1421 29.191V33.485C21.1421 34.6123 21.6678 35.176 22.7191 35.176C23.0104 35.176 23.3271 35.1253 23.6691 35.024V36.905C23.2511 37.057 22.7444 37.133 22.1491 37.133C21.0598 37.133 20.2238 36.829 19.6411 36.221C19.0584 35.613 18.7671 34.739 18.7671 33.599V29.191H16.9241V27.405H18.7671V25.068L21.1421 24.27V27.405H23.6881V29.191H21.1421ZM33.7183 32.326H27.1063C27.157 33.352 27.4103 34.112 27.8663 34.606C28.335 35.0873 29.0253 35.328 29.9373 35.328C30.9887 35.328 31.964 34.986 32.8633 34.302L33.5473 35.936C33.0913 36.3033 32.5277 36.601 31.8563 36.829C31.1977 37.0443 30.5263 37.152 29.8423 37.152C28.2717 37.152 27.0367 36.7087 26.1373 35.822C25.238 34.9353 24.7883 33.7193 24.7883 32.174C24.7883 31.1987 24.9847 30.331 25.3773 29.571C25.77 28.811 26.321 28.222 27.0303 27.804C27.7397 27.3733 28.544 27.158 29.4433 27.158C30.7607 27.158 31.7993 27.5887 32.5593 28.45C33.332 29.2987 33.7183 30.4703 33.7183 31.965V32.326ZM29.5003 28.868C28.867 28.868 28.3477 29.058 27.9423 29.438C27.5497 29.8053 27.2963 30.3437 27.1823 31.053H31.6473C31.5713 30.331 31.3497 29.7863 30.9823 29.419C30.6277 29.0517 30.1337 28.868 29.5003 28.868ZM40.8975 27.177C41.2648 27.177 41.5815 27.2277 41.8475 27.329L41.8285 29.495C41.4232 29.3303 41.0052 29.248 40.5745 29.248C39.7638 29.248 39.1432 29.4823 38.7125 29.951C38.2945 30.4197 38.0855 31.0403 38.0855 31.813V37H35.7295V30.122C35.7295 29.1087 35.6788 28.203 35.5775 27.405H37.8005L37.9905 29.096C38.2312 28.4753 38.6112 28.0003 39.1305 27.671C39.6498 27.3417 40.2388 27.177 40.8975 27.177ZM51.3824 32.326H44.7704C44.821 33.352 45.0744 34.112 45.5304 34.606C45.999 35.0873 46.6894 35.328 47.6014 35.328C48.6527 35.328 49.628 34.986 50.5274 34.302L51.2114 35.936C50.7554 36.3033 50.1917 36.601 49.5204 36.829C48.8617 37.0443 48.1904 37.152 47.5064 37.152C45.9357 37.152 44.7007 36.7087 43.8014 35.822C42.902 34.9353 42.4524 33.7193 42.4524 32.174C42.4524 31.1987 42.6487 30.331 43.0414 29.571C43.434 28.811 43.985 28.222 44.6944 27.804C45.4037 27.3733 46.208 27.158 47.1074 27.158C48.4247 27.158 49.4634 27.5887 50.2234 28.45C50.9961 29.2987 51.3824 30.4703 51.3824 31.965V32.326ZM47.1644 28.868C46.531 28.868 46.0117 29.058 45.6064 29.438C45.2137 29.8053 44.9604 30.3437 44.8464 31.053H49.3114C49.2354 30.331 49.0137 29.7863 48.6464 29.419C48.2917 29.0517 47.7977 28.868 47.1644 28.868ZM56.9086 37.152C55.1732 37.152 53.7926 36.7467 52.7666 35.936L53.4316 34.264C54.4576 35.024 55.6292 35.404 56.9466 35.404C57.5166 35.404 57.9536 35.309 58.2576 35.119C58.5742 34.929 58.7326 34.663 58.7326 34.321C58.7326 34.0297 58.6249 33.8017 58.4096 33.637C58.1942 33.4597 57.8269 33.3077 57.3076 33.181L55.7116 32.82C53.9636 32.44 53.0896 31.547 53.0896 30.141C53.0896 29.5583 53.2542 29.0453 53.5836 28.602C53.9129 28.146 54.3752 27.7913 54.9706 27.538C55.5659 27.2847 56.2562 27.158 57.0416 27.158C57.7256 27.158 58.3842 27.2657 59.0176 27.481C59.6509 27.6837 60.2082 27.9813 60.6896 28.374L59.9866 29.989C59.0239 29.2797 58.0359 28.925 57.0226 28.925C56.4779 28.925 56.0536 29.0263 55.7496 29.229C55.4456 29.4317 55.2936 29.7103 55.2936 30.065C55.2936 30.3437 55.3822 30.5653 55.5596 30.73C55.7496 30.8947 56.0662 31.034 56.5096 31.148L58.1436 31.509C59.0936 31.7243 59.7839 32.06 60.2146 32.516C60.6579 32.9593 60.8796 33.542 60.8796 34.264C60.8796 35.1507 60.5249 35.8537 59.8156 36.373C59.1062 36.8923 58.1372 37.152 56.9086 37.152ZM65.8403 29.191V33.485C65.8403 34.6123 66.366 35.176 67.4173 35.176C67.7087 35.176 68.0253 35.1253 68.3673 35.024V36.905C67.9493 37.057 67.4427 37.133 66.8473 37.133C65.758 37.133 64.922 36.829 64.3393 36.221C63.7567 35.613 63.4653 34.739 63.4653 33.599V29.191H61.6223V27.405H63.4653V25.068L65.8403 24.27V27.405H68.3863V29.191H65.8403ZM73.5336 37.152C71.7982 37.152 70.4176 36.7467 69.3916 35.936L70.0566 34.264C71.0826 35.024 72.2542 35.404 73.5716 35.404C74.1416 35.404 74.5786 35.309 74.8826 35.119C75.1992 34.929 75.3576 34.663 75.3576 34.321C75.3576 34.0297 75.2499 33.8017 75.0346 33.637C74.8192 33.4597 74.4519 33.3077 73.9326 33.181L72.3366 32.82C70.5886 32.44 69.7146 31.547 69.7146 30.141C69.7146 29.5583 69.8792 29.0453 70.2086 28.602C70.5379 28.146 71.0002 27.7913 71.5956 27.538C72.1909 27.2847 72.8812 27.158 73.6666 27.158C74.3506 27.158 75.0092 27.2657 75.6426 27.481C76.2759 27.6837 76.8332 27.9813 77.3146 28.374L76.6116 29.989C75.6489 29.2797 74.6609 28.925 73.6476 28.925C73.1029 28.925 72.6786 29.0263 72.3746 29.229C72.0706 29.4317 71.9186 29.7103 71.9186 30.065C71.9186 30.3437 72.0072 30.5653 72.1846 30.73C72.3746 30.8947 72.6912 31.034 73.1346 31.148L74.7686 31.509C75.7186 31.7243 76.4089 32.06 76.8396 32.516C77.2829 32.9593 77.5046 33.542 77.5046 34.264C77.5046 35.1507 77.1499 35.8537 76.4406 36.373C75.7312 36.8923 74.7622 37.152 73.5336 37.152Z" fill="black"/>
</svg>
