<svg width="391" height="287" viewBox="0 0 391 287" fill="none" xmlns="http://www.w3.org/2000/svg">
<path d="M1.656 72.184H5.778C7.818 72.184 9.39 72.736 10.494 73.84C11.598 74.944 12.15 76.522 12.15 78.574C12.15 80.626 11.592 82.21 10.476 83.326C9.372 84.442 7.806 85 5.778 85H1.656V72.184ZM5.724 84.028C7.464 84.028 8.772 83.572 9.648 82.66C10.524 81.736 10.962 80.374 10.962 78.574C10.962 74.962 9.216 73.156 5.724 73.156H2.772V84.028H5.724ZM15.3766 80.356V80.41C15.3766 81.622 15.6526 82.552 16.2046 83.2C16.7686 83.836 17.5846 84.154 18.6526 84.154C19.7326 84.154 20.7226 83.782 21.6226 83.038L22.0546 83.902C21.6586 84.274 21.1546 84.574 20.5426 84.802C19.9306 85.018 19.3006 85.126 18.6526 85.126C17.2846 85.126 16.2046 84.712 15.4126 83.884C14.6206 83.056 14.2246 81.916 14.2246 80.464C14.2246 79.54 14.3986 78.724 14.7466 78.016C15.1066 77.296 15.6046 76.744 16.2406 76.36C16.8766 75.964 17.6086 75.766 18.4366 75.766C19.6246 75.766 20.5486 76.15 21.2086 76.918C21.8806 77.686 22.2166 78.754 22.2166 80.122V80.356H15.3766ZM18.4366 76.666C17.6086 76.666 16.9366 76.918 16.4206 77.422C15.9046 77.914 15.5806 78.61 15.4486 79.51H21.1726C21.1006 78.586 20.8306 77.884 20.3626 77.404C19.8946 76.912 19.2526 76.666 18.4366 76.666ZM27.5081 85.126C26.0441 85.126 24.8861 84.724 24.0341 83.92L24.4301 83.074C24.9101 83.47 25.3901 83.752 25.8701 83.92C26.3621 84.088 26.9261 84.172 27.5621 84.172C28.3061 84.172 28.8701 84.046 29.2541 83.794C29.6501 83.53 29.8481 83.152 29.8481 82.66C29.8481 82.252 29.7161 81.934 29.4521 81.706C29.2001 81.466 28.7801 81.274 28.1921 81.13L26.6621 80.788C25.9421 80.62 25.3721 80.32 24.9521 79.888C24.5441 79.456 24.3401 78.952 24.3401 78.376C24.3401 77.584 24.6401 76.954 25.2401 76.486C25.8521 76.006 26.6621 75.766 27.6701 75.766C28.3061 75.766 28.8941 75.868 29.4341 76.072C29.9861 76.276 30.4421 76.57 30.8021 76.954L30.3881 77.8C29.5601 77.08 28.6541 76.72 27.6701 76.72C26.9741 76.72 26.4341 76.858 26.0501 77.134C25.6661 77.41 25.4741 77.794 25.4741 78.286C25.4741 78.694 25.5941 79.024 25.8341 79.276C26.0861 79.528 26.4701 79.714 26.9861 79.834L28.5341 80.212C30.1541 80.572 30.9641 81.37 30.9641 82.606C30.9641 83.362 30.6521 83.974 30.0281 84.442C29.4041 84.898 28.5641 85.126 27.5081 85.126ZM34.9107 76.864V82.228C34.9107 82.948 35.0487 83.446 35.3247 83.722C35.6007 83.998 36.0087 84.136 36.5487 84.136C36.8847 84.136 37.2087 84.082 37.5207 83.974V84.964C37.1367 85.06 36.7467 85.108 36.3507 85.108C35.5587 85.108 34.9347 84.886 34.4787 84.442C34.0347 83.998 33.8127 83.332 33.8127 82.444V76.864H32.0307V75.982H33.8127V73.588L34.9107 73.174V75.982H37.5747V76.864H34.9107ZM39.4452 75.982H40.5252V85H39.4452V75.982ZM40.7412 72.256V73.66H39.2832V72.256H40.7412ZM47.7349 75.766C49.9069 75.766 50.9929 76.93 50.9929 79.258V85H49.8949V79.33C49.8949 78.43 49.7089 77.77 49.3369 77.35C48.9769 76.93 48.4069 76.72 47.6269 76.72C46.7269 76.72 46.0009 76.996 45.4489 77.548C44.8969 78.1 44.6209 78.844 44.6209 79.78V85H43.5409V78.484C43.5409 77.548 43.4929 76.714 43.3969 75.982H44.4409L44.5849 77.638C44.8609 77.026 45.2749 76.564 45.8269 76.252C46.3789 75.928 47.0149 75.766 47.7349 75.766ZM61.5971 75.982V85H60.4991V83.272C60.2351 83.872 59.8331 84.334 59.2931 84.658C58.7651 84.97 58.1291 85.126 57.3851 85.126C56.5811 85.126 55.8731 84.94 55.2611 84.568C54.6611 84.184 54.1931 83.644 53.8571 82.948C53.5331 82.24 53.3711 81.418 53.3711 80.482C53.3711 79.546 53.5391 78.724 53.8751 78.016C54.2111 77.296 54.6791 76.744 55.2791 76.36C55.8911 75.964 56.5931 75.766 57.3851 75.766C58.1171 75.766 58.7471 75.922 59.2751 76.234C59.8151 76.546 60.2231 77.002 60.4991 77.602V75.982H61.5971ZM57.5471 84.154C58.4831 84.154 59.2091 83.83 59.7251 83.182C60.2411 82.534 60.4991 81.622 60.4991 80.446C60.4991 79.258 60.2411 78.34 59.7251 77.692C59.2091 77.044 58.4771 76.72 57.5291 76.72C56.5811 76.72 55.8431 77.056 55.3151 77.728C54.7871 78.388 54.5231 79.306 54.5231 80.482C54.5231 81.646 54.7871 82.552 55.3151 83.2C55.8431 83.836 56.5871 84.154 57.5471 84.154ZM66.1119 76.864V82.228C66.1119 82.948 66.2499 83.446 66.5259 83.722C66.8019 83.998 67.2099 84.136 67.7499 84.136C68.0859 84.136 68.4099 84.082 68.7219 83.974V84.964C68.3379 85.06 67.9479 85.108 67.5519 85.108C66.7599 85.108 66.1359 84.886 65.6799 84.442C65.2359 83.998 65.0139 83.332 65.0139 82.444V76.864H63.2319V75.982H65.0139V73.588L66.1119 73.174V75.982H68.7759V76.864H66.1119ZM70.6463 75.982H71.7263V85H70.6463V75.982ZM71.9423 72.256V73.66H70.4843V72.256H71.9423ZM78.324 85.126C77.496 85.126 76.764 84.934 76.128 84.55C75.504 84.166 75.018 83.62 74.67 82.912C74.334 82.204 74.166 81.382 74.166 80.446C74.166 79.51 74.334 78.688 74.67 77.98C75.018 77.272 75.504 76.726 76.128 76.342C76.764 75.958 77.496 75.766 78.324 75.766C79.14 75.766 79.86 75.958 80.484 76.342C81.108 76.726 81.588 77.272 81.924 77.98C82.272 78.688 82.446 79.51 82.446 80.446C82.446 81.382 82.272 82.204 81.924 82.912C81.588 83.62 81.108 84.166 80.484 84.55C79.86 84.934 79.14 85.126 78.324 85.126ZM78.306 84.154C79.266 84.154 80.004 83.836 80.52 83.2C81.048 82.552 81.312 81.634 81.312 80.446C81.312 79.27 81.048 78.358 80.52 77.71C79.992 77.05 79.26 76.72 78.324 76.72C77.376 76.72 76.638 77.05 76.11 77.71C75.582 78.358 75.318 79.27 75.318 80.446C75.318 81.646 75.576 82.564 76.092 83.2C76.608 83.836 77.346 84.154 78.306 84.154ZM89.0435 75.766C91.2155 75.766 92.3015 76.93 92.3015 79.258V85H91.2035V79.33C91.2035 78.43 91.0175 77.77 90.6455 77.35C90.2855 76.93 89.7155 76.72 88.9355 76.72C88.0355 76.72 87.3095 76.996 86.7575 77.548C86.2055 78.1 85.9295 78.844 85.9295 79.78V85H84.8495V78.484C84.8495 77.548 84.8015 76.714 84.7055 75.982H85.7495L85.8935 77.638C86.1695 77.026 86.5835 76.564 87.1355 76.252C87.6875 75.928 88.3235 75.766 89.0435 75.766ZM109.906 78.43V84.28C109.438 84.532 108.796 84.742 107.98 84.91C107.164 85.066 106.342 85.144 105.514 85.144C104.266 85.144 103.192 84.886 102.292 84.37C101.392 83.842 100.702 83.086 100.222 82.102C99.7536 81.118 99.5196 79.942 99.5196 78.574C99.5196 77.218 99.7536 76.048 100.222 75.064C100.702 74.08 101.386 73.33 102.274 72.814C103.162 72.298 104.212 72.04 105.424 72.04C107.236 72.04 108.688 72.598 109.78 73.714L109.312 74.596C108.7 74.044 108.082 73.648 107.458 73.408C106.846 73.156 106.162 73.03 105.406 73.03C103.894 73.03 102.724 73.51 101.896 74.47C101.08 75.43 100.672 76.798 100.672 78.574C100.672 80.386 101.086 81.772 101.914 82.732C102.754 83.692 103.96 84.172 105.532 84.172C106.744 84.172 107.866 83.974 108.898 83.578V79.384H105.514V78.43H109.906ZM120.158 75.982V85H119.096V83.362C118.808 83.938 118.4 84.376 117.872 84.676C117.344 84.976 116.738 85.126 116.054 85.126C114.998 85.126 114.2 84.832 113.66 84.244C113.12 83.656 112.85 82.786 112.85 81.634V75.982H113.93V81.562C113.93 82.45 114.11 83.104 114.47 83.524C114.83 83.944 115.388 84.154 116.144 84.154C117.032 84.154 117.74 83.878 118.268 83.326C118.796 82.762 119.06 82.018 119.06 81.094V75.982H120.158ZM123.152 75.982H124.232V85H123.152V75.982ZM124.448 72.256V73.66H122.99V72.256H124.448ZM134.898 71.752V85H133.8V83.272C133.536 83.872 133.134 84.334 132.594 84.658C132.066 84.97 131.43 85.126 130.686 85.126C129.894 85.126 129.192 84.934 128.58 84.55C127.98 84.154 127.512 83.602 127.176 82.894C126.84 82.174 126.672 81.346 126.672 80.41C126.672 79.474 126.834 78.658 127.158 77.962C127.494 77.254 127.962 76.714 128.562 76.342C129.174 75.958 129.882 75.766 130.686 75.766C131.418 75.766 132.048 75.922 132.576 76.234C133.116 76.546 133.524 77.002 133.8 77.602V71.752H134.898ZM130.83 84.154C131.778 84.154 132.51 83.83 133.026 83.182C133.542 82.534 133.8 81.622 133.8 80.446C133.8 79.27 133.542 78.358 133.026 77.71C132.51 77.05 131.784 76.72 130.848 76.72C129.888 76.72 129.144 77.044 128.616 77.692C128.088 78.34 127.824 79.246 127.824 80.41C127.824 81.586 128.088 82.504 128.616 83.164C129.144 83.824 129.882 84.154 130.83 84.154ZM138.459 80.356V80.41C138.459 81.622 138.735 82.552 139.287 83.2C139.851 83.836 140.667 84.154 141.735 84.154C142.815 84.154 143.805 83.782 144.705 83.038L145.137 83.902C144.741 84.274 144.237 84.574 143.625 84.802C143.013 85.018 142.383 85.126 141.735 85.126C140.367 85.126 139.287 84.712 138.495 83.884C137.703 83.056 137.307 81.916 137.307 80.464C137.307 79.54 137.481 78.724 137.829 78.016C138.189 77.296 138.687 76.744 139.323 76.36C139.959 75.964 140.691 75.766 141.519 75.766C142.707 75.766 143.631 76.15 144.291 76.918C144.963 77.686 145.299 78.754 145.299 80.122V80.356H138.459ZM141.519 76.666C140.691 76.666 140.019 76.918 139.503 77.422C138.987 77.914 138.663 78.61 138.531 79.51H144.255C144.183 78.586 143.913 77.884 143.445 77.404C142.977 76.912 142.335 76.666 141.519 76.666ZM150.59 85.126C149.126 85.126 147.968 84.724 147.116 83.92L147.512 83.074C147.992 83.47 148.472 83.752 148.952 83.92C149.444 84.088 150.008 84.172 150.644 84.172C151.388 84.172 151.952 84.046 152.336 83.794C152.732 83.53 152.93 83.152 152.93 82.66C152.93 82.252 152.798 81.934 152.534 81.706C152.282 81.466 151.862 81.274 151.274 81.13L149.744 80.788C149.024 80.62 148.454 80.32 148.034 79.888C147.626 79.456 147.422 78.952 147.422 78.376C147.422 77.584 147.722 76.954 148.322 76.486C148.934 76.006 149.744 75.766 150.752 75.766C151.388 75.766 151.976 75.868 152.516 76.072C153.068 76.276 153.524 76.57 153.884 76.954L153.47 77.8C152.642 77.08 151.736 76.72 150.752 76.72C150.056 76.72 149.516 76.858 149.132 77.134C148.748 77.41 148.556 77.794 148.556 78.286C148.556 78.694 148.676 79.024 148.916 79.276C149.168 79.528 149.552 79.714 150.068 79.834L151.616 80.212C153.236 80.572 154.046 81.37 154.046 82.606C154.046 83.362 153.734 83.974 153.11 84.442C152.486 84.898 151.646 85.126 150.59 85.126ZM1.656 110.184H6.588C7.872 110.184 8.88 110.496 9.612 111.12C10.344 111.744 10.71 112.602 10.71 113.694C10.71 114.798 10.338 115.668 9.594 116.304C8.862 116.928 7.86 117.24 6.588 117.24H2.772V123H1.656V110.184ZM6.516 116.268C7.524 116.268 8.286 116.046 8.802 115.602C9.318 115.158 9.576 114.522 9.576 113.694C9.576 112.878 9.318 112.248 8.802 111.804C8.286 111.36 7.524 111.138 6.516 111.138H2.772V116.268H6.516ZM13.078 113.982H14.158V123H13.078V113.982ZM14.374 110.256V111.66H12.916V110.256H14.374ZM20.8277 123.126C19.9757 123.126 19.2317 122.934 18.5957 122.55C17.9597 122.166 17.4677 121.626 17.1197 120.93C16.7717 120.222 16.5977 119.406 16.5977 118.482C16.5977 117.546 16.7717 116.724 17.1197 116.016C17.4677 115.296 17.9657 114.744 18.6137 114.36C19.2617 113.964 20.0117 113.766 20.8637 113.766C21.4757 113.766 22.0577 113.874 22.6097 114.09C23.1737 114.294 23.6357 114.582 23.9957 114.954L23.5637 115.818C23.0957 115.434 22.6457 115.158 22.2137 114.99C21.7937 114.81 21.3557 114.72 20.8997 114.72C19.9277 114.72 19.1597 115.056 18.5957 115.728C18.0317 116.388 17.7497 117.306 17.7497 118.482C17.7497 119.634 18.0257 120.534 18.5777 121.182C19.1417 121.83 19.9157 122.154 20.8997 122.154C21.3557 122.154 21.7937 122.07 22.2137 121.902C22.6457 121.722 23.0957 121.446 23.5637 121.074L23.9957 121.92C23.6117 122.292 23.1317 122.586 22.5557 122.802C21.9917 123.018 21.4157 123.126 20.8277 123.126ZM27.5279 114.864V120.228C27.5279 120.948 27.6659 121.446 27.9419 121.722C28.2179 121.998 28.6259 122.136 29.1659 122.136C29.5019 122.136 29.8259 122.082 30.1379 121.974V122.964C29.7539 123.06 29.3639 123.108 28.9679 123.108C28.1759 123.108 27.5519 122.886 27.0959 122.442C26.6519 121.998 26.4299 121.332 26.4299 120.444V114.864H24.6479V113.982H26.4299V111.588L27.5279 111.174V113.982H30.1919V114.864H27.5279ZM35.6444 123.126C34.8164 123.126 34.0844 122.934 33.4484 122.55C32.8244 122.166 32.3384 121.62 31.9904 120.912C31.6544 120.204 31.4864 119.382 31.4864 118.446C31.4864 117.51 31.6544 116.688 31.9904 115.98C32.3384 115.272 32.8244 114.726 33.4484 114.342C34.0844 113.958 34.8164 113.766 35.6444 113.766C36.4604 113.766 37.1804 113.958 37.8044 114.342C38.4284 114.726 38.9084 115.272 39.2444 115.98C39.5924 116.688 39.7664 117.51 39.7664 118.446C39.7664 119.382 39.5924 120.204 39.2444 120.912C38.9084 121.62 38.4284 122.166 37.8044 122.55C37.1804 122.934 36.4604 123.126 35.6444 123.126ZM35.6264 122.154C36.5864 122.154 37.3244 121.836 37.8404 121.2C38.3684 120.552 38.6324 119.634 38.6324 118.446C38.6324 117.27 38.3684 116.358 37.8404 115.71C37.3124 115.05 36.5804 114.72 35.6444 114.72C34.6964 114.72 33.9584 115.05 33.4304 115.71C32.9024 116.358 32.6384 117.27 32.6384 118.446C32.6384 119.646 32.8964 120.564 33.4124 121.2C33.9284 121.836 34.6664 122.154 35.6264 122.154ZM46.0578 113.766C46.3578 113.766 46.6218 113.79 46.8498 113.838L46.7958 114.828C46.5678 114.78 46.2918 114.756 45.9678 114.756C45.0558 114.756 44.3718 115.05 43.9158 115.638C43.4718 116.214 43.2498 116.904 43.2498 117.708V123H42.1698V116.484C42.1698 115.548 42.1218 114.714 42.0258 113.982H43.0698L43.2138 115.656C43.4418 115.044 43.8078 114.576 44.3118 114.252C44.8278 113.928 45.4098 113.766 46.0578 113.766ZM48.4452 113.982H49.5252V123H48.4452V113.982ZM49.7412 110.256V111.66H48.2832V110.256H49.7412ZM60.1909 113.982V123H59.0929V121.272C58.8289 121.872 58.4269 122.334 57.8869 122.658C57.3589 122.97 56.7229 123.126 55.9789 123.126C55.1749 123.126 54.4669 122.94 53.8549 122.568C53.2549 122.184 52.7869 121.644 52.4509 120.948C52.1269 120.24 51.9649 119.418 51.9649 118.482C51.9649 117.546 52.1329 116.724 52.4689 116.016C52.8049 115.296 53.2729 114.744 53.8729 114.36C54.4849 113.964 55.1869 113.766 55.9789 113.766C56.7109 113.766 57.3409 113.922 57.8689 114.234C58.4089 114.546 58.8169 115.002 59.0929 115.602V113.982H60.1909ZM56.1409 122.154C57.0769 122.154 57.8029 121.83 58.3189 121.182C58.8349 120.534 59.0929 119.622 59.0929 118.446C59.0929 117.258 58.8349 116.34 58.3189 115.692C57.8029 115.044 57.0709 114.72 56.1229 114.72C55.1749 114.72 54.4369 115.056 53.9089 115.728C53.3809 116.388 53.1169 117.306 53.1169 118.482C53.1169 119.646 53.3809 120.552 53.9089 121.2C54.4369 121.836 55.1809 122.154 56.1409 122.154ZM63.1756 109.752H64.2556V123H63.1756V109.752ZM79.8692 120.534C80.5052 121.242 81.3392 121.86 82.3712 122.388L81.7232 123.144C80.7392 122.64 79.9232 122.046 79.2752 121.362C78.7712 121.938 78.1952 122.376 77.5472 122.676C76.8992 122.976 76.1852 123.126 75.4052 123.126C74.6252 123.126 73.9292 122.994 73.3172 122.73C72.7172 122.454 72.2492 122.07 71.9132 121.578C71.5892 121.074 71.4272 120.498 71.4272 119.85C71.4272 119.082 71.6612 118.386 72.1292 117.762C72.6092 117.138 73.3952 116.49 74.4872 115.818C73.8992 115.11 73.4912 114.54 73.2632 114.108C73.0472 113.676 72.9392 113.226 72.9392 112.758C72.9392 111.942 73.2092 111.288 73.7492 110.796C74.3012 110.304 75.0272 110.058 75.9272 110.058C76.7672 110.058 77.4332 110.28 77.9252 110.724C78.4172 111.168 78.6632 111.774 78.6632 112.542C78.6632 113.166 78.4712 113.724 78.0872 114.216C77.7032 114.696 77.0012 115.278 75.9812 115.962L79.2032 119.742C79.7912 118.638 80.1032 117.246 80.1392 115.566H81.1832C81.1352 117.546 80.6972 119.202 79.8692 120.534ZM74.0552 112.758C74.0552 113.13 74.1452 113.484 74.3252 113.82C74.5052 114.156 74.8532 114.636 75.3692 115.26C76.2332 114.696 76.8212 114.228 77.1332 113.856C77.4572 113.472 77.6192 113.058 77.6192 112.614C77.6192 112.122 77.4632 111.726 77.1512 111.426C76.8512 111.126 76.4432 110.976 75.9272 110.976C75.3632 110.976 74.9072 111.144 74.5592 111.48C74.2232 111.804 74.0552 112.23 74.0552 112.758ZM75.4592 122.19C76.7432 122.19 77.8052 121.674 78.6452 120.642L75.1172 116.52C74.1572 117.132 73.4852 117.684 73.1012 118.176C72.7172 118.668 72.5252 119.22 72.5252 119.832C72.5252 120.552 72.7892 121.128 73.3172 121.56C73.8452 121.98 74.5592 122.19 75.4592 122.19ZM98.4447 116.43V122.28C97.9767 122.532 97.3347 122.742 96.5187 122.91C95.7027 123.066 94.8807 123.144 94.0527 123.144C92.8047 123.144 91.7307 122.886 90.8307 122.37C89.9307 121.842 89.2407 121.086 88.7607 120.102C88.2927 119.118 88.0587 117.942 88.0587 116.574C88.0587 115.218 88.2927 114.048 88.7607 113.064C89.2407 112.08 89.9247 111.33 90.8127 110.814C91.7007 110.298 92.7507 110.04 93.9627 110.04C95.7747 110.04 97.2267 110.598 98.3187 111.714L97.8507 112.596C97.2387 112.044 96.6207 111.648 95.9967 111.408C95.3847 111.156 94.7007 111.03 93.9447 111.03C92.4327 111.03 91.2627 111.51 90.4347 112.47C89.6187 113.43 89.2107 114.798 89.2107 116.574C89.2107 118.386 89.6247 119.772 90.4527 120.732C91.2927 121.692 92.4987 122.172 94.0707 122.172C95.2827 122.172 96.4047 121.974 97.4367 121.578V117.384H94.0527V116.43H98.4447ZM101.443 113.982H102.523V123H101.443V113.982ZM102.739 110.256V111.66H101.281V110.256H102.739ZM108.653 110.67C108.137 110.67 107.741 110.808 107.465 111.084C107.189 111.36 107.051 111.852 107.051 112.56V113.982H109.373V114.864H107.051V123H105.953V114.864H104.189V113.982H105.953V112.362C105.953 111.462 106.175 110.79 106.619 110.346C107.063 109.902 107.675 109.68 108.455 109.68C108.815 109.68 109.187 109.728 109.571 109.824V110.814C109.247 110.718 108.941 110.67 108.653 110.67ZM112.518 114.864V120.228C112.518 120.948 112.656 121.446 112.932 121.722C113.208 121.998 113.616 122.136 114.156 122.136C114.492 122.136 114.816 122.082 115.128 121.974V122.964C114.744 123.06 114.354 123.108 113.958 123.108C113.166 123.108 112.542 122.886 112.086 122.442C111.642 121.998 111.42 121.332 111.42 120.444V114.864H109.638V113.982H111.42V111.588L112.518 111.174V113.982H115.182V114.864H112.518ZM119.987 123.126C118.523 123.126 117.365 122.724 116.513 121.92L116.909 121.074C117.389 121.47 117.869 121.752 118.349 121.92C118.841 122.088 119.405 122.172 120.041 122.172C120.785 122.172 121.349 122.046 121.733 121.794C122.129 121.53 122.327 121.152 122.327 120.66C122.327 120.252 122.195 119.934 121.931 119.706C121.679 119.466 121.259 119.274 120.671 119.13L119.141 118.788C118.421 118.62 117.851 118.32 117.431 117.888C117.023 117.456 116.819 116.952 116.819 116.376C116.819 115.584 117.119 114.954 117.719 114.486C118.331 114.006 119.141 113.766 120.149 113.766C120.785 113.766 121.373 113.868 121.913 114.072C122.465 114.276 122.921 114.57 123.281 114.954L122.867 115.8C122.039 115.08 121.133 114.72 120.149 114.72C119.453 114.72 118.913 114.858 118.529 115.134C118.145 115.41 117.953 115.794 117.953 116.286C117.953 116.694 118.073 117.024 118.313 117.276C118.565 117.528 118.949 117.714 119.465 117.834L121.013 118.212C122.633 118.572 123.443 119.37 123.443 120.606C123.443 121.362 123.131 121.974 122.507 122.442C121.883 122.898 121.043 123.126 119.987 123.126ZM5.634 161.144C4.626 161.144 3.732 161.012 2.952 160.748C2.184 160.472 1.5 160.046 0.9 159.47L1.368 158.588C2.004 159.152 2.646 159.554 3.294 159.794C3.954 160.034 4.734 160.154 5.634 160.154C6.714 160.154 7.554 159.932 8.154 159.488C8.754 159.044 9.054 158.42 9.054 157.616C9.054 157.148 8.904 156.77 8.604 156.482C8.316 156.182 7.944 155.948 7.488 155.78C7.044 155.612 6.45 155.444 5.706 155.276C4.722 155.06 3.918 154.838 3.294 154.61C2.682 154.37 2.166 154.016 1.746 153.548C1.326 153.08 1.116 152.456 1.116 151.676C1.116 150.956 1.302 150.32 1.674 149.768C2.046 149.216 2.574 148.79 3.258 148.49C3.954 148.19 4.758 148.04 5.67 148.04C6.546 148.04 7.356 148.184 8.1 148.472C8.844 148.748 9.486 149.162 10.026 149.714L9.558 150.596C8.958 150.056 8.346 149.66 7.722 149.408C7.098 149.156 6.414 149.03 5.67 149.03C4.59 149.03 3.744 149.264 3.132 149.732C2.532 150.2 2.232 150.842 2.232 151.658C2.232 152.366 2.496 152.894 3.024 153.242C3.552 153.59 4.326 153.884 5.346 154.124L5.868 154.25C6.828 154.478 7.59 154.7 8.154 154.916C8.718 155.132 9.198 155.456 9.594 155.888C9.99 156.32 10.188 156.896 10.188 157.616C10.188 158.312 10.002 158.93 9.63 159.47C9.258 159.998 8.724 160.412 8.028 160.712C7.344 161 6.546 161.144 5.634 161.144ZM16.7451 151.766C17.5371 151.766 18.2331 151.964 18.8331 152.36C19.4451 152.744 19.9191 153.296 20.2551 154.016C20.5911 154.724 20.7591 155.546 20.7591 156.482C20.7591 157.418 20.5911 158.234 20.2551 158.93C19.9311 159.626 19.4631 160.166 18.8511 160.55C18.2391 160.934 17.5371 161.126 16.7451 161.126C15.9891 161.126 15.3411 160.964 14.8011 160.64C14.2731 160.304 13.8771 159.824 13.6131 159.2V164.888H12.5331V154.484C12.5331 153.548 12.4851 152.714 12.3891 151.982H13.4331L13.5771 153.746C13.8411 153.11 14.2431 152.624 14.7831 152.288C15.3351 151.94 15.9891 151.766 16.7451 151.766ZM16.6011 160.154C17.5491 160.154 18.2871 159.836 18.8151 159.2C19.3431 158.552 19.6071 157.646 19.6071 156.482C19.6071 155.306 19.3431 154.388 18.8151 153.728C18.2871 153.056 17.5551 152.72 16.6191 152.72C15.6591 152.72 14.9211 153.044 14.4051 153.692C13.8891 154.34 13.6311 155.258 13.6311 156.446C13.6311 157.622 13.8891 158.534 14.4051 159.182C14.9211 159.83 15.6531 160.154 16.6011 160.154ZM23.7438 156.356V156.41C23.7438 157.622 24.0198 158.552 24.5718 159.2C25.1358 159.836 25.9518 160.154 27.0198 160.154C28.0998 160.154 29.0898 159.782 29.9898 159.038L30.4218 159.902C30.0258 160.274 29.5218 160.574 28.9098 160.802C28.2978 161.018 27.6678 161.126 27.0198 161.126C25.6518 161.126 24.5718 160.712 23.7798 159.884C22.9878 159.056 22.5918 157.916 22.5918 156.464C22.5918 155.54 22.7658 154.724 23.1138 154.016C23.4738 153.296 23.9718 152.744 24.6078 152.36C25.2438 151.964 25.9758 151.766 26.8038 151.766C27.9918 151.766 28.9158 152.15 29.5758 152.918C30.2478 153.686 30.5838 154.754 30.5838 156.122V156.356H23.7438ZM26.8038 152.666C25.9758 152.666 25.3038 152.918 24.7878 153.422C24.2718 153.914 23.9478 154.61 23.8158 155.51H29.5398C29.4678 154.586 29.1978 153.884 28.7298 153.404C28.2618 152.912 27.6198 152.666 26.8038 152.666ZM36.5953 161.126C35.7433 161.126 34.9993 160.934 34.3633 160.55C33.7273 160.166 33.2353 159.626 32.8873 158.93C32.5393 158.222 32.3653 157.406 32.3653 156.482C32.3653 155.546 32.5393 154.724 32.8873 154.016C33.2353 153.296 33.7333 152.744 34.3813 152.36C35.0293 151.964 35.7793 151.766 36.6313 151.766C37.2433 151.766 37.8253 151.874 38.3773 152.09C38.9413 152.294 39.4033 152.582 39.7633 152.954L39.3313 153.818C38.8633 153.434 38.4133 153.158 37.9813 152.99C37.5613 152.81 37.1233 152.72 36.6673 152.72C35.6953 152.72 34.9273 153.056 34.3633 153.728C33.7993 154.388 33.5173 155.306 33.5173 156.482C33.5173 157.634 33.7933 158.534 34.3453 159.182C34.9093 159.83 35.6833 160.154 36.6673 160.154C37.1233 160.154 37.5613 160.07 37.9813 159.902C38.4133 159.722 38.8633 159.446 39.3313 159.074L39.7633 159.92C39.3793 160.292 38.8993 160.586 38.3233 160.802C37.7593 161.018 37.1833 161.126 36.5953 161.126ZM41.7655 151.982H42.8455V161H41.7655V151.982ZM43.0615 148.256V149.66H41.6035V148.256H43.0615ZM53.5112 151.982V161H52.4132V159.272C52.1492 159.872 51.7472 160.334 51.2072 160.658C50.6792 160.97 50.0432 161.126 49.2992 161.126C48.4952 161.126 47.7872 160.94 47.1752 160.568C46.5752 160.184 46.1072 159.644 45.7712 158.948C45.4472 158.24 45.2852 157.418 45.2852 156.482C45.2852 155.546 45.4532 154.724 45.7892 154.016C46.1252 153.296 46.5932 152.744 47.1932 152.36C47.8052 151.964 48.5072 151.766 49.2992 151.766C50.0312 151.766 50.6612 151.922 51.1892 152.234C51.7292 152.546 52.1372 153.002 52.4132 153.602V151.982H53.5112ZM49.4612 160.154C50.3972 160.154 51.1232 159.83 51.6392 159.182C52.1552 158.534 52.4132 157.622 52.4132 156.446C52.4132 155.258 52.1552 154.34 51.6392 153.692C51.1232 153.044 50.3912 152.72 49.4432 152.72C48.4952 152.72 47.7572 153.056 47.2292 153.728C46.7012 154.388 46.4372 155.306 46.4372 156.482C46.4372 157.646 46.7012 158.552 47.2292 159.2C47.7572 159.836 48.5012 160.154 49.4612 160.154ZM56.496 147.752H57.576V161H56.496V147.752ZM70.5615 161.144C69.3975 161.144 68.3835 160.88 67.5195 160.352C66.6675 159.824 66.0075 159.068 65.5395 158.084C65.0835 157.1 64.8555 155.936 64.8555 154.592C64.8555 153.248 65.0835 152.084 65.5395 151.1C65.9955 150.116 66.6495 149.36 67.5015 148.832C68.3655 148.304 69.3855 148.04 70.5615 148.04C71.7375 148.04 72.7575 148.304 73.6215 148.832C74.4855 149.36 75.1455 150.116 75.6015 151.1C76.0575 152.072 76.2855 153.23 76.2855 154.574C76.2855 155.918 76.0515 157.088 75.5835 158.084C75.1275 159.068 74.4675 159.824 73.6035 160.352C72.7515 160.88 71.7375 161.144 70.5615 161.144ZM70.5615 160.154C72.0015 160.154 73.1175 159.668 73.9095 158.696C74.7135 157.724 75.1155 156.35 75.1155 154.574C75.1155 152.798 74.7195 151.43 73.9275 150.47C73.1355 149.51 72.0135 149.03 70.5615 149.03C69.1215 149.03 67.9995 149.516 67.1955 150.488C66.4035 151.448 66.0075 152.81 66.0075 154.574C66.0075 156.338 66.4035 157.712 67.1955 158.696C67.9995 159.668 69.1215 160.154 70.5615 160.154ZM82.0572 148.67C81.5412 148.67 81.1452 148.808 80.8692 149.084C80.5932 149.36 80.4552 149.852 80.4552 150.56V151.982H82.7772V152.864H80.4552V161H79.3572V152.864H77.5932V151.982H79.3572V150.362C79.3572 149.462 79.5792 148.79 80.0232 148.346C80.4672 147.902 81.0792 147.68 81.8592 147.68C82.2192 147.68 82.5912 147.728 82.9752 147.824V148.814C82.6512 148.718 82.3452 148.67 82.0572 148.67ZM87.9635 148.67C87.4475 148.67 87.0515 148.808 86.7755 149.084C86.4995 149.36 86.3615 149.852 86.3615 150.56V151.982H88.6835V152.864H86.3615V161H85.2635V152.864H83.4995V151.982H85.2635V150.362C85.2635 149.462 85.4855 148.79 85.9295 148.346C86.3735 147.902 86.9855 147.68 87.7655 147.68C88.1255 147.68 88.4975 147.728 88.8815 147.824V148.814C88.5575 148.718 88.2515 148.67 87.9635 148.67ZM91.1735 156.356V156.41C91.1735 157.622 91.4495 158.552 92.0015 159.2C92.5655 159.836 93.3815 160.154 94.4495 160.154C95.5295 160.154 96.5195 159.782 97.4195 159.038L97.8515 159.902C97.4555 160.274 96.9515 160.574 96.3395 160.802C95.7275 161.018 95.0975 161.126 94.4495 161.126C93.0815 161.126 92.0015 160.712 91.2095 159.884C90.4175 159.056 90.0215 157.916 90.0215 156.464C90.0215 155.54 90.1955 154.724 90.5435 154.016C90.9035 153.296 91.4015 152.744 92.0375 152.36C92.6735 151.964 93.4055 151.766 94.2335 151.766C95.4215 151.766 96.3455 152.15 97.0055 152.918C97.6775 153.686 98.0135 154.754 98.0135 156.122V156.356H91.1735ZM94.2335 152.666C93.4055 152.666 92.7335 152.918 92.2175 153.422C91.7015 153.914 91.3775 154.61 91.2455 155.51H96.9695C96.8975 154.586 96.6275 153.884 96.1595 153.404C95.6915 152.912 95.0495 152.666 94.2335 152.666ZM104.259 151.766C104.559 151.766 104.823 151.79 105.051 151.838L104.997 152.828C104.769 152.78 104.493 152.756 104.169 152.756C103.257 152.756 102.573 153.05 102.117 153.638C101.673 154.214 101.451 154.904 101.451 155.708V161H100.371V154.484C100.371 153.548 100.323 152.714 100.227 151.982H101.271L101.415 153.656C101.643 153.044 102.009 152.576 102.513 152.252C103.029 151.928 103.611 151.766 104.259 151.766ZM109.492 161.126C108.028 161.126 106.87 160.724 106.018 159.92L106.414 159.074C106.894 159.47 107.374 159.752 107.854 159.92C108.346 160.088 108.91 160.172 109.546 160.172C110.29 160.172 110.854 160.046 111.238 159.794C111.634 159.53 111.832 159.152 111.832 158.66C111.832 158.252 111.7 157.934 111.436 157.706C111.184 157.466 110.764 157.274 110.176 157.13L108.646 156.788C107.926 156.62 107.356 156.32 106.936 155.888C106.528 155.456 106.324 154.952 106.324 154.376C106.324 153.584 106.624 152.954 107.224 152.486C107.836 152.006 108.646 151.766 109.654 151.766C110.29 151.766 110.878 151.868 111.418 152.072C111.97 152.276 112.426 152.57 112.786 152.954L112.372 153.8C111.544 153.08 110.638 152.72 109.654 152.72C108.958 152.72 108.418 152.858 108.034 153.134C107.65 153.41 107.458 153.794 107.458 154.286C107.458 154.694 107.578 155.024 107.818 155.276C108.07 155.528 108.454 155.714 108.97 155.834L110.518 156.212C112.138 156.572 112.948 157.37 112.948 158.606C112.948 159.362 112.636 159.974 112.012 160.442C111.388 160.898 110.548 161.126 109.492 161.126ZM1.656 186.184H5.778C7.818 186.184 9.39 186.736 10.494 187.84C11.598 188.944 12.15 190.522 12.15 192.574C12.15 194.626 11.592 196.21 10.476 197.326C9.372 198.442 7.806 199 5.778 199H1.656V186.184ZM5.724 198.028C7.464 198.028 8.772 197.572 9.648 196.66C10.524 195.736 10.962 194.374 10.962 192.574C10.962 188.962 9.216 187.156 5.724 187.156H2.772V198.028H5.724ZM15.3766 194.356V194.41C15.3766 195.622 15.6526 196.552 16.2046 197.2C16.7686 197.836 17.5846 198.154 18.6526 198.154C19.7326 198.154 20.7226 197.782 21.6226 197.038L22.0546 197.902C21.6586 198.274 21.1546 198.574 20.5426 198.802C19.9306 199.018 19.3006 199.126 18.6526 199.126C17.2846 199.126 16.2046 198.712 15.4126 197.884C14.6206 197.056 14.2246 195.916 14.2246 194.464C14.2246 193.54 14.3986 192.724 14.7466 192.016C15.1066 191.296 15.6046 190.744 16.2406 190.36C16.8766 189.964 17.6086 189.766 18.4366 189.766C19.6246 189.766 20.5486 190.15 21.2086 190.918C21.8806 191.686 22.2166 192.754 22.2166 194.122V194.356H15.3766ZM18.4366 190.666C17.6086 190.666 16.9366 190.918 16.4206 191.422C15.9046 191.914 15.5806 192.61 15.4486 193.51H21.1726C21.1006 192.586 20.8306 191.884 20.3626 191.404C19.8946 190.912 19.2526 190.666 18.4366 190.666ZM24.5741 185.752H25.6541V199H24.5741V185.752ZM28.6698 189.982H29.7498V199H28.6698V189.982ZM29.9658 186.256V187.66H28.5078V186.256H29.9658ZM40.4155 189.982L36.5455 199H35.4115L31.5955 189.982H32.7655L36.0235 197.902L39.2995 189.982H40.4155ZM42.7106 194.356V194.41C42.7106 195.622 42.9866 196.552 43.5386 197.2C44.1026 197.836 44.9186 198.154 45.9866 198.154C47.0666 198.154 48.0566 197.782 48.9566 197.038L49.3886 197.902C48.9926 198.274 48.4886 198.574 47.8766 198.802C47.2646 199.018 46.6346 199.126 45.9866 199.126C44.6186 199.126 43.5386 198.712 42.7466 197.884C41.9546 197.056 41.5586 195.916 41.5586 194.464C41.5586 193.54 41.7326 192.724 42.0806 192.016C42.4406 191.296 42.9386 190.744 43.5746 190.36C44.2106 189.964 44.9426 189.766 45.7706 189.766C46.9586 189.766 47.8826 190.15 48.5426 190.918C49.2146 191.686 49.5506 192.754 49.5506 194.122V194.356H42.7106ZM45.7706 190.666C44.9426 190.666 44.2706 190.918 43.7546 191.422C43.2386 191.914 42.9146 192.61 42.7826 193.51H48.5066C48.4346 192.586 48.1646 191.884 47.6966 191.404C47.2286 190.912 46.5866 190.666 45.7706 190.666ZM55.7961 189.766C56.0961 189.766 56.3601 189.79 56.5881 189.838L56.5341 190.828C56.3061 190.78 56.0301 190.756 55.7061 190.756C54.7941 190.756 54.1101 191.05 53.6541 191.638C53.2101 192.214 52.9881 192.904 52.9881 193.708V199H51.9081V192.484C51.9081 191.548 51.8601 190.714 51.7641 189.982H52.8081L52.9521 191.656C53.1801 191.044 53.5461 190.576 54.0501 190.252C54.5661 189.928 55.1481 189.766 55.7961 189.766ZM66.3784 189.982L62.1304 199.936C61.7104 200.92 61.1824 201.64 60.5464 202.096C59.9224 202.564 59.1364 202.894 58.1884 203.086L57.9724 202.222C58.8364 202.018 59.4844 201.754 59.9164 201.43C60.3604 201.106 60.7324 200.596 61.0324 199.9L61.4104 199.018L57.5584 189.982H58.7284L61.9864 197.902L65.2624 189.982H66.3784ZM76.0853 187.156H71.4953V186.184H81.7913V187.156H77.2013V199H76.0853V187.156ZM83.496 189.982H84.576V199H83.496V189.982ZM84.792 186.256V187.66H83.334V186.256H84.792ZM97.3117 189.766C99.3037 189.766 100.3 190.93 100.3 193.258V199H99.2017V193.33C99.2017 192.418 99.0397 191.758 98.7157 191.35C98.3917 190.93 97.8757 190.72 97.1677 190.72C96.3397 190.72 95.6857 190.996 95.2057 191.548C94.7377 192.1 94.5037 192.85 94.5037 193.798V199H93.4057V193.33C93.4057 192.418 93.2377 191.758 92.9017 191.35C92.5777 190.93 92.0617 190.72 91.3537 190.72C90.5377 190.72 89.8837 190.996 89.3917 191.548C88.9117 192.1 88.6717 192.85 88.6717 193.798V199H87.5917V192.484C87.5917 191.548 87.5437 190.714 87.4477 189.982H88.4917L88.6357 191.602C88.8877 191.002 89.2597 190.546 89.7517 190.234C90.2557 189.922 90.8377 189.766 91.4977 189.766C92.9497 189.766 93.8797 190.354 94.2877 191.53C94.5397 190.978 94.9297 190.546 95.4577 190.234C95.9977 189.922 96.6157 189.766 97.3117 189.766ZM103.812 194.356V194.41C103.812 195.622 104.088 196.552 104.64 197.2C105.204 197.836 106.02 198.154 107.088 198.154C108.168 198.154 109.158 197.782 110.058 197.038L110.49 197.902C110.094 198.274 109.59 198.574 108.978 198.802C108.366 199.018 107.736 199.126 107.088 199.126C105.72 199.126 104.64 198.712 103.848 197.884C103.056 197.056 102.66 195.916 102.66 194.464C102.66 193.54 102.834 192.724 103.182 192.016C103.542 191.296 104.04 190.744 104.676 190.36C105.312 189.964 106.044 189.766 106.872 189.766C108.06 189.766 108.984 190.15 109.644 190.918C110.316 191.686 110.652 192.754 110.652 194.122V194.356H103.812ZM106.872 190.666C106.044 190.666 105.372 190.918 104.856 191.422C104.34 191.914 104.016 192.61 103.884 193.51H109.608C109.536 192.586 109.266 191.884 108.798 191.404C108.33 190.912 107.688 190.666 106.872 190.666ZM115.944 199.126C114.48 199.126 113.322 198.724 112.47 197.92L112.866 197.074C113.346 197.47 113.826 197.752 114.306 197.92C114.798 198.088 115.362 198.172 115.998 198.172C116.742 198.172 117.306 198.046 117.69 197.794C118.086 197.53 118.284 197.152 118.284 196.66C118.284 196.252 118.152 195.934 117.888 195.706C117.636 195.466 117.216 195.274 116.628 195.13L115.098 194.788C114.378 194.62 113.808 194.32 113.388 193.888C112.98 193.456 112.776 192.952 112.776 192.376C112.776 191.584 113.076 190.954 113.676 190.486C114.288 190.006 115.098 189.766 116.106 189.766C116.742 189.766 117.33 189.868 117.87 190.072C118.422 190.276 118.878 190.57 119.238 190.954L118.824 191.8C117.996 191.08 117.09 190.72 116.106 190.72C115.41 190.72 114.87 190.858 114.486 191.134C114.102 191.41 113.91 191.794 113.91 192.286C113.91 192.694 114.03 193.024 114.27 193.276C114.522 193.528 114.906 193.714 115.422 193.834L116.97 194.212C118.59 194.572 119.4 195.37 119.4 196.606C119.4 197.362 119.088 197.974 118.464 198.442C117.84 198.898 117 199.126 115.944 199.126ZM1.656 224.184H9.378V225.138H2.772V229.998H9.018V230.988H2.772V237H1.656V224.184ZM18.8674 233.58H11.9554L10.4794 237H9.32738L14.9074 224.184H15.9154L21.4774 237H20.3254L18.8674 233.58ZM18.4354 232.608L15.4114 225.534L12.3694 232.608H18.4354ZM30.2645 236.874C30.8285 237.882 31.6025 238.8 32.5865 239.628L31.8125 240.438C31.3445 240.066 30.8585 239.58 30.3545 238.98C29.8625 238.38 29.4305 237.756 29.0585 237.108C28.7465 237.132 28.5125 237.144 28.3565 237.144C27.1925 237.144 26.1785 236.88 25.3145 236.352C24.4625 235.824 23.8025 235.068 23.3345 234.084C22.8785 233.1 22.6505 231.936 22.6505 230.592C22.6505 229.248 22.8785 228.084 23.3345 227.1C23.7905 226.116 24.4445 225.36 25.2965 224.832C26.1605 224.304 27.1805 224.04 28.3565 224.04C29.5325 224.04 30.5525 224.304 31.4165 224.832C32.2805 225.36 32.9405 226.116 33.3965 227.1C33.8525 228.072 34.0805 229.23 34.0805 230.574C34.0805 232.206 33.7445 233.568 33.0725 234.66C32.4125 235.752 31.4765 236.49 30.2645 236.874ZM23.8025 230.574C23.8025 232.338 24.1985 233.712 24.9905 234.696C25.7945 235.668 26.9165 236.154 28.3565 236.154C29.7965 236.154 30.9125 235.668 31.7045 234.696C32.5085 233.724 32.9105 232.35 32.9105 230.574C32.9105 228.798 32.5145 227.43 31.7225 226.47C30.9305 225.51 29.8085 225.03 28.3565 225.03C26.9165 225.03 25.7945 225.516 24.9905 226.488C24.1985 227.448 23.8025 228.81 23.8025 230.574ZM39.6721 237.126C38.2081 237.126 37.0501 236.724 36.1981 235.92L36.5941 235.074C37.0741 235.47 37.5541 235.752 38.0341 235.92C38.5261 236.088 39.0901 236.172 39.7261 236.172C40.4701 236.172 41.0341 236.046 41.4181 235.794C41.8141 235.53 42.0121 235.152 42.0121 234.66C42.0121 234.252 41.8801 233.934 41.6161 233.706C41.3641 233.466 40.9441 233.274 40.3561 233.13L38.8261 232.788C38.1061 232.62 37.5361 232.32 37.1161 231.888C36.7081 231.456 36.5041 230.952 36.5041 230.376C36.5041 229.584 36.8041 228.954 37.4041 228.486C38.0161 228.006 38.8261 227.766 39.8341 227.766C40.4701 227.766 41.0581 227.868 41.5981 228.072C42.1501 228.276 42.6061 228.57 42.9661 228.954L42.5521 229.8C41.7241 229.08 40.8181 228.72 39.8341 228.72C39.1381 228.72 38.5981 228.858 38.2141 229.134C37.8301 229.41 37.6381 229.794 37.6381 230.286C37.6381 230.694 37.7581 231.024 37.9981 231.276C38.2501 231.528 38.6341 231.714 39.1501 231.834L40.6981 232.212C42.3181 232.572 43.1281 233.37 43.1281 234.606C43.1281 235.362 42.8161 235.974 42.1921 236.442C41.5681 236.898 40.7281 237.126 39.6721 237.126Z" fill="#848484"/>
<path d="M6.042 37.171C5.00333 37.171 4.028 37.0317 3.116 36.753C2.21667 36.4743 1.45033 36.0753 0.817 35.556L1.653 33.77C2.31167 34.264 2.99567 34.6313 3.705 34.872C4.427 35.1 5.21233 35.214 6.061 35.214C6.99833 35.214 7.72033 35.0493 8.227 34.72C8.74633 34.3907 9.006 33.9283 9.006 33.333C9.006 32.8263 8.76533 32.44 8.284 32.174C7.81533 31.8953 7.03633 31.6357 5.947 31.395C4.24967 31.0277 3.01467 30.5527 2.242 29.97C1.46933 29.3873 1.083 28.5387 1.083 27.424C1.083 26.626 1.29833 25.9167 1.729 25.296C2.15967 24.6753 2.76767 24.1877 3.553 23.833C4.351 23.4783 5.26933 23.301 6.308 23.301C7.258 23.301 8.15733 23.4467 9.006 23.738C9.86733 24.0167 10.5703 24.4093 11.115 24.916L10.298 26.702C9.09467 25.7393 7.76467 25.258 6.308 25.258C5.434 25.258 4.74367 25.4417 4.237 25.809C3.73033 26.1637 3.477 26.6513 3.477 27.272C3.477 27.804 3.69867 28.2093 4.142 28.488C4.598 28.7667 5.37067 29.0263 6.46 29.267C7.58733 29.533 8.50567 29.8243 9.215 30.141C9.92433 30.445 10.469 30.844 10.849 31.338C11.229 31.8193 11.419 32.4273 11.419 33.162C11.419 33.9727 11.2037 34.682 10.773 35.29C10.3423 35.8853 9.72167 36.3477 8.911 36.677C8.10033 37.0063 7.144 37.171 6.042 37.171ZM19.0105 27.158C21.3032 27.158 22.4495 28.4753 22.4495 31.11V37H20.0745V31.224C20.0745 30.464 19.9289 29.913 19.6375 29.571C19.3462 29.2163 18.8965 29.039 18.2885 29.039C17.5665 29.039 16.9839 29.2733 16.5405 29.742C16.0972 30.198 15.8755 30.806 15.8755 31.566V37H13.5195V23.016H15.8755V28.792C16.2049 28.2727 16.6419 27.8737 17.1865 27.595C17.7312 27.3037 18.3392 27.158 19.0105 27.158ZM29.3188 37.152C28.3434 37.152 27.4821 36.9493 26.7348 36.544C26.0001 36.1387 25.4301 35.5623 25.0248 34.815C24.6321 34.055 24.4358 33.1683 24.4358 32.155C24.4358 31.1417 24.6321 30.2613 25.0248 29.514C25.4301 28.754 26.0001 28.1713 26.7348 27.766C27.4821 27.3607 28.3434 27.158 29.3188 27.158C30.2814 27.158 31.1301 27.3607 31.8648 27.766C32.5994 28.1713 33.1631 28.754 33.5558 29.514C33.9611 30.2613 34.1638 31.1417 34.1638 32.155C34.1638 33.1683 33.9611 34.055 33.5558 34.815C33.1631 35.5623 32.5994 36.1387 31.8648 36.544C31.1301 36.9493 30.2814 37.152 29.3188 37.152ZM29.2998 35.29C30.1104 35.29 30.7248 35.0303 31.1428 34.511C31.5734 33.979 31.7888 33.1937 31.7888 32.155C31.7888 31.129 31.5734 30.35 31.1428 29.818C30.7121 29.2733 30.1041 29.001 29.3188 29.001C28.5208 29.001 27.9064 29.2733 27.4758 29.818C27.0451 30.35 26.8298 31.129 26.8298 32.155C26.8298 33.1937 27.0388 33.979 27.4568 34.511C27.8874 35.0303 28.5018 35.29 29.2998 35.29ZM41.6839 27.158C42.5073 27.158 43.2356 27.3733 43.8689 27.804C44.5149 28.222 45.0153 28.8173 45.3699 29.59C45.7373 30.35 45.9209 31.224 45.9209 32.212C45.9209 33.2 45.7436 34.0677 45.3889 34.815C45.0343 35.5623 44.5339 36.1387 43.8879 36.544C43.2546 36.9493 42.5199 37.152 41.6839 37.152C40.9873 37.152 40.3666 37.0063 39.8219 36.715C39.2773 36.411 38.8593 35.993 38.5679 35.461V41.104H36.2119V30.122C36.2119 29.1087 36.1613 28.203 36.0599 27.405H38.2829L38.4729 29.058C38.7263 28.4627 39.1379 28.0003 39.7079 27.671C40.2779 27.329 40.9366 27.158 41.6839 27.158ZM41.0379 35.29C41.8359 35.29 42.4503 35.024 42.8809 34.492C43.3116 33.96 43.5269 33.2 43.5269 32.212C43.5269 31.2113 43.3116 30.4323 42.8809 29.875C42.4503 29.305 41.8423 29.02 41.0569 29.02C40.2463 29.02 39.6256 29.2923 39.1949 29.837C38.7643 30.3817 38.5489 31.1607 38.5489 32.174C38.5489 33.1747 38.7643 33.9473 39.1949 34.492C39.6256 35.024 40.2399 35.29 41.0379 35.29Z" fill="black"/>
</svg>
