<svg width="391" height="237" viewBox="0 0 391 237" fill="none" xmlns="http://www.w3.org/2000/svg">
<path d="M1.656 78.184H6.588C7.872 78.184 8.88 78.496 9.612 79.12C10.344 79.744 10.71 80.602 10.71 81.694C10.71 82.798 10.338 83.668 9.594 84.304C8.862 84.928 7.86 85.24 6.588 85.24H2.772V91H1.656V78.184ZM6.516 84.268C7.524 84.268 8.286 84.046 8.802 83.602C9.318 83.158 9.576 82.522 9.576 81.694C9.576 80.878 9.318 80.248 8.802 79.804C8.286 79.36 7.524 79.138 6.516 79.138H2.772V84.268H6.516ZM13.078 77.752H14.158V91H13.078V77.752ZM24.8237 81.982V91H23.7257V89.272C23.4617 89.872 23.0597 90.334 22.5197 90.658C21.9917 90.97 21.3557 91.126 20.6117 91.126C19.8077 91.126 19.0997 90.94 18.4877 90.568C17.8877 90.184 17.4197 89.644 17.0837 88.948C16.7597 88.24 16.5977 87.418 16.5977 86.482C16.5977 85.546 16.7657 84.724 17.1017 84.016C17.4377 83.296 17.9057 82.744 18.5057 82.36C19.1177 81.964 19.8197 81.766 20.6117 81.766C21.3437 81.766 21.9737 81.922 22.5017 82.234C23.0417 82.546 23.4497 83.002 23.7257 83.602V81.982H24.8237ZM20.7737 90.154C21.7097 90.154 22.4357 89.83 22.9517 89.182C23.4677 88.534 23.7257 87.622 23.7257 86.446C23.7257 85.258 23.4677 84.34 22.9517 83.692C22.4357 83.044 21.7037 82.72 20.7557 82.72C19.8077 82.72 19.0697 83.056 18.5417 83.728C18.0137 84.388 17.7497 85.306 17.7497 86.482C17.7497 87.646 18.0137 88.552 18.5417 89.2C19.0697 89.836 19.8137 90.154 20.7737 90.154ZM32.0025 81.766C34.1745 81.766 35.2605 82.93 35.2605 85.258V91H34.1625V85.33C34.1625 84.43 33.9765 83.77 33.6045 83.35C33.2445 82.93 32.6745 82.72 31.8945 82.72C30.9945 82.72 30.2685 82.996 29.7165 83.548C29.1645 84.1 28.8885 84.844 28.8885 85.78V91H27.8085V84.484C27.8085 83.548 27.7605 82.714 27.6645 81.982H28.7085L28.8525 83.638C29.1285 83.026 29.5425 82.564 30.0945 82.252C30.6465 81.928 31.2825 81.766 32.0025 81.766ZM50.4526 81.982V91H49.3546V89.272C49.0906 89.872 48.6886 90.334 48.1486 90.658C47.6206 90.97 46.9846 91.126 46.2406 91.126C45.4366 91.126 44.7286 90.94 44.1166 90.568C43.5166 90.184 43.0486 89.644 42.7126 88.948C42.3886 88.24 42.2266 87.418 42.2266 86.482C42.2266 85.546 42.3946 84.724 42.7306 84.016C43.0666 83.296 43.5346 82.744 44.1346 82.36C44.7466 81.964 45.4486 81.766 46.2406 81.766C46.9726 81.766 47.6026 81.922 48.1306 82.234C48.6706 82.546 49.0786 83.002 49.3546 83.602V81.982H50.4526ZM46.4026 90.154C47.3386 90.154 48.0646 89.83 48.5806 89.182C49.0966 88.534 49.3546 87.622 49.3546 86.446C49.3546 85.258 49.0966 84.34 48.5806 83.692C48.0646 83.044 47.3326 82.72 46.3846 82.72C45.4366 82.72 44.6986 83.056 44.1706 83.728C43.6426 84.388 43.3786 85.306 43.3786 86.482C43.3786 87.646 43.6426 88.552 44.1706 89.2C44.6986 89.836 45.4426 90.154 46.4026 90.154ZM57.6314 81.766C59.8034 81.766 60.8894 82.93 60.8894 85.258V91H59.7914V85.33C59.7914 84.43 59.6054 83.77 59.2334 83.35C58.8734 82.93 58.3034 82.72 57.5234 82.72C56.6234 82.72 55.8974 82.996 55.3454 83.548C54.7934 84.1 54.5174 84.844 54.5174 85.78V91H53.4374V84.484C53.4374 83.548 53.3894 82.714 53.2934 81.982H54.3374L54.4814 83.638C54.7574 83.026 55.1714 82.564 55.7234 82.252C56.2754 81.928 56.9114 81.766 57.6314 81.766ZM71.4936 77.752V91H70.3956V89.272C70.1316 89.872 69.7296 90.334 69.1896 90.658C68.6616 90.97 68.0256 91.126 67.2816 91.126C66.4896 91.126 65.7876 90.934 65.1756 90.55C64.5756 90.154 64.1076 89.602 63.7716 88.894C63.4356 88.174 63.2676 87.346 63.2676 86.41C63.2676 85.474 63.4296 84.658 63.7536 83.962C64.0896 83.254 64.5576 82.714 65.1576 82.342C65.7696 81.958 66.4776 81.766 67.2816 81.766C68.0136 81.766 68.6436 81.922 69.1716 82.234C69.7116 82.546 70.1196 83.002 70.3956 83.602V77.752H71.4936ZM67.4256 90.154C68.3736 90.154 69.1056 89.83 69.6216 89.182C70.1376 88.534 70.3956 87.622 70.3956 86.446C70.3956 85.27 70.1376 84.358 69.6216 83.71C69.1056 83.05 68.3796 82.72 67.4436 82.72C66.4836 82.72 65.7396 83.044 65.2116 83.692C64.6836 84.34 64.4196 85.246 64.4196 86.41C64.4196 87.586 64.6836 88.504 65.2116 89.164C65.7396 89.824 66.4776 90.154 67.4256 90.154ZM83.2783 81.766C84.0703 81.766 84.7723 81.958 85.3843 82.342C85.9963 82.726 86.4643 83.266 86.7883 83.962C87.1243 84.658 87.2923 85.474 87.2923 86.41C87.2923 87.346 87.1243 88.174 86.7883 88.894C86.4523 89.602 85.9783 90.154 85.3663 90.55C84.7663 90.934 84.0703 91.126 83.2783 91.126C82.5343 91.126 81.8923 90.964 81.3523 90.64C80.8243 90.316 80.4283 89.848 80.1643 89.236V91H79.0663V77.752H80.1463V83.674C80.4103 83.05 80.8123 82.576 81.3523 82.252C81.8923 81.928 82.5343 81.766 83.2783 81.766ZM83.1523 90.154C84.0883 90.154 84.8203 89.824 85.3483 89.164C85.8763 88.504 86.1403 87.586 86.1403 86.41C86.1403 85.246 85.8763 84.34 85.3483 83.692C84.8203 83.044 84.0823 82.72 83.1343 82.72C82.1863 82.72 81.4543 83.044 80.9383 83.692C80.4223 84.34 80.1643 85.258 80.1643 86.446C80.1643 87.634 80.4223 88.552 80.9383 89.2C81.4543 89.836 82.1923 90.154 83.1523 90.154ZM93.283 91.126C92.455 91.126 91.723 90.934 91.087 90.55C90.463 90.166 89.977 89.62 89.629 88.912C89.293 88.204 89.125 87.382 89.125 86.446C89.125 85.51 89.293 84.688 89.629 83.98C89.977 83.272 90.463 82.726 91.087 82.342C91.723 81.958 92.455 81.766 93.283 81.766C94.099 81.766 94.819 81.958 95.443 82.342C96.067 82.726 96.547 83.272 96.883 83.98C97.231 84.688 97.405 85.51 97.405 86.446C97.405 87.382 97.231 88.204 96.883 88.912C96.547 89.62 96.067 90.166 95.443 90.55C94.819 90.934 94.099 91.126 93.283 91.126ZM93.265 90.154C94.225 90.154 94.963 89.836 95.479 89.2C96.007 88.552 96.271 87.634 96.271 86.446C96.271 85.27 96.007 84.358 95.479 83.71C94.951 83.05 94.219 82.72 93.283 82.72C92.335 82.72 91.597 83.05 91.069 83.71C90.541 84.358 90.277 85.27 90.277 86.446C90.277 87.646 90.535 88.564 91.051 89.2C91.567 89.836 92.305 90.154 93.265 90.154ZM103.39 91.126C102.562 91.126 101.83 90.934 101.194 90.55C100.57 90.166 100.084 89.62 99.7365 88.912C99.4005 88.204 99.2325 87.382 99.2325 86.446C99.2325 85.51 99.4005 84.688 99.7365 83.98C100.084 83.272 100.57 82.726 101.194 82.342C101.83 81.958 102.562 81.766 103.39 81.766C104.206 81.766 104.926 81.958 105.55 82.342C106.174 82.726 106.654 83.272 106.99 83.98C107.338 84.688 107.512 85.51 107.512 86.446C107.512 87.382 107.338 88.204 106.99 88.912C106.654 89.62 106.174 90.166 105.55 90.55C104.926 90.934 104.206 91.126 103.39 91.126ZM103.372 90.154C104.332 90.154 105.07 89.836 105.586 89.2C106.114 88.552 106.378 87.634 106.378 86.446C106.378 85.27 106.114 84.358 105.586 83.71C105.058 83.05 104.326 82.72 103.39 82.72C102.442 82.72 101.704 83.05 101.176 83.71C100.648 84.358 100.384 85.27 100.384 86.446C100.384 87.646 100.642 88.564 101.158 89.2C101.674 89.836 102.412 90.154 103.372 90.154ZM115.964 91L110.996 86.608V91H109.916V77.752H110.996V86.176L115.532 81.982H116.954L112.238 86.32L117.458 91H115.964ZM131.119 81.982L126.871 91.936C126.451 92.92 125.923 93.64 125.287 94.096C124.663 94.564 123.877 94.894 122.929 95.086L122.713 94.222C123.577 94.018 124.225 93.754 124.657 93.43C125.101 93.106 125.473 92.596 125.773 91.9L126.151 91.018L122.299 81.982H123.469L126.727 89.902L130.003 81.982H131.119ZM136.42 91.126C135.592 91.126 134.86 90.934 134.224 90.55C133.6 90.166 133.114 89.62 132.766 88.912C132.43 88.204 132.262 87.382 132.262 86.446C132.262 85.51 132.43 84.688 132.766 83.98C133.114 83.272 133.6 82.726 134.224 82.342C134.86 81.958 135.592 81.766 136.42 81.766C137.236 81.766 137.956 81.958 138.58 82.342C139.204 82.726 139.684 83.272 140.02 83.98C140.368 84.688 140.542 85.51 140.542 86.446C140.542 87.382 140.368 88.204 140.02 88.912C139.684 89.62 139.204 90.166 138.58 90.55C137.956 90.934 137.236 91.126 136.42 91.126ZM136.402 90.154C137.362 90.154 138.1 89.836 138.616 89.2C139.144 88.552 139.408 87.634 139.408 86.446C139.408 85.27 139.144 84.358 138.616 83.71C138.088 83.05 137.356 82.72 136.42 82.72C135.472 82.72 134.734 83.05 134.206 83.71C133.678 84.358 133.414 85.27 133.414 86.446C133.414 87.646 133.672 88.564 134.188 89.2C134.704 89.836 135.442 90.154 136.402 90.154ZM150.199 81.982V91H149.137V89.362C148.849 89.938 148.441 90.376 147.913 90.676C147.385 90.976 146.779 91.126 146.095 91.126C145.039 91.126 144.241 90.832 143.701 90.244C143.161 89.656 142.891 88.786 142.891 87.634V81.982H143.971V87.562C143.971 88.45 144.151 89.104 144.511 89.524C144.871 89.944 145.429 90.154 146.185 90.154C147.073 90.154 147.781 89.878 148.309 89.326C148.837 88.762 149.101 88.018 149.101 87.094V81.982H150.199ZM157.081 81.766C157.381 81.766 157.645 81.79 157.873 81.838L157.819 82.828C157.591 82.78 157.315 82.756 156.991 82.756C156.079 82.756 155.395 83.05 154.939 83.638C154.495 84.214 154.273 84.904 154.273 85.708V91H153.193V84.484C153.193 83.548 153.145 82.714 153.049 81.982H154.093L154.237 83.656C154.465 83.044 154.831 82.576 155.335 82.252C155.851 81.928 156.433 81.766 157.081 81.766ZM168.269 81.766C169.061 81.766 169.757 81.964 170.357 82.36C170.969 82.744 171.443 83.296 171.779 84.016C172.115 84.724 172.283 85.546 172.283 86.482C172.283 87.418 172.115 88.234 171.779 88.93C171.455 89.626 170.987 90.166 170.375 90.55C169.763 90.934 169.061 91.126 168.269 91.126C167.513 91.126 166.865 90.964 166.325 90.64C165.797 90.304 165.401 89.824 165.137 89.2V94.888H164.057V84.484C164.057 83.548 164.009 82.714 163.913 81.982H164.957L165.101 83.746C165.365 83.11 165.767 82.624 166.307 82.288C166.859 81.94 167.513 81.766 168.269 81.766ZM168.125 90.154C169.073 90.154 169.811 89.836 170.339 89.2C170.867 88.552 171.131 87.646 171.131 86.482C171.131 85.306 170.867 84.388 170.339 83.728C169.811 83.056 169.079 82.72 168.143 82.72C167.183 82.72 166.445 83.044 165.929 83.692C165.413 84.34 165.155 85.258 165.155 86.446C165.155 87.622 165.413 88.534 165.929 89.182C166.445 89.83 167.177 90.154 168.125 90.154ZM175.267 86.356V86.41C175.267 87.622 175.543 88.552 176.095 89.2C176.659 89.836 177.475 90.154 178.543 90.154C179.623 90.154 180.613 89.782 181.513 89.038L181.945 89.902C181.549 90.274 181.045 90.574 180.433 90.802C179.821 91.018 179.191 91.126 178.543 91.126C177.175 91.126 176.095 90.712 175.303 89.884C174.511 89.056 174.115 87.916 174.115 86.464C174.115 85.54 174.289 84.724 174.637 84.016C174.997 83.296 175.495 82.744 176.131 82.36C176.767 81.964 177.499 81.766 178.327 81.766C179.515 81.766 180.439 82.15 181.099 82.918C181.771 83.686 182.107 84.754 182.107 86.122V86.356H175.267ZM178.327 82.666C177.499 82.666 176.827 82.918 176.311 83.422C175.795 83.914 175.471 84.61 175.339 85.51H181.063C180.991 84.586 180.721 83.884 180.253 83.404C179.785 82.912 179.143 82.666 178.327 82.666ZM188.353 81.766C188.653 81.766 188.917 81.79 189.145 81.838L189.091 82.828C188.863 82.78 188.587 82.756 188.263 82.756C187.351 82.756 186.667 83.05 186.211 83.638C185.767 84.214 185.545 84.904 185.545 85.708V91H184.465V84.484C184.465 83.548 184.417 82.714 184.321 81.982H185.365L185.509 83.656C185.737 83.044 186.103 82.576 186.607 82.252C187.123 81.928 187.705 81.766 188.353 81.766ZM194.504 78.67C193.988 78.67 193.592 78.808 193.316 79.084C193.04 79.36 192.902 79.852 192.902 80.56V81.982H195.224V82.864H192.902V91H191.804V82.864H190.04V81.982H191.804V80.362C191.804 79.462 192.026 78.79 192.47 78.346C192.914 77.902 193.526 77.68 194.306 77.68C194.666 77.68 195.038 77.728 195.422 77.824V78.814C195.098 78.718 194.792 78.67 194.504 78.67ZM197.715 86.356V86.41C197.715 87.622 197.991 88.552 198.543 89.2C199.107 89.836 199.923 90.154 200.991 90.154C202.071 90.154 203.061 89.782 203.961 89.038L204.393 89.902C203.997 90.274 203.493 90.574 202.881 90.802C202.269 91.018 201.639 91.126 200.991 91.126C199.623 91.126 198.543 90.712 197.751 89.884C196.959 89.056 196.563 87.916 196.563 86.464C196.563 85.54 196.737 84.724 197.085 84.016C197.445 83.296 197.943 82.744 198.579 82.36C199.215 81.964 199.947 81.766 200.775 81.766C201.963 81.766 202.887 82.15 203.547 82.918C204.219 83.686 204.555 84.754 204.555 86.122V86.356H197.715ZM200.775 82.666C199.947 82.666 199.275 82.918 198.759 83.422C198.243 83.914 197.919 84.61 197.787 85.51H203.511C203.439 84.586 203.169 83.884 202.701 83.404C202.233 82.912 201.591 82.666 200.775 82.666ZM210.566 91.126C209.714 91.126 208.97 90.934 208.334 90.55C207.698 90.166 207.206 89.626 206.858 88.93C206.51 88.222 206.336 87.406 206.336 86.482C206.336 85.546 206.51 84.724 206.858 84.016C207.206 83.296 207.704 82.744 208.352 82.36C209 81.964 209.75 81.766 210.602 81.766C211.214 81.766 211.796 81.874 212.348 82.09C212.912 82.294 213.374 82.582 213.734 82.954L213.302 83.818C212.834 83.434 212.384 83.158 211.952 82.99C211.532 82.81 211.094 82.72 210.638 82.72C209.666 82.72 208.898 83.056 208.334 83.728C207.77 84.388 207.488 85.306 207.488 86.482C207.488 87.634 207.764 88.534 208.316 89.182C208.88 89.83 209.654 90.154 210.638 90.154C211.094 90.154 211.532 90.07 211.952 89.902C212.384 89.722 212.834 89.446 213.302 89.074L213.734 89.92C213.35 90.292 212.87 90.586 212.294 90.802C211.73 91.018 211.154 91.126 210.566 91.126ZM217.266 82.864V88.228C217.266 88.948 217.404 89.446 217.68 89.722C217.956 89.998 218.364 90.136 218.904 90.136C219.24 90.136 219.564 90.082 219.876 89.974V90.964C219.492 91.06 219.102 91.108 218.706 91.108C217.914 91.108 217.29 90.886 216.834 90.442C216.39 89.998 216.168 89.332 216.168 88.444V82.864H214.386V81.982H216.168V79.588L217.266 79.174V81.982H219.93V82.864H217.266ZM227.919 82.864V88.228C227.919 88.948 228.057 89.446 228.333 89.722C228.609 89.998 229.017 90.136 229.557 90.136C229.893 90.136 230.217 90.082 230.529 89.974V90.964C230.145 91.06 229.755 91.108 229.359 91.108C228.567 91.108 227.943 90.886 227.487 90.442C227.043 89.998 226.821 89.332 226.821 88.444V82.864H225.039V81.982H226.821V79.588L227.919 79.174V81.982H230.583V82.864H227.919ZM236.341 81.766C236.641 81.766 236.905 81.79 237.133 81.838L237.079 82.828C236.851 82.78 236.575 82.756 236.251 82.756C235.339 82.756 234.655 83.05 234.199 83.638C233.755 84.214 233.533 84.904 233.533 85.708V91H232.453V84.484C232.453 83.548 232.405 82.714 232.309 81.982H233.353L233.497 83.656C233.725 83.044 234.091 82.576 234.595 82.252C235.111 81.928 235.693 81.766 236.341 81.766ZM238.728 81.982H239.808V91H238.728V81.982ZM240.024 78.256V79.66H238.566V78.256H240.024ZM247.036 81.766C247.828 81.766 248.524 81.964 249.124 82.36C249.736 82.744 250.21 83.296 250.546 84.016C250.882 84.724 251.05 85.546 251.05 86.482C251.05 87.418 250.882 88.234 250.546 88.93C250.222 89.626 249.754 90.166 249.142 90.55C248.53 90.934 247.828 91.126 247.036 91.126C246.28 91.126 245.632 90.964 245.092 90.64C244.564 90.304 244.168 89.824 243.904 89.2V94.888H242.824V84.484C242.824 83.548 242.776 82.714 242.68 81.982H243.724L243.868 83.746C244.132 83.11 244.534 82.624 245.074 82.288C245.626 81.94 246.28 81.766 247.036 81.766ZM246.892 90.154C247.84 90.154 248.578 89.836 249.106 89.2C249.634 88.552 249.898 87.646 249.898 86.482C249.898 85.306 249.634 84.388 249.106 83.728C248.578 83.056 247.846 82.72 246.91 82.72C245.95 82.72 245.212 83.044 244.696 83.692C244.18 84.34 243.922 85.258 243.922 86.446C243.922 87.622 244.18 88.534 244.696 89.182C245.212 89.83 245.944 90.154 246.892 90.154ZM271.475 81.982L268.199 91H267.065L264.329 83.386L261.575 91H260.423L257.165 81.982H258.335L260.999 89.686L263.807 81.982H264.905L267.623 89.686L270.359 81.982H271.475ZM273.586 81.982H274.666V91H273.586V81.982ZM274.882 78.256V79.66H273.424V78.256H274.882ZM279.212 82.864V88.228C279.212 88.948 279.35 89.446 279.626 89.722C279.902 89.998 280.31 90.136 280.85 90.136C281.186 90.136 281.51 90.082 281.822 89.974V90.964C281.438 91.06 281.048 91.108 280.652 91.108C279.86 91.108 279.236 90.886 278.78 90.442C278.336 89.998 278.114 89.332 278.114 88.444V82.864H276.332V81.982H278.114V79.588L279.212 79.174V81.982H281.876V82.864H279.212ZM287.94 81.766C290.112 81.766 291.198 82.93 291.198 85.258V91H290.1V85.33C290.1 84.43 289.914 83.77 289.542 83.35C289.182 82.93 288.612 82.72 287.832 82.72C286.932 82.72 286.206 82.996 285.654 83.548C285.102 84.1 284.826 84.844 284.826 85.78V91H283.746V77.752H284.826V83.548C285.114 82.96 285.528 82.516 286.068 82.216C286.608 81.916 287.232 81.766 287.94 81.766ZM2.07 114.356V114.41C2.07 115.622 2.346 116.552 2.898 117.2C3.462 117.836 4.278 118.154 5.346 118.154C6.426 118.154 7.416 117.782 8.316 117.038L8.748 117.902C8.352 118.274 7.848 118.574 7.236 118.802C6.624 119.018 5.994 119.126 5.346 119.126C3.978 119.126 2.898 118.712 2.106 117.884C1.314 117.056 0.918 115.916 0.918 114.464C0.918 113.54 1.092 112.724 1.44 112.016C1.8 111.296 2.298 110.744 2.934 110.36C3.57 109.964 4.302 109.766 5.13 109.766C6.318 109.766 7.242 110.15 7.902 110.918C8.574 111.686 8.91 112.754 8.91 114.122V114.356H2.07ZM5.13 110.666C4.302 110.666 3.63 110.918 3.114 111.422C2.598 111.914 2.274 112.61 2.142 113.51H7.866C7.794 112.586 7.524 111.884 7.056 111.404C6.588 110.912 5.946 110.666 5.13 110.666ZM18.7592 119H17.4092L14.3672 115.202L11.3612 119H9.99323L13.7012 114.356L10.1912 109.982H11.5592L14.3672 113.51L17.1752 109.982H18.5432L15.0512 114.356L18.7592 119ZM24.831 109.766C25.623 109.766 26.319 109.964 26.919 110.36C27.531 110.744 28.005 111.296 28.341 112.016C28.677 112.724 28.845 113.546 28.845 114.482C28.845 115.418 28.677 116.234 28.341 116.93C28.017 117.626 27.549 118.166 26.937 118.55C26.325 118.934 25.623 119.126 24.831 119.126C24.075 119.126 23.427 118.964 22.887 118.64C22.359 118.304 21.963 117.824 21.699 117.2V122.888H20.619V112.484C20.619 111.548 20.571 110.714 20.475 109.982H21.519L21.663 111.746C21.927 111.11 22.329 110.624 22.869 110.288C23.421 109.94 24.075 109.766 24.831 109.766ZM24.687 118.154C25.635 118.154 26.373 117.836 26.901 117.2C27.429 116.552 27.693 115.646 27.693 114.482C27.693 113.306 27.429 112.388 26.901 111.728C26.373 111.056 25.641 110.72 24.705 110.72C23.745 110.72 23.007 111.044 22.491 111.692C21.975 112.34 21.717 113.258 21.717 114.446C21.717 115.622 21.975 116.534 22.491 117.182C23.007 117.83 23.739 118.154 24.687 118.154ZM31.8298 114.356V114.41C31.8298 115.622 32.1058 116.552 32.6578 117.2C33.2218 117.836 34.0378 118.154 35.1058 118.154C36.1858 118.154 37.1758 117.782 38.0758 117.038L38.5078 117.902C38.1118 118.274 37.6078 118.574 36.9958 118.802C36.3838 119.018 35.7538 119.126 35.1058 119.126C33.7378 119.126 32.6578 118.712 31.8658 117.884C31.0738 117.056 30.6778 115.916 30.6778 114.464C30.6778 113.54 30.8518 112.724 31.1998 112.016C31.5598 111.296 32.0578 110.744 32.6938 110.36C33.3298 109.964 34.0618 109.766 34.8898 109.766C36.0778 109.766 37.0018 110.15 37.6618 110.918C38.3338 111.686 38.6698 112.754 38.6698 114.122V114.356H31.8298ZM34.8898 110.666C34.0618 110.666 33.3898 110.918 32.8738 111.422C32.3578 111.914 32.0338 112.61 31.9018 113.51H37.6258C37.5538 112.586 37.2838 111.884 36.8158 111.404C36.3478 110.912 35.7058 110.666 34.8898 110.666ZM44.9152 109.766C45.2152 109.766 45.4792 109.79 45.7072 109.838L45.6532 110.828C45.4252 110.78 45.1492 110.756 44.8252 110.756C43.9132 110.756 43.2292 111.05 42.7732 111.638C42.3292 112.214 42.1072 112.904 42.1072 113.708V119H41.0272V112.484C41.0272 111.548 40.9792 110.714 40.8832 109.982H41.9272L42.0712 111.656C42.2992 111.044 42.6652 110.576 43.1692 110.252C43.6852 109.928 44.2672 109.766 44.9152 109.766ZM49.483 110.864V116.228C49.483 116.948 49.621 117.446 49.897 117.722C50.173 117.998 50.581 118.136 51.121 118.136C51.457 118.136 51.781 118.082 52.093 117.974V118.964C51.709 119.06 51.319 119.108 50.923 119.108C50.131 119.108 49.507 118.886 49.051 118.442C48.607 117.998 48.385 117.332 48.385 116.444V110.864H46.603V109.982H48.385V107.588L49.483 107.174V109.982H52.147V110.864H49.483ZM66.2553 109.982V119H65.1573V117.272C64.8933 117.872 64.4913 118.334 63.9513 118.658C63.4233 118.97 62.7873 119.126 62.0433 119.126C61.2393 119.126 60.5313 118.94 59.9193 118.568C59.3193 118.184 58.8513 117.644 58.5153 116.948C58.1913 116.24 58.0293 115.418 58.0293 114.482C58.0293 113.546 58.1973 112.724 58.5333 112.016C58.8693 111.296 59.3373 110.744 59.9373 110.36C60.5493 109.964 61.2513 109.766 62.0433 109.766C62.7753 109.766 63.4053 109.922 63.9333 110.234C64.4733 110.546 64.8813 111.002 65.1573 111.602V109.982H66.2553ZM62.2053 118.154C63.1413 118.154 63.8673 117.83 64.3833 117.182C64.8993 116.534 65.1573 115.622 65.1573 114.446C65.1573 113.258 64.8993 112.34 64.3833 111.692C63.8673 111.044 63.1353 110.72 62.1873 110.72C61.2393 110.72 60.5013 111.056 59.9733 111.728C59.4453 112.388 59.1813 113.306 59.1813 114.482C59.1813 115.646 59.4453 116.552 59.9733 117.2C60.5013 117.836 61.2453 118.154 62.2053 118.154ZM76.8901 105.752V119H75.7921V117.272C75.5281 117.872 75.1261 118.334 74.5861 118.658C74.0581 118.97 73.4221 119.126 72.6781 119.126C71.8861 119.126 71.1841 118.934 70.5721 118.55C69.9721 118.154 69.5041 117.602 69.1681 116.894C68.8321 116.174 68.6641 115.346 68.6641 114.41C68.6641 113.474 68.8261 112.658 69.1501 111.962C69.4861 111.254 69.9541 110.714 70.5541 110.342C71.1661 109.958 71.8741 109.766 72.6781 109.766C73.4101 109.766 74.0401 109.922 74.5681 110.234C75.1081 110.546 75.5161 111.002 75.7921 111.602V105.752H76.8901ZM72.8221 118.154C73.7701 118.154 74.5021 117.83 75.0181 117.182C75.5341 116.534 75.7921 115.622 75.7921 114.446C75.7921 113.27 75.5341 112.358 75.0181 111.71C74.5021 111.05 73.7761 110.72 72.8401 110.72C71.8801 110.72 71.1361 111.044 70.6081 111.692C70.0801 112.34 69.8161 113.246 69.8161 114.41C69.8161 115.586 70.0801 116.504 70.6081 117.164C71.1361 117.824 71.8741 118.154 72.8221 118.154ZM87.5249 109.982L83.6549 119H82.5209L78.7049 109.982H79.8749L83.1329 117.902L86.4089 109.982H87.5249ZM89.3319 109.982H90.4119V119H89.3319V109.982ZM90.6279 106.256V107.66H89.1699V106.256H90.6279ZM97.0816 119.126C96.2296 119.126 95.4856 118.934 94.8496 118.55C94.2136 118.166 93.7216 117.626 93.3736 116.93C93.0256 116.222 92.8516 115.406 92.8516 114.482C92.8516 113.546 93.0256 112.724 93.3736 112.016C93.7216 111.296 94.2196 110.744 94.8676 110.36C95.5156 109.964 96.2656 109.766 97.1176 109.766C97.7296 109.766 98.3116 109.874 98.8636 110.09C99.4276 110.294 99.8896 110.582 100.25 110.954L99.8176 111.818C99.3496 111.434 98.8996 111.158 98.4676 110.99C98.0476 110.81 97.6096 110.72 97.1536 110.72C96.1816 110.72 95.4136 111.056 94.8496 111.728C94.2856 112.388 94.0036 113.306 94.0036 114.482C94.0036 115.634 94.2796 116.534 94.8316 117.182C95.3956 117.83 96.1696 118.154 97.1536 118.154C97.6096 118.154 98.0476 118.07 98.4676 117.902C98.8996 117.722 99.3496 117.446 99.8176 117.074L100.25 117.92C99.8656 118.292 99.3856 118.586 98.8096 118.802C98.2456 119.018 97.6696 119.126 97.0816 119.126ZM102.828 114.356V114.41C102.828 115.622 103.104 116.552 103.656 117.2C104.22 117.836 105.036 118.154 106.104 118.154C107.184 118.154 108.174 117.782 109.074 117.038L109.506 117.902C109.11 118.274 108.606 118.574 107.994 118.802C107.382 119.018 106.752 119.126 106.104 119.126C104.736 119.126 103.656 118.712 102.864 117.884C102.072 117.056 101.676 115.916 101.676 114.464C101.676 113.54 101.85 112.724 102.198 112.016C102.558 111.296 103.056 110.744 103.692 110.36C104.328 109.964 105.06 109.766 105.888 109.766C107.076 109.766 108 110.15 108.66 110.918C109.332 111.686 109.668 112.754 109.668 114.122V114.356H102.828ZM105.888 110.666C105.06 110.666 104.388 110.918 103.872 111.422C103.356 111.914 103.032 112.61 102.9 113.51H108.624C108.552 112.586 108.282 111.884 107.814 111.404C107.346 110.912 106.704 110.666 105.888 110.666ZM113.303 117.434V118.586C113.303 119.042 113.231 119.462 113.087 119.846C112.943 120.23 112.703 120.59 112.367 120.926L111.791 120.476C112.199 120.02 112.427 119.528 112.475 119H111.773V117.434H113.303ZM122.133 110.864V116.228C122.133 116.948 122.271 117.446 122.547 117.722C122.823 117.998 123.231 118.136 123.771 118.136C124.107 118.136 124.431 118.082 124.743 117.974V118.964C124.359 119.06 123.969 119.108 123.573 119.108C122.781 119.108 122.157 118.886 121.701 118.442C121.257 117.998 121.035 117.332 121.035 116.444V110.864H119.253V109.982H121.035V107.588L122.133 107.174V109.982H124.797V110.864H122.133ZM130.556 109.766C130.856 109.766 131.12 109.79 131.348 109.838L131.294 110.828C131.066 110.78 130.79 110.756 130.466 110.756C129.554 110.756 128.87 111.05 128.414 111.638C127.97 112.214 127.748 112.904 127.748 113.708V119H126.668V112.484C126.668 111.548 126.62 110.714 126.524 109.982H127.568L127.712 111.656C127.94 111.044 128.306 110.576 128.81 110.252C129.326 109.928 129.908 109.766 130.556 109.766ZM140.417 109.982V119H139.319V117.272C139.055 117.872 138.653 118.334 138.113 118.658C137.585 118.97 136.949 119.126 136.205 119.126C135.401 119.126 134.693 118.94 134.081 118.568C133.481 118.184 133.013 117.644 132.677 116.948C132.353 116.24 132.191 115.418 132.191 114.482C132.191 113.546 132.359 112.724 132.695 112.016C133.031 111.296 133.499 110.744 134.099 110.36C134.711 109.964 135.413 109.766 136.205 109.766C136.937 109.766 137.567 109.922 138.095 110.234C138.635 110.546 139.043 111.002 139.319 111.602V109.982H140.417ZM136.367 118.154C137.303 118.154 138.029 117.83 138.545 117.182C139.061 116.534 139.319 115.622 139.319 114.446C139.319 113.258 139.061 112.34 138.545 111.692C138.029 111.044 137.297 110.72 136.349 110.72C135.401 110.72 134.663 111.056 134.135 111.728C133.607 112.388 133.343 113.306 133.343 114.482C133.343 115.646 133.607 116.552 134.135 117.2C134.663 117.836 135.407 118.154 136.367 118.154ZM151.052 109.982L147.182 119H146.048L142.232 109.982H143.402L146.66 117.902L149.936 109.982H151.052ZM153.347 114.356V114.41C153.347 115.622 153.623 116.552 154.175 117.2C154.739 117.836 155.555 118.154 156.623 118.154C157.703 118.154 158.693 117.782 159.593 117.038L160.025 117.902C159.629 118.274 159.125 118.574 158.513 118.802C157.901 119.018 157.271 119.126 156.623 119.126C155.255 119.126 154.175 118.712 153.383 117.884C152.591 117.056 152.195 115.916 152.195 114.464C152.195 113.54 152.369 112.724 152.717 112.016C153.077 111.296 153.575 110.744 154.211 110.36C154.847 109.964 155.579 109.766 156.407 109.766C157.595 109.766 158.519 110.15 159.179 110.918C159.851 111.686 160.187 112.754 160.187 114.122V114.356H153.347ZM156.407 110.666C155.579 110.666 154.907 110.918 154.391 111.422C153.875 111.914 153.551 112.61 153.419 113.51H159.143C159.071 112.586 158.801 111.884 158.333 111.404C157.865 110.912 157.223 110.666 156.407 110.666ZM162.545 105.752H163.625V119H162.545V105.752ZM172.758 110.864V116.228C172.758 116.948 172.896 117.446 173.172 117.722C173.448 117.998 173.856 118.136 174.396 118.136C174.732 118.136 175.056 118.082 175.368 117.974V118.964C174.984 119.06 174.594 119.108 174.198 119.108C173.406 119.108 172.782 118.886 172.326 118.442C171.882 117.998 171.66 117.332 171.66 116.444V110.864H169.878V109.982H171.66V107.588L172.758 107.174V109.982H175.422V110.864H172.758ZM177.293 109.982H178.373V119H177.293V109.982ZM178.589 106.256V107.66H177.131V106.256H178.589ZM185.601 109.766C186.393 109.766 187.089 109.964 187.689 110.36C188.301 110.744 188.775 111.296 189.111 112.016C189.447 112.724 189.615 113.546 189.615 114.482C189.615 115.418 189.447 116.234 189.111 116.93C188.787 117.626 188.319 118.166 187.707 118.55C187.095 118.934 186.393 119.126 185.601 119.126C184.845 119.126 184.197 118.964 183.657 118.64C183.129 118.304 182.733 117.824 182.469 117.2V122.888H181.389V112.484C181.389 111.548 181.341 110.714 181.245 109.982H182.289L182.433 111.746C182.697 111.11 183.099 110.624 183.639 110.288C184.191 109.94 184.845 109.766 185.601 109.766ZM185.457 118.154C186.405 118.154 187.143 117.836 187.671 117.2C188.199 116.552 188.463 115.646 188.463 114.482C188.463 113.306 188.199 112.388 187.671 111.728C187.143 111.056 186.411 110.72 185.475 110.72C184.515 110.72 183.777 111.044 183.261 111.692C182.745 112.34 182.487 113.258 182.487 114.446C182.487 115.622 182.745 116.534 183.261 117.182C183.777 117.83 184.509 118.154 185.457 118.154ZM194.957 119.126C193.493 119.126 192.335 118.724 191.483 117.92L191.879 117.074C192.359 117.47 192.839 117.752 193.319 117.92C193.811 118.088 194.375 118.172 195.011 118.172C195.755 118.172 196.319 118.046 196.703 117.794C197.099 117.53 197.297 117.152 197.297 116.66C197.297 116.252 197.165 115.934 196.901 115.706C196.649 115.466 196.229 115.274 195.641 115.13L194.111 114.788C193.391 114.62 192.821 114.32 192.401 113.888C191.993 113.456 191.789 112.952 191.789 112.376C191.789 111.584 192.089 110.954 192.689 110.486C193.301 110.006 194.111 109.766 195.119 109.766C195.755 109.766 196.343 109.868 196.883 110.072C197.435 110.276 197.891 110.57 198.251 110.954L197.837 111.8C197.009 111.08 196.103 110.72 195.119 110.72C194.423 110.72 193.883 110.858 193.499 111.134C193.115 111.41 192.923 111.794 192.923 112.286C192.923 112.694 193.043 113.024 193.283 113.276C193.535 113.528 193.919 113.714 194.435 113.834L195.983 114.212C197.603 114.572 198.413 115.37 198.413 116.606C198.413 117.362 198.101 117.974 197.477 118.442C196.853 118.898 196.013 119.126 194.957 119.126ZM213.156 105.752V119H212.058V117.272C211.794 117.872 211.392 118.334 210.852 118.658C210.324 118.97 209.688 119.126 208.944 119.126C208.152 119.126 207.45 118.934 206.838 118.55C206.238 118.154 205.77 117.602 205.434 116.894C205.098 116.174 204.93 115.346 204.93 114.41C204.93 113.474 205.092 112.658 205.416 111.962C205.752 111.254 206.22 110.714 206.82 110.342C207.432 109.958 208.14 109.766 208.944 109.766C209.676 109.766 210.306 109.922 210.834 110.234C211.374 110.546 211.782 111.002 212.058 111.602V105.752H213.156ZM209.088 118.154C210.036 118.154 210.768 117.83 211.284 117.182C211.8 116.534 212.058 115.622 212.058 114.446C212.058 113.27 211.8 112.358 211.284 111.71C210.768 111.05 210.042 110.72 209.106 110.72C208.146 110.72 207.402 111.044 206.874 111.692C206.346 112.34 206.082 113.246 206.082 114.41C206.082 115.586 206.346 116.504 206.874 117.164C207.402 117.824 208.14 118.154 209.088 118.154ZM216.716 114.356V114.41C216.716 115.622 216.992 116.552 217.544 117.2C218.108 117.836 218.924 118.154 219.992 118.154C221.072 118.154 222.062 117.782 222.962 117.038L223.394 117.902C222.998 118.274 222.494 118.574 221.882 118.802C221.27 119.018 220.64 119.126 219.992 119.126C218.624 119.126 217.544 118.712 216.752 117.884C215.96 117.056 215.564 115.916 215.564 114.464C215.564 113.54 215.738 112.724 216.086 112.016C216.446 111.296 216.944 110.744 217.58 110.36C218.216 109.964 218.948 109.766 219.776 109.766C220.964 109.766 221.888 110.15 222.548 110.918C223.22 111.686 223.556 112.754 223.556 114.122V114.356H216.716ZM219.776 110.666C218.948 110.666 218.276 110.918 217.76 111.422C217.244 111.914 216.92 112.61 216.788 113.51H222.512C222.44 112.586 222.17 111.884 221.702 111.404C221.234 110.912 220.592 110.666 219.776 110.666ZM228.848 119.126C227.384 119.126 226.226 118.724 225.374 117.92L225.77 117.074C226.25 117.47 226.73 117.752 227.21 117.92C227.702 118.088 228.266 118.172 228.902 118.172C229.646 118.172 230.21 118.046 230.594 117.794C230.99 117.53 231.188 117.152 231.188 116.66C231.188 116.252 231.056 115.934 230.792 115.706C230.54 115.466 230.12 115.274 229.532 115.13L228.002 114.788C227.282 114.62 226.712 114.32 226.292 113.888C225.884 113.456 225.68 112.952 225.68 112.376C225.68 111.584 225.98 110.954 226.58 110.486C227.192 110.006 228.002 109.766 229.01 109.766C229.646 109.766 230.234 109.868 230.774 110.072C231.326 110.276 231.782 110.57 232.142 110.954L231.728 111.8C230.9 111.08 229.994 110.72 229.01 110.72C228.314 110.72 227.774 110.858 227.39 111.134C227.006 111.41 226.814 111.794 226.814 112.286C226.814 112.694 226.934 113.024 227.174 113.276C227.426 113.528 227.81 113.714 228.326 113.834L229.874 114.212C231.494 114.572 232.304 115.37 232.304 116.606C232.304 117.362 231.992 117.974 231.368 118.442C230.744 118.898 229.904 119.126 228.848 119.126ZM236.251 110.864V116.228C236.251 116.948 236.389 117.446 236.665 117.722C236.941 117.998 237.349 118.136 237.889 118.136C238.225 118.136 238.549 118.082 238.861 117.974V118.964C238.477 119.06 238.087 119.108 237.691 119.108C236.899 119.108 236.275 118.886 235.819 118.442C235.375 117.998 235.153 117.332 235.153 116.444V110.864H233.371V109.982H235.153V107.588L236.251 107.174V109.982H238.915V110.864H236.251ZM240.785 109.982H241.865V119H240.785V109.982ZM242.081 106.256V107.66H240.623V106.256H242.081ZM249.075 109.766C251.247 109.766 252.333 110.93 252.333 113.258V119H251.235V113.33C251.235 112.43 251.049 111.77 250.677 111.35C250.317 110.93 249.747 110.72 248.967 110.72C248.067 110.72 247.341 110.996 246.789 111.548C246.237 112.1 245.961 112.844 245.961 113.78V119H244.881V112.484C244.881 111.548 244.833 110.714 244.737 109.982H245.781L245.925 111.638C246.201 111.026 246.615 110.564 247.167 110.252C247.719 109.928 248.355 109.766 249.075 109.766ZM262.937 109.982V119H261.839V117.272C261.575 117.872 261.173 118.334 260.633 118.658C260.105 118.97 259.469 119.126 258.725 119.126C257.921 119.126 257.213 118.94 256.601 118.568C256.001 118.184 255.533 117.644 255.197 116.948C254.873 116.24 254.711 115.418 254.711 114.482C254.711 113.546 254.879 112.724 255.215 112.016C255.551 111.296 256.019 110.744 256.619 110.36C257.231 109.964 257.933 109.766 258.725 109.766C259.457 109.766 260.087 109.922 260.615 110.234C261.155 110.546 261.563 111.002 261.839 111.602V109.982H262.937ZM258.887 118.154C259.823 118.154 260.549 117.83 261.065 117.182C261.581 116.534 261.839 115.622 261.839 114.446C261.839 113.258 261.581 112.34 261.065 111.692C260.549 111.044 259.817 110.72 258.869 110.72C257.921 110.72 257.183 111.056 256.655 111.728C256.127 112.388 255.863 113.306 255.863 114.482C255.863 115.646 256.127 116.552 256.655 117.2C257.183 117.836 257.927 118.154 258.887 118.154ZM267.452 110.864V116.228C267.452 116.948 267.59 117.446 267.866 117.722C268.142 117.998 268.55 118.136 269.09 118.136C269.426 118.136 269.75 118.082 270.062 117.974V118.964C269.678 119.06 269.288 119.108 268.892 119.108C268.1 119.108 267.476 118.886 267.02 118.442C266.576 117.998 266.354 117.332 266.354 116.444V110.864H264.572V109.982H266.354V107.588L267.452 107.174V109.982H270.116V110.864H267.452ZM271.986 109.982H273.066V119H271.986V109.982ZM273.282 106.256V107.66H271.824V106.256H273.282ZM279.664 119.126C278.836 119.126 278.104 118.934 277.468 118.55C276.844 118.166 276.358 117.62 276.01 116.912C275.674 116.204 275.506 115.382 275.506 114.446C275.506 113.51 275.674 112.688 276.01 111.98C276.358 111.272 276.844 110.726 277.468 110.342C278.104 109.958 278.836 109.766 279.664 109.766C280.48 109.766 281.2 109.958 281.824 110.342C282.448 110.726 282.928 111.272 283.264 111.98C283.612 112.688 283.786 113.51 283.786 114.446C283.786 115.382 283.612 116.204 283.264 116.912C282.928 117.62 282.448 118.166 281.824 118.55C281.2 118.934 280.48 119.126 279.664 119.126ZM279.646 118.154C280.606 118.154 281.344 117.836 281.86 117.2C282.388 116.552 282.652 115.634 282.652 114.446C282.652 113.27 282.388 112.358 281.86 111.71C281.332 111.05 280.6 110.72 279.664 110.72C278.716 110.72 277.978 111.05 277.45 111.71C276.922 112.358 276.658 113.27 276.658 114.446C276.658 115.646 276.916 116.564 277.432 117.2C277.948 117.836 278.686 118.154 279.646 118.154ZM290.383 109.766C292.555 109.766 293.641 110.93 293.641 113.258V119H292.543V113.33C292.543 112.43 292.357 111.77 291.985 111.35C291.625 110.93 291.055 110.72 290.275 110.72C289.375 110.72 288.649 110.996 288.097 111.548C287.545 112.1 287.269 112.844 287.269 113.78V119H286.189V112.484C286.189 111.548 286.141 110.714 286.045 109.982H287.089L287.233 111.638C287.509 111.026 287.923 110.564 288.475 110.252C289.027 109.928 289.663 109.766 290.383 109.766ZM1.494 137.982H2.574V147H1.494V137.982ZM2.79 134.256V135.66H1.332V134.256H2.79ZM9.7837 137.766C11.9557 137.766 13.0417 138.93 13.0417 141.258V147H11.9437V141.33C11.9437 140.43 11.7577 139.77 11.3857 139.35C11.0257 138.93 10.4557 138.72 9.6757 138.72C8.7757 138.72 8.0497 138.996 7.4977 139.548C6.9457 140.1 6.6697 140.844 6.6697 141.78V147H5.5897V140.484C5.5897 139.548 5.5417 138.714 5.4457 137.982H6.4897L6.6337 139.638C6.9097 139.026 7.3237 138.564 7.8757 138.252C8.4277 137.928 9.0637 137.766 9.7837 137.766ZM19.11 134.67C18.594 134.67 18.198 134.808 17.922 135.084C17.646 135.36 17.508 135.852 17.508 136.56V137.982H19.83V138.864H17.508V147H16.41V138.864H14.646V137.982H16.41V136.362C16.41 135.462 16.632 134.79 17.076 134.346C17.52 133.902 18.132 133.68 18.912 133.68C19.272 133.68 19.644 133.728 20.028 133.824V134.814C19.704 134.718 19.398 134.67 19.11 134.67ZM25.326 147.126C24.498 147.126 23.766 146.934 23.13 146.55C22.506 146.166 22.02 145.62 21.672 144.912C21.336 144.204 21.168 143.382 21.168 142.446C21.168 141.51 21.336 140.688 21.672 139.98C22.02 139.272 22.506 138.726 23.13 138.342C23.766 137.958 24.498 137.766 25.326 137.766C26.142 137.766 26.862 137.958 27.486 138.342C28.11 138.726 28.59 139.272 28.926 139.98C29.274 140.688 29.448 141.51 29.448 142.446C29.448 143.382 29.274 144.204 28.926 144.912C28.59 145.62 28.11 146.166 27.486 146.55C26.862 146.934 26.142 147.126 25.326 147.126ZM25.308 146.154C26.268 146.154 27.006 145.836 27.522 145.2C28.05 144.552 28.314 143.634 28.314 142.446C28.314 141.27 28.05 140.358 27.522 139.71C26.994 139.05 26.262 138.72 25.326 138.72C24.378 138.72 23.64 139.05 23.112 139.71C22.584 140.358 22.32 141.27 22.32 142.446C22.32 143.646 22.578 144.564 23.094 145.2C23.61 145.836 24.348 146.154 25.308 146.154ZM35.7394 137.766C36.0394 137.766 36.3034 137.79 36.5314 137.838L36.4774 138.828C36.2494 138.78 35.9734 138.756 35.6494 138.756C34.7374 138.756 34.0534 139.05 33.5974 139.638C33.1534 140.214 32.9314 140.904 32.9314 141.708V147H31.8514V140.484C31.8514 139.548 31.8034 138.714 31.7074 137.982H32.7514L32.8954 139.656C33.1234 139.044 33.4894 138.576 33.9934 138.252C34.5094 137.928 35.0914 137.766 35.7394 137.766ZM47.8468 137.766C49.8388 137.766 50.8348 138.93 50.8348 141.258V147H49.7368V141.33C49.7368 140.418 49.5748 139.758 49.2508 139.35C48.9268 138.93 48.4108 138.72 47.7028 138.72C46.8748 138.72 46.2208 138.996 45.7408 139.548C45.2728 140.1 45.0388 140.85 45.0388 141.798V147H43.9408V141.33C43.9408 140.418 43.7728 139.758 43.4368 139.35C43.1128 138.93 42.5968 138.72 41.8888 138.72C41.0728 138.72 40.4188 138.996 39.9268 139.548C39.4468 140.1 39.2068 140.85 39.2068 141.798V147H38.1268V140.484C38.1268 139.548 38.0788 138.714 37.9828 137.982H39.0268L39.1708 139.602C39.4228 139.002 39.7948 138.546 40.2868 138.234C40.7908 137.922 41.3728 137.766 42.0328 137.766C43.4848 137.766 44.4148 138.354 44.8228 139.53C45.0748 138.978 45.4648 138.546 45.9928 138.234C46.5328 137.922 47.1508 137.766 47.8468 137.766ZM61.4213 137.982V147H60.3233V145.272C60.0593 145.872 59.6573 146.334 59.1173 146.658C58.5893 146.97 57.9533 147.126 57.2093 147.126C56.4053 147.126 55.6973 146.94 55.0853 146.568C54.4853 146.184 54.0173 145.644 53.6813 144.948C53.3573 144.24 53.1953 143.418 53.1953 142.482C53.1953 141.546 53.3633 140.724 53.6993 140.016C54.0353 139.296 54.5033 138.744 55.1033 138.36C55.7153 137.964 56.4173 137.766 57.2093 137.766C57.9413 137.766 58.5713 137.922 59.0993 138.234C59.6393 138.546 60.0473 139.002 60.3233 139.602V137.982H61.4213ZM57.3713 146.154C58.3073 146.154 59.0333 145.83 59.5493 145.182C60.0653 144.534 60.3233 143.622 60.3233 142.446C60.3233 141.258 60.0653 140.34 59.5493 139.692C59.0333 139.044 58.3013 138.72 57.3533 138.72C56.4053 138.72 55.6673 139.056 55.1393 139.728C54.6113 140.388 54.3473 141.306 54.3473 142.482C54.3473 143.646 54.6113 144.552 55.1393 145.2C55.6673 145.836 56.4113 146.154 57.3713 146.154ZM65.9361 138.864V144.228C65.9361 144.948 66.0741 145.446 66.3501 145.722C66.6261 145.998 67.0341 146.136 67.5741 146.136C67.9101 146.136 68.2341 146.082 68.5461 145.974V146.964C68.1621 147.06 67.7721 147.108 67.3761 147.108C66.5841 147.108 65.9601 146.886 65.5041 146.442C65.0601 145.998 64.8381 145.332 64.8381 144.444V138.864H63.0561V137.982H64.8381V135.588L65.9361 135.174V137.982H68.6001V138.864H65.9361ZM70.4706 137.982H71.5506V147H70.4706V137.982ZM71.7666 134.256V135.66H70.3086V134.256H71.7666ZM78.1483 147.126C77.3203 147.126 76.5883 146.934 75.9523 146.55C75.3283 146.166 74.8423 145.62 74.4943 144.912C74.1583 144.204 73.9903 143.382 73.9903 142.446C73.9903 141.51 74.1583 140.688 74.4943 139.98C74.8423 139.272 75.3283 138.726 75.9523 138.342C76.5883 137.958 77.3203 137.766 78.1483 137.766C78.9643 137.766 79.6843 137.958 80.3083 138.342C80.9323 138.726 81.4123 139.272 81.7483 139.98C82.0963 140.688 82.2703 141.51 82.2703 142.446C82.2703 143.382 82.0963 144.204 81.7483 144.912C81.4123 145.62 80.9323 146.166 80.3083 146.55C79.6843 146.934 78.9643 147.126 78.1483 147.126ZM78.1303 146.154C79.0903 146.154 79.8283 145.836 80.3443 145.2C80.8723 144.552 81.1363 143.634 81.1363 142.446C81.1363 141.27 80.8723 140.358 80.3443 139.71C79.8163 139.05 79.0843 138.72 78.1483 138.72C77.2003 138.72 76.4623 139.05 75.9343 139.71C75.4063 140.358 75.1423 141.27 75.1423 142.446C75.1423 143.646 75.4003 144.564 75.9163 145.2C76.4323 145.836 77.1703 146.154 78.1303 146.154ZM88.8677 137.766C91.0397 137.766 92.1257 138.93 92.1257 141.258V147H91.0277V141.33C91.0277 140.43 90.8417 139.77 90.4697 139.35C90.1097 138.93 89.5397 138.72 88.7597 138.72C87.8597 138.72 87.1337 138.996 86.5817 139.548C86.0297 140.1 85.7537 140.844 85.7537 141.78V147H84.6737V140.484C84.6737 139.548 84.6257 138.714 84.5297 137.982H85.5737L85.7177 139.638C85.9937 139.026 86.4077 138.564 86.9597 138.252C87.5117 137.928 88.1477 137.766 88.8677 137.766ZM102.782 134.67C102.266 134.67 101.87 134.808 101.594 135.084C101.318 135.36 101.18 135.852 101.18 136.56V137.982H103.502V138.864H101.18V147H100.082V138.864H98.3178V137.982H100.082V136.362C100.082 135.462 100.304 134.79 100.748 134.346C101.192 133.902 101.804 133.68 102.584 133.68C102.944 133.68 103.316 133.728 103.7 133.824V134.814C103.376 134.718 103.07 134.67 102.782 134.67ZM109.392 137.766C109.692 137.766 109.956 137.79 110.184 137.838L110.13 138.828C109.902 138.78 109.626 138.756 109.302 138.756C108.39 138.756 107.706 139.05 107.25 139.638C106.806 140.214 106.584 140.904 106.584 141.708V147H105.504V140.484C105.504 139.548 105.456 138.714 105.36 137.982H106.404L106.548 139.656C106.776 139.044 107.142 138.576 107.646 138.252C108.162 137.928 108.744 137.766 109.392 137.766ZM115.185 147.126C114.357 147.126 113.625 146.934 112.989 146.55C112.365 146.166 111.879 145.62 111.531 144.912C111.195 144.204 111.027 143.382 111.027 142.446C111.027 141.51 111.195 140.688 111.531 139.98C111.879 139.272 112.365 138.726 112.989 138.342C113.625 137.958 114.357 137.766 115.185 137.766C116.001 137.766 116.721 137.958 117.345 138.342C117.969 138.726 118.449 139.272 118.785 139.98C119.133 140.688 119.307 141.51 119.307 142.446C119.307 143.382 119.133 144.204 118.785 144.912C118.449 145.62 117.969 146.166 117.345 146.55C116.721 146.934 116.001 147.126 115.185 147.126ZM115.167 146.154C116.127 146.154 116.865 145.836 117.381 145.2C117.909 144.552 118.173 143.634 118.173 142.446C118.173 141.27 117.909 140.358 117.381 139.71C116.853 139.05 116.121 138.72 115.185 138.72C114.237 138.72 113.499 139.05 112.971 139.71C112.443 140.358 112.179 141.27 112.179 142.446C112.179 143.646 112.437 144.564 112.953 145.2C113.469 145.836 114.207 146.154 115.167 146.154ZM131.431 137.766C133.423 137.766 134.419 138.93 134.419 141.258V147H133.321V141.33C133.321 140.418 133.159 139.758 132.835 139.35C132.511 138.93 131.995 138.72 131.287 138.72C130.459 138.72 129.805 138.996 129.325 139.548C128.857 140.1 128.623 140.85 128.623 141.798V147H127.525V141.33C127.525 140.418 127.357 139.758 127.021 139.35C126.697 138.93 126.181 138.72 125.473 138.72C124.657 138.72 124.003 138.996 123.511 139.548C123.031 140.1 122.791 140.85 122.791 141.798V147H121.711V140.484C121.711 139.548 121.663 138.714 121.567 137.982H122.611L122.755 139.602C123.007 139.002 123.379 138.546 123.871 138.234C124.375 137.922 124.957 137.766 125.617 137.766C127.069 137.766 127.999 138.354 128.407 139.53C128.659 138.978 129.049 138.546 129.577 138.234C130.117 137.922 130.735 137.766 131.431 137.766ZM149.197 137.982V147H148.135V145.362C147.847 145.938 147.439 146.376 146.911 146.676C146.383 146.976 145.777 147.126 145.093 147.126C144.037 147.126 143.239 146.832 142.699 146.244C142.159 145.656 141.889 144.786 141.889 143.634V137.982H142.969V143.562C142.969 144.45 143.149 145.104 143.509 145.524C143.869 145.944 144.427 146.154 145.183 146.154C146.071 146.154 146.779 145.878 147.307 145.326C147.835 144.762 148.099 144.018 148.099 143.094V137.982H149.197ZM155.125 147.126C153.661 147.126 152.503 146.724 151.651 145.92L152.047 145.074C152.527 145.47 153.007 145.752 153.487 145.92C153.979 146.088 154.543 146.172 155.179 146.172C155.923 146.172 156.487 146.046 156.871 145.794C157.267 145.53 157.465 145.152 157.465 144.66C157.465 144.252 157.333 143.934 157.069 143.706C156.817 143.466 156.397 143.274 155.809 143.13L154.279 142.788C153.559 142.62 152.989 142.32 152.569 141.888C152.161 141.456 151.957 140.952 151.957 140.376C151.957 139.584 152.257 138.954 152.857 138.486C153.469 138.006 154.279 137.766 155.287 137.766C155.923 137.766 156.511 137.868 157.051 138.072C157.603 138.276 158.059 138.57 158.419 138.954L158.005 139.8C157.177 139.08 156.271 138.72 155.287 138.72C154.591 138.72 154.051 138.858 153.667 139.134C153.283 139.41 153.091 139.794 153.091 140.286C153.091 140.694 153.211 141.024 153.451 141.276C153.703 141.528 154.087 141.714 154.603 141.834L156.151 142.212C157.771 142.572 158.581 143.37 158.581 144.606C158.581 145.362 158.269 145.974 157.645 146.442C157.021 146.898 156.181 147.126 155.125 147.126Z" fill="#848484"/>
<path d="M7.004 229.085C5.87067 229.085 4.83367 228.813 3.893 228.269C2.95233 227.725 2.21 226.988 1.666 226.059C1.13333 225.118 0.867 224.076 0.867 222.931C0.867 221.786 1.13333 220.749 1.666 219.82C2.21 218.891 2.94667 218.16 3.876 217.627C4.81667 217.083 5.85933 216.811 7.004 216.811C8.14867 216.811 9.18567 217.083 10.115 217.627C11.0557 218.16 11.7923 218.896 12.325 219.837C12.869 220.766 13.141 221.798 13.141 222.931C13.141 224.076 12.869 225.118 12.325 226.059C11.7923 226.988 11.0557 227.725 10.115 228.269C9.17433 228.813 8.13733 229.085 7.004 229.085ZM7.004 228.405C8.01267 228.405 8.925 228.167 9.741 227.691C10.5683 227.204 11.22 226.546 11.696 225.719C12.172 224.88 12.41 223.951 12.41 222.931C12.41 221.922 12.172 221.004 11.696 220.177C11.22 219.338 10.5683 218.681 9.741 218.205C8.925 217.729 8.01267 217.491 7.004 217.491C5.99533 217.491 5.07733 217.729 4.25 218.205C3.42267 218.681 2.771 219.338 2.295 220.177C1.819 221.004 1.581 221.922 1.581 222.931C1.581 223.951 1.819 224.88 2.295 225.719C2.771 226.546 3.42267 227.204 4.25 227.691C5.07733 228.167 5.99533 228.405 7.004 228.405ZM7.106 226.654C6.06333 226.654 5.23033 226.32 4.607 225.651C3.995 224.982 3.689 224.076 3.689 222.931C3.689 221.798 3.995 220.902 4.607 220.245C5.23033 219.576 6.06333 219.242 7.106 219.242C7.57067 219.242 8.02967 219.327 8.483 219.497C8.93633 219.667 9.32733 219.899 9.656 220.194L9.282 220.925C8.91933 220.63 8.56233 220.415 8.211 220.279C7.871 220.143 7.514 220.075 7.14 220.075C6.36933 220.075 5.77433 220.324 5.355 220.823C4.947 221.31 4.743 222.013 4.743 222.931C4.743 223.86 4.947 224.574 5.355 225.073C5.77433 225.572 6.36933 225.821 7.14 225.821C7.52533 225.821 7.888 225.753 8.228 225.617C8.568 225.481 8.91933 225.266 9.282 224.971L9.656 225.702C9.32733 225.997 8.93633 226.229 8.483 226.399C8.02967 226.569 7.57067 226.654 7.106 226.654ZM23.1241 228.082V229H15.4911V228.218L19.7921 223.407C20.4041 222.704 20.8461 222.087 21.1181 221.554C21.3901 221.01 21.5261 220.472 21.5261 219.939C21.5261 219.214 21.3165 218.658 20.8971 218.273C20.4891 217.876 19.8998 217.678 19.1291 217.678C17.9391 217.678 16.7775 218.165 15.6441 219.14L15.2021 218.307C15.6781 217.842 16.2731 217.468 16.9871 217.185C17.7011 216.902 18.4151 216.76 19.1291 216.76C20.2058 216.76 21.0501 217.043 21.6621 217.61C22.2855 218.165 22.5971 218.925 22.5971 219.888C22.5971 220.579 22.4328 221.254 22.1041 221.911C21.7868 222.568 21.2655 223.299 20.5401 224.104L16.9021 228.082H23.1241ZM29.2885 229.136C27.9285 229.136 26.8915 228.615 26.1775 227.572C25.4748 226.518 25.1235 224.977 25.1235 222.948C25.1235 220.919 25.4748 219.384 26.1775 218.341C26.8801 217.287 27.9171 216.76 29.2885 216.76C30.6598 216.76 31.6968 217.281 32.3995 218.324C33.1021 219.367 33.4535 220.902 33.4535 222.931C33.4535 224.96 33.0965 226.501 32.3825 227.555C31.6798 228.609 30.6485 229.136 29.2885 229.136ZM29.2885 228.201C30.3311 228.201 31.1018 227.776 31.6005 226.926C32.1105 226.065 32.3655 224.733 32.3655 222.931C32.3655 221.129 32.1161 219.809 31.6175 218.97C31.1188 218.12 30.3425 217.695 29.2885 217.695C28.2458 217.695 27.4695 218.12 26.9595 218.97C26.4608 219.82 26.2115 221.14 26.2115 222.931C26.2115 224.722 26.4608 226.048 26.9595 226.909C27.4695 227.77 28.2458 228.201 29.2885 228.201ZM43.5108 228.082V229H35.8778V228.218L40.1788 223.407C40.7908 222.704 41.2328 222.087 41.5048 221.554C41.7768 221.01 41.9128 220.472 41.9128 219.939C41.9128 219.214 41.7032 218.658 41.2838 218.273C40.8758 217.876 40.2865 217.678 39.5158 217.678C38.3258 217.678 37.1642 218.165 36.0308 219.14L35.5888 218.307C36.0648 217.842 36.6598 217.468 37.3738 217.185C38.0878 216.902 38.8018 216.76 39.5158 216.76C40.5925 216.76 41.4368 217.043 42.0488 217.61C42.6722 218.165 42.9838 218.925 42.9838 219.888C42.9838 220.579 42.8195 221.254 42.4908 221.911C42.1735 222.568 41.6522 223.299 40.9268 224.104L37.2888 228.082H43.5108ZM49.6752 229.136C48.3152 229.136 47.2782 228.615 46.5642 227.572C45.8615 226.518 45.5102 224.977 45.5102 222.948C45.5102 220.919 45.8615 219.384 46.5642 218.341C47.2669 217.287 48.3039 216.76 49.6752 216.76C51.0465 216.76 52.0835 217.281 52.7862 218.324C53.4889 219.367 53.8402 220.902 53.8402 222.931C53.8402 224.96 53.4832 226.501 52.7692 227.555C52.0665 228.609 51.0352 229.136 49.6752 229.136ZM49.6752 228.201C50.7179 228.201 51.4885 227.776 51.9872 226.926C52.4972 226.065 52.7522 224.733 52.7522 222.931C52.7522 221.129 52.5029 219.809 52.0042 218.97C51.5055 218.12 50.7292 217.695 49.6752 217.695C48.6325 217.695 47.8562 218.12 47.3462 218.97C46.8475 219.82 46.5982 221.14 46.5982 222.931C46.5982 224.722 46.8475 226.048 47.3462 226.909C47.8562 227.77 48.6325 228.201 49.6752 228.201ZM63.6406 217.814H59.3056V216.896H69.0296V217.814H64.6946V229H63.6406V217.814ZM74.6005 220.279C76.6518 220.279 77.6775 221.378 77.6775 223.577V229H76.6405V223.645C76.6405 222.795 76.4648 222.172 76.1135 221.775C75.7735 221.378 75.2352 221.18 74.4985 221.18C73.6485 221.18 72.9628 221.441 72.4415 221.962C71.9202 222.483 71.6595 223.186 71.6595 224.07V229H70.6395V216.488H71.6595V221.962C71.9315 221.407 72.3225 220.987 72.8325 220.704C73.3425 220.421 73.9318 220.279 74.6005 220.279ZM83.8506 229.119C83.0686 229.119 82.3773 228.938 81.7766 228.575C81.1873 228.212 80.7283 227.697 80.3996 227.028C80.0823 226.359 79.9236 225.583 79.9236 224.699C79.9236 223.815 80.0823 223.039 80.3996 222.37C80.7283 221.701 81.1873 221.186 81.7766 220.823C82.3773 220.46 83.0686 220.279 83.8506 220.279C84.6213 220.279 85.3013 220.46 85.8906 220.823C86.48 221.186 86.9333 221.701 87.2506 222.37C87.5793 223.039 87.7436 223.815 87.7436 224.699C87.7436 225.583 87.5793 226.359 87.2506 227.028C86.9333 227.697 86.48 228.212 85.8906 228.575C85.3013 228.938 84.6213 229.119 83.8506 229.119ZM83.8336 228.201C84.7403 228.201 85.4373 227.901 85.9246 227.3C86.4233 226.688 86.6726 225.821 86.6726 224.699C86.6726 223.588 86.4233 222.727 85.9246 222.115C85.426 221.492 84.7346 221.18 83.8506 221.18C82.9553 221.18 82.2583 221.492 81.7596 222.115C81.261 222.727 81.0116 223.588 81.0116 224.699C81.0116 225.832 81.2553 226.699 81.7426 227.3C82.23 227.901 82.927 228.201 83.8336 228.201ZM96.8645 220.483V229H95.8615V227.453C95.5895 227.997 95.2042 228.411 94.7055 228.694C94.2069 228.977 93.6345 229.119 92.9885 229.119C91.9912 229.119 91.2375 228.841 90.7275 228.286C90.2175 227.731 89.9625 226.909 89.9625 225.821V220.483H90.9825V225.753C90.9825 226.592 91.1525 227.209 91.4925 227.606C91.8325 228.003 92.3595 228.201 93.0735 228.201C93.9122 228.201 94.5809 227.94 95.0795 227.419C95.5782 226.886 95.8275 226.184 95.8275 225.311V220.483H96.8645ZM102.463 229.119C101.081 229.119 99.9869 228.739 99.1823 227.98L99.5563 227.181C100.01 227.555 100.463 227.821 100.916 227.98C101.381 228.139 101.914 228.218 102.514 228.218C103.217 228.218 103.75 228.099 104.112 227.861C104.486 227.612 104.673 227.255 104.673 226.79C104.673 226.405 104.549 226.104 104.299 225.889C104.061 225.662 103.665 225.481 103.109 225.345L101.664 225.022C100.984 224.863 100.446 224.58 100.049 224.172C99.6639 223.764 99.4713 223.288 99.4713 222.744C99.4713 221.996 99.7546 221.401 100.321 220.959C100.899 220.506 101.664 220.279 102.616 220.279C103.217 220.279 103.772 220.375 104.282 220.568C104.804 220.761 105.234 221.038 105.574 221.401L105.183 222.2C104.401 221.52 103.546 221.18 102.616 221.18C101.959 221.18 101.449 221.31 101.086 221.571C100.724 221.832 100.542 222.194 100.542 222.659C100.542 223.044 100.656 223.356 100.882 223.594C101.12 223.832 101.483 224.008 101.97 224.121L103.432 224.478C104.962 224.818 105.727 225.572 105.727 226.739C105.727 227.453 105.433 228.031 104.843 228.473C104.254 228.904 103.461 229.119 102.463 229.119ZM115.318 220.483V229H114.281V227.368C114.031 227.935 113.652 228.371 113.142 228.677C112.643 228.972 112.042 229.119 111.34 229.119C110.58 229.119 109.912 228.943 109.334 228.592C108.767 228.229 108.325 227.719 108.008 227.062C107.702 226.393 107.549 225.617 107.549 224.733C107.549 223.849 107.707 223.073 108.025 222.404C108.342 221.724 108.784 221.203 109.351 220.84C109.929 220.466 110.592 220.279 111.34 220.279C112.031 220.279 112.626 220.426 113.125 220.721C113.635 221.016 114.02 221.446 114.281 222.013V220.483H115.318ZM111.493 228.201C112.377 228.201 113.062 227.895 113.55 227.283C114.037 226.671 114.281 225.81 114.281 224.699C114.281 223.577 114.037 222.71 113.55 222.098C113.062 221.486 112.371 221.18 111.476 221.18C110.58 221.18 109.883 221.497 109.385 222.132C108.886 222.755 108.637 223.622 108.637 224.733C108.637 225.832 108.886 226.688 109.385 227.3C109.883 227.901 110.586 228.201 111.493 228.201ZM122.098 220.279C124.149 220.279 125.175 221.378 125.175 223.577V229H124.138V223.645C124.138 222.795 123.962 222.172 123.611 221.775C123.271 221.378 122.732 221.18 121.996 221.18C121.146 221.18 120.46 221.441 119.939 221.962C119.417 222.483 119.157 223.186 119.157 224.07V229H118.137V222.846C118.137 221.962 118.091 221.174 118.001 220.483H118.987L119.123 222.047C119.383 221.469 119.774 221.033 120.296 220.738C120.817 220.432 121.418 220.279 122.098 220.279ZM135.19 216.488V229H134.153V227.368C133.903 227.935 133.524 228.371 133.014 228.677C132.515 228.972 131.914 229.119 131.212 229.119C130.464 229.119 129.801 228.938 129.223 228.575C128.656 228.201 128.214 227.68 127.897 227.011C127.579 226.331 127.421 225.549 127.421 224.665C127.421 223.781 127.574 223.01 127.88 222.353C128.197 221.684 128.639 221.174 129.206 220.823C129.784 220.46 130.452 220.279 131.212 220.279C131.903 220.279 132.498 220.426 132.997 220.721C133.507 221.016 133.892 221.446 134.153 222.013V216.488H135.19ZM131.348 228.201C132.243 228.201 132.934 227.895 133.422 227.283C133.909 226.671 134.153 225.81 134.153 224.699C134.153 223.588 133.909 222.727 133.422 222.115C132.934 221.492 132.249 221.18 131.365 221.18C130.458 221.18 129.755 221.486 129.257 222.098C128.758 222.71 128.509 223.566 128.509 224.665C128.509 225.776 128.758 226.643 129.257 227.266C129.755 227.889 130.452 228.201 131.348 228.201ZM146.252 229.136C145.3 229.136 144.455 229.011 143.719 228.762C142.993 228.501 142.347 228.099 141.781 227.555L142.223 226.722C142.823 227.255 143.43 227.634 144.042 227.861C144.665 228.088 145.402 228.201 146.252 228.201C147.272 228.201 148.065 227.991 148.632 227.572C149.198 227.153 149.482 226.563 149.482 225.804C149.482 225.362 149.34 225.005 149.057 224.733C148.785 224.45 148.433 224.229 148.003 224.07C147.583 223.911 147.022 223.753 146.32 223.594C145.39 223.39 144.631 223.18 144.042 222.965C143.464 222.738 142.976 222.404 142.58 221.962C142.183 221.52 141.985 220.931 141.985 220.194C141.985 219.514 142.16 218.913 142.512 218.392C142.863 217.871 143.362 217.468 144.008 217.185C144.665 216.902 145.424 216.76 146.286 216.76C147.113 216.76 147.878 216.896 148.581 217.168C149.283 217.429 149.89 217.82 150.4 218.341L149.958 219.174C149.391 218.664 148.813 218.29 148.224 218.052C147.634 217.814 146.988 217.695 146.286 217.695C145.266 217.695 144.467 217.916 143.889 218.358C143.322 218.8 143.039 219.406 143.039 220.177C143.039 220.846 143.288 221.344 143.787 221.673C144.285 222.002 145.016 222.279 145.98 222.506L146.473 222.625C147.379 222.84 148.099 223.05 148.632 223.254C149.164 223.458 149.618 223.764 149.992 224.172C150.366 224.58 150.553 225.124 150.553 225.804C150.553 226.461 150.377 227.045 150.026 227.555C149.674 228.054 149.17 228.445 148.513 228.728C147.867 229 147.113 229.136 146.252 229.136ZM159.618 220.483V229H158.615V227.453C158.343 227.997 157.958 228.411 157.459 228.694C156.961 228.977 156.388 229.119 155.742 229.119C154.745 229.119 153.991 228.841 153.481 228.286C152.971 227.731 152.716 226.909 152.716 225.821V220.483H153.736V225.753C153.736 226.592 153.906 227.209 154.246 227.606C154.586 228.003 155.113 228.201 155.827 228.201C156.666 228.201 157.335 227.94 157.833 227.419C158.332 226.886 158.581 226.184 158.581 225.311V220.483H159.618ZM166.407 220.279C168.458 220.279 169.484 221.378 169.484 223.577V229H168.447V223.645C168.447 222.795 168.271 222.172 167.92 221.775C167.58 221.378 167.042 221.18 166.305 221.18C165.455 221.18 164.769 221.441 164.248 221.962C163.727 222.483 163.466 223.186 163.466 224.07V229H162.446V222.846C162.446 221.962 162.401 221.174 162.31 220.483H163.296L163.432 222.047C163.693 221.469 164.084 221.033 164.605 220.738C165.126 220.432 165.727 220.279 166.407 220.279ZM176.235 220.279C178.287 220.279 179.312 221.378 179.312 223.577V229H178.275V223.645C178.275 222.795 178.1 222.172 177.748 221.775C177.408 221.378 176.87 221.18 176.133 221.18C175.283 221.18 174.598 221.441 174.076 221.962C173.555 222.483 173.294 223.186 173.294 224.07V229H172.274V222.846C172.274 221.962 172.229 221.174 172.138 220.483H173.124L173.26 222.047C173.521 221.469 173.912 221.033 174.433 220.738C174.955 220.432 175.555 220.279 176.235 220.279ZM189.327 220.483L185.315 229.884C184.919 230.813 184.42 231.493 183.819 231.924C183.23 232.366 182.488 232.678 181.592 232.859L181.388 232.043C182.204 231.85 182.816 231.601 183.224 231.295C183.644 230.989 183.995 230.507 184.278 229.85L184.635 229.017L180.997 220.483H182.102L185.179 227.963L188.273 220.483H189.327ZM191.627 227.521V229H190.182V227.521H191.627ZM206.562 225.77H200.034L198.64 229H197.552L202.822 216.896H203.774L209.027 229H207.939L206.562 225.77ZM206.154 224.852L203.298 218.171L200.425 224.852H206.154ZM210.873 216.488H211.893V229H210.873V216.488ZM214.741 216.488H215.761V229H214.741V216.488ZM226.614 220.279C226.898 220.279 227.147 220.302 227.362 220.347L227.311 221.282C227.096 221.237 226.835 221.214 226.529 221.214C225.668 221.214 225.022 221.492 224.591 222.047C224.172 222.591 223.962 223.243 223.962 224.002V229H222.942V222.846C222.942 221.962 222.897 221.174 222.806 220.483H223.792L223.928 222.064C224.144 221.486 224.489 221.044 224.965 220.738C225.453 220.432 226.002 220.279 226.614 220.279ZM228.869 220.483H229.889V229H228.869V220.483ZM230.093 216.964V218.29H228.716V216.964H230.093ZM240.03 220.483V229.034C240.03 230.269 239.724 231.204 239.112 231.839C238.5 232.474 237.599 232.791 236.409 232.791C235.14 232.791 234.035 232.485 233.094 231.873L233.298 230.972C233.854 231.301 234.364 231.533 234.828 231.669C235.293 231.805 235.826 231.873 236.426 231.873C237.276 231.873 237.917 231.641 238.347 231.176C238.789 230.711 239.01 230.031 239.01 229.136V226.943C238.75 227.521 238.364 227.969 237.854 228.286C237.344 228.592 236.732 228.745 236.018 228.745C235.27 228.745 234.607 228.569 234.029 228.218C233.451 227.855 232.998 227.357 232.669 226.722C232.352 226.076 232.193 225.339 232.193 224.512C232.193 223.673 232.352 222.937 232.669 222.302C232.998 221.656 233.451 221.157 234.029 220.806C234.607 220.455 235.27 220.279 236.018 220.279C236.732 220.279 237.339 220.426 237.837 220.721C238.347 221.016 238.733 221.446 238.993 222.013V220.483H240.03ZM236.154 227.81C237.038 227.81 237.73 227.515 238.228 226.926C238.738 226.337 238.993 225.532 238.993 224.512C238.993 223.481 238.738 222.67 238.228 222.081C237.73 221.48 237.038 221.18 236.154 221.18C235.259 221.18 234.556 221.48 234.046 222.081C233.536 222.67 233.281 223.481 233.281 224.512C233.281 225.543 233.536 226.354 234.046 226.943C234.556 227.521 235.259 227.81 236.154 227.81ZM246.809 220.279C248.86 220.279 249.886 221.378 249.886 223.577V229H248.849V223.645C248.849 222.795 248.673 222.172 248.322 221.775C247.982 221.378 247.443 221.18 246.707 221.18C245.857 221.18 245.171 221.441 244.65 221.962C244.128 222.483 243.868 223.186 243.868 224.07V229H242.848V216.488H243.868V221.962C244.14 221.407 244.531 220.987 245.041 220.704C245.551 220.421 246.14 220.279 246.809 220.279ZM254.121 221.316V226.382C254.121 227.062 254.251 227.532 254.512 227.793C254.772 228.054 255.158 228.184 255.668 228.184C255.985 228.184 256.291 228.133 256.586 228.031V228.966C256.223 229.057 255.855 229.102 255.481 229.102C254.733 229.102 254.143 228.892 253.713 228.473C253.293 228.054 253.084 227.425 253.084 226.586V221.316H251.401V220.483H253.084V218.222L254.121 217.831V220.483H256.637V221.316H254.121ZM261.174 229.119C259.792 229.119 258.698 228.739 257.893 227.98L258.267 227.181C258.721 227.555 259.174 227.821 259.627 227.98C260.092 228.139 260.625 228.218 261.225 228.218C261.928 228.218 262.461 228.099 262.823 227.861C263.197 227.612 263.384 227.255 263.384 226.79C263.384 226.405 263.26 226.104 263.01 225.889C262.772 225.662 262.376 225.481 261.82 225.345L260.375 225.022C259.695 224.863 259.157 224.58 258.76 224.172C258.375 223.764 258.182 223.288 258.182 222.744C258.182 221.996 258.466 221.401 259.032 220.959C259.61 220.506 260.375 220.279 261.327 220.279C261.928 220.279 262.483 220.375 262.993 220.568C263.515 220.761 263.945 221.038 264.285 221.401L263.894 222.2C263.112 221.52 262.257 221.18 261.327 221.18C260.67 221.18 260.16 221.31 259.797 221.571C259.435 221.832 259.253 222.194 259.253 222.659C259.253 223.044 259.367 223.356 259.593 223.594C259.831 223.832 260.194 224.008 260.681 224.121L262.143 224.478C263.673 224.818 264.438 225.572 264.438 226.739C264.438 227.453 264.144 228.031 263.554 228.473C262.965 228.904 262.172 229.119 261.174 229.119ZM274.809 220.279C275.092 220.279 275.341 220.302 275.557 220.347L275.506 221.282C275.29 221.237 275.03 221.214 274.724 221.214C273.862 221.214 273.216 221.492 272.786 222.047C272.366 222.591 272.157 223.243 272.157 224.002V229H271.137V222.846C271.137 221.962 271.091 221.174 271.001 220.483H271.987L272.123 222.064C272.338 221.486 272.684 221.044 273.16 220.738C273.647 220.432 274.197 220.279 274.809 220.279ZM277.441 224.614V224.665C277.441 225.81 277.702 226.688 278.223 227.3C278.756 227.901 279.527 228.201 280.535 228.201C281.555 228.201 282.49 227.85 283.34 227.147L283.748 227.963C283.374 228.314 282.898 228.598 282.32 228.813C281.742 229.017 281.147 229.119 280.535 229.119C279.243 229.119 278.223 228.728 277.475 227.946C276.727 227.164 276.353 226.087 276.353 224.716C276.353 223.843 276.518 223.073 276.846 222.404C277.186 221.724 277.657 221.203 278.257 220.84C278.858 220.466 279.549 220.279 280.331 220.279C281.453 220.279 282.326 220.642 282.949 221.367C283.584 222.092 283.901 223.101 283.901 224.393V224.614H277.441ZM280.331 221.129C279.549 221.129 278.915 221.367 278.427 221.843C277.94 222.308 277.634 222.965 277.509 223.815H282.915C282.847 222.942 282.592 222.279 282.15 221.826C281.708 221.361 281.102 221.129 280.331 221.129ZM288.899 229.119C287.516 229.119 286.422 228.739 285.618 227.98L285.992 227.181C286.445 227.555 286.898 227.821 287.352 227.98C287.816 228.139 288.349 228.218 288.95 228.218C289.652 228.218 290.185 228.099 290.548 227.861C290.922 227.612 291.109 227.255 291.109 226.79C291.109 226.405 290.984 226.104 290.735 225.889C290.497 225.662 290.1 225.481 289.545 225.345L288.1 225.022C287.42 224.863 286.881 224.58 286.485 224.172C286.099 223.764 285.907 223.288 285.907 222.744C285.907 221.996 286.19 221.401 286.757 220.959C287.335 220.506 288.1 220.279 289.052 220.279C289.652 220.279 290.208 220.375 290.718 220.568C291.239 220.761 291.67 221.038 292.01 221.401L291.619 222.2C290.837 221.52 289.981 221.18 289.052 221.18C288.394 221.18 287.884 221.31 287.522 221.571C287.159 221.832 286.978 222.194 286.978 222.659C286.978 223.044 287.091 223.356 287.318 223.594C287.556 223.832 287.918 224.008 288.406 224.121L289.868 224.478C291.398 224.818 292.163 225.572 292.163 226.739C292.163 227.453 291.868 228.031 291.279 228.473C290.689 228.904 289.896 229.119 288.899 229.119ZM295.072 224.614V224.665C295.072 225.81 295.333 226.688 295.854 227.3C296.387 227.901 297.158 228.201 298.166 228.201C299.186 228.201 300.121 227.85 300.971 227.147L301.379 227.963C301.005 228.314 300.529 228.598 299.951 228.813C299.373 229.017 298.778 229.119 298.166 229.119C296.874 229.119 295.854 228.728 295.106 227.946C294.358 227.164 293.984 226.087 293.984 224.716C293.984 223.843 294.149 223.073 294.477 222.404C294.817 221.724 295.288 221.203 295.888 220.84C296.489 220.466 297.18 220.279 297.962 220.279C299.084 220.279 299.957 220.642 300.58 221.367C301.215 222.092 301.532 223.101 301.532 224.393V224.614H295.072ZM297.962 221.129C297.18 221.129 296.546 221.367 296.058 221.843C295.571 222.308 295.265 222.965 295.14 223.815H300.546C300.478 222.942 300.223 222.279 299.781 221.826C299.339 221.361 298.733 221.129 297.962 221.129ZM307.431 220.279C307.714 220.279 307.963 220.302 308.179 220.347L308.128 221.282C307.912 221.237 307.652 221.214 307.346 221.214C306.484 221.214 305.838 221.492 305.408 222.047C304.988 222.591 304.779 223.243 304.779 224.002V229H303.759V222.846C303.759 221.962 303.713 221.174 303.623 220.483H304.609L304.745 222.064C304.96 221.486 305.306 221.044 305.782 220.738C306.269 220.432 306.819 220.279 307.431 220.279ZM317.425 220.483L313.77 229H312.699L309.095 220.483H310.2L313.277 227.963L316.371 220.483H317.425ZM319.593 224.614V224.665C319.593 225.81 319.853 226.688 320.375 227.3C320.907 227.901 321.678 228.201 322.687 228.201C323.707 228.201 324.642 227.85 325.492 227.147L325.9 227.963C325.526 228.314 325.05 228.598 324.472 228.813C323.894 229.017 323.299 229.119 322.687 229.119C321.395 229.119 320.375 228.728 319.627 227.946C318.879 227.164 318.505 226.087 318.505 224.716C318.505 223.843 318.669 223.073 318.998 222.404C319.338 221.724 319.808 221.203 320.409 220.84C321.009 220.466 321.701 220.279 322.483 220.279C323.605 220.279 324.477 220.642 325.101 221.367C325.735 222.092 326.053 223.101 326.053 224.393V224.614H319.593ZM322.483 221.129C321.701 221.129 321.066 221.367 320.579 221.843C320.091 222.308 319.785 222.965 319.661 223.815H325.067C324.999 222.942 324.744 222.279 324.302 221.826C323.86 221.361 323.253 221.129 322.483 221.129ZM335.504 216.488V229H334.467V227.368C334.218 227.935 333.838 228.371 333.328 228.677C332.829 228.972 332.229 229.119 331.526 229.119C330.778 229.119 330.115 228.938 329.537 228.575C328.97 228.201 328.528 227.68 328.211 227.011C327.894 226.331 327.735 225.549 327.735 224.665C327.735 223.781 327.888 223.01 328.194 222.353C328.511 221.684 328.953 221.174 329.52 220.823C330.098 220.46 330.767 220.279 331.526 220.279C332.217 220.279 332.812 220.426 333.311 220.721C333.821 221.016 334.206 221.446 334.467 222.013V216.488H335.504ZM331.662 228.201C332.557 228.201 333.249 227.895 333.736 227.283C334.223 226.671 334.467 225.81 334.467 224.699C334.467 223.588 334.223 222.727 333.736 222.115C333.249 221.492 332.563 221.18 331.679 221.18C330.772 221.18 330.07 221.486 329.571 222.098C329.072 222.71 328.823 223.566 328.823 224.665C328.823 225.776 329.072 226.643 329.571 227.266C330.07 227.889 330.767 228.201 331.662 228.201Z" fill="#848484"/>
<circle cx="23" cy="22" r="22" fill="#1ABE84"/>
<circle cx="23" cy="22" r="9.54878" fill="#FB8F1D" stroke="white" stroke-width="3"/>
</svg>
